<?xml version="1.0" standalone="no"?>
<!DOCTYPE svg PUBLIC "-//W3C//DTD SVG 1.1//EN" "http://www.w3.org/Graphics/SVG/1.1/DTD/svg11.dtd" >
<svg xmlns="http://www.w3.org/2000/svg" xmlns:xlink="http://www.w3.org/1999/xlink" version="1.1">
<metadata>
Created by FontForge 20170731 at Wed Mar 16 06:44:04 2022
 By Aleksey,,,
Copyright 2020 The Indigo Project Authors (https://github.com/TiroTypeworks/Indigo)
</metadata>
<defs>
<font id="TiroDevaSanskrit-Regular" horiz-adv-x="0" >
  <font-face 
    font-family="Tiro Devanagari Sanskrit"
    font-weight="400"
    font-stretch="normal"
    units-per-em="1000"
    panose-1="2 0 0 0 0 0 0 0 0 0"
    ascent="755"
    descent="-245"
    x-height="476"
    cap-height="701"
    bbox="-677 -545 1881 1091"
    underline-thickness="45"
    underline-position="-154"
    unicode-range="U+000D-A8FD"
  />
<missing-glyph horiz-adv-x="464" 
d="M484 34q0 -34 -35 -34h-433q-36 0 -36 34v631q0 34 36 34h433q35 0 35 -34v-631zM249 240v79q70 11 105.5 55t35.5 99q0 39 -17.5 71.5t-52 52t-86.5 19.5q-26 0 -53.5 -5t-49 -12.5t-29.5 -13.5q-13 -10 -13 -24q0 -12 8 -22.5t20 -10.5q7 0 14 3q8 3 30 11.5t57 8.5
q55 0 75.5 -25t20.5 -60q0 -31 -11 -50t-27.5 -28t-33 -12.5t-26.5 -4.5q-4 0 -12.5 -2.5t-16 -10.5t-7.5 -26v-92q0 -19 9 -26.5t25 -7.5q17 0 26 7.5t9 26.5zM166 121q0 -19 14 -33t33 -14q20 0 34.5 14t14.5 33q0 20 -14.5 34t-34.5 14q-19 0 -33 -14t-14 -34z" />
    <glyph glyph-name=".notdef" horiz-adv-x="464" 
d="M484 34q0 -34 -35 -34h-433q-36 0 -36 34v631q0 34 36 34h433q35 0 35 -34v-631zM249 240v79q70 11 105.5 55t35.5 99q0 39 -17.5 71.5t-52 52t-86.5 19.5q-26 0 -53.5 -5t-49 -12.5t-29.5 -13.5q-13 -10 -13 -24q0 -12 8 -22.5t20 -10.5q7 0 14 3q8 3 30 11.5t57 8.5
q55 0 75.5 -25t20.5 -60q0 -31 -11 -50t-27.5 -28t-33 -12.5t-26.5 -4.5q-4 0 -12.5 -2.5t-16 -10.5t-7.5 -26v-92q0 -19 9 -26.5t25 -7.5q17 0 26 7.5t9 26.5zM166 121q0 -19 14 -33t33 -14q20 0 34.5 14t14.5 33q0 20 -14.5 34t-34.5 14q-19 0 -33 -14t-14 -34z" />
    <glyph glyph-name=".null" 
 />
    <glyph glyph-name="nonmarkingreturn" horiz-adv-x="333" 
 />
    <glyph glyph-name="NULL" 
 />
    <glyph glyph-name="NULL" 
 />
    <glyph glyph-name="CR" unicode="&#xd;" horiz-adv-x="260" 
 />
    <glyph glyph-name="space" unicode=" " horiz-adv-x="260" 
 />
    <glyph glyph-name="exclam" unicode="!" horiz-adv-x="319" 
d="M243 655l-52 -448q-18 -2 -36 0l-54 447q0 27 20 42t52 15q31 0 50.5 -14.5t19.5 -41.5zM100 60q0 31 20.5 52t50.5 21q33 0 53 -22t20 -51t-20 -50.5t-53 -21.5q-30 0 -50.5 20.5t-20.5 51.5z" />
    <glyph glyph-name="quotedbl" unicode="&#x22;" horiz-adv-x="412" 
d="M174 674l-45 -256h-31l-43 256q0 17 18.5 27t40.5 10t41 -10t19 -27zM357 674l-45 -256h-31l-43 256q0 17 18.5 27t40.5 10t41 -10t19 -27z" />
    <glyph glyph-name="numbersign" unicode="#" horiz-adv-x="605" 
d="M349 0h-59l46 185h-129l-45 -185h-60l46 185h-103v57h117l34 138h-116v57h131l45 183h57l-45 -183h131l46 183h58l-45 -183h102v-57h-117l-34 -138h117v-57h-131zM221 242h130l34 138h-130z" />
    <glyph glyph-name="dollar" unicode="$" horiz-adv-x="531" 
d="M243 -103v96q-29 1 -64 7t-67 18.5t-52 32.5t-20 50q0 26 14.5 39.5t34.5 13.5q33 0 52.5 -32t19.5 -70q20 -9 40 -14.5t42 -6.5v234q-49 16 -92.5 36.5t-70 54t-26.5 87.5q0 52 25.5 88.5t68.5 57t95 25.5v91q23 2 45 0v-89q24 -1 54.5 -6t59.5 -16.5t48 -31t19 -48.5
q0 -24 -13.5 -37t-33.5 -13q-27 0 -47.5 25.5t-20.5 69.5q-17 10 -34.5 13t-31.5 4v-215q64 -20 109.5 -44t69.5 -57.5t24 -84.5q0 -58 -29 -96.5t-75.5 -59t-98.5 -25.5v-97q-22 -2 -45 0zM288 33q44 6 76 31.5t32 74.5q0 45 -29 69t-79 42v-217zM243 376v198
q-50 -6 -75.5 -32t-25.5 -63q0 -38 27 -62t74 -41z" />
    <glyph glyph-name="percent" unicode="%" horiz-adv-x="814" 
d="M346 516q0 -81 -40.5 -134t-117.5 -53t-117 52t-40 130q0 49 17 92t52.5 69.5t91.5 26.5t89.5 -25.5t49 -67t15.5 -90.5zM187 668q-29 0 -46 -20.5t-24.5 -54.5t-7.5 -73q0 -38 7.5 -75t25.5 -61.5t49 -24.5q29 0 46 21t24.5 55t7.5 74q0 39 -7.5 75.5t-25.5 60t-49 23.5
zM660 662l-471 -671q-18 10 -35 26l471 671l18 -12t17 -14zM783 178q0 -81 -40.5 -134t-117.5 -53t-117 52t-40 130q0 49 17 92t52.5 69.5t91.5 26.5t89.5 -25.5t49 -67t15.5 -90.5zM624 330q-29 0 -46 -20.5t-24.5 -54.5t-7.5 -73q0 -38 7.5 -75t25.5 -61.5t49 -24.5
q29 0 46 21t24.5 55t7.5 74q0 39 -7.5 75.5t-25.5 60t-49 23.5z" />
    <glyph glyph-name="ampersand" unicode="&#x26;" horiz-adv-x="751" 
d="M597 -4q-42 0 -71.5 21t-68.5 71q-41 -53 -92 -80t-113 -27q-59 0 -108.5 23.5t-79 67.5t-29.5 104q0 50 22 90.5t58.5 71t81.5 52.5q-31 32 -52 66.5t-21 79.5q0 48 24.5 82.5t65 53.5t88.5 19q41 0 76 -15t56.5 -44.5t21.5 -72.5q0 -54 -37 -93t-102 -65
q28 -28 60.5 -63t62.5 -70t53 -64q69 105 69 146q0 25 -23 31t-58 8q-3 16 0 31q26 0 57.5 -1t68.5 -1q35 0 60 1t48 1q3 -15 0 -31q-25 -2 -43.5 -6.5t-32.5 -17.5q-11 -11 -27.5 -37.5t-36.5 -63.5q-12 -20 -26.5 -44.5t-30.5 -48.5q39 -50 72 -84.5t69 -34.5q11 0 28 4
t33 12q5 -6 7.5 -14t3.5 -14q-58 -44 -134 -44zM431 122q-31 41 -61.5 78.5t-65.5 77t-81 85.5q-38 -22 -61.5 -60t-23.5 -92q0 -73 42.5 -118t113.5 -45q44 0 74.5 18.5t62.5 55.5zM292 426q79 38 79 128q0 45 -19 72t-55 27q-33 0 -54 -23.5t-21 -64.5q0 -40 19 -73.5
t51 -65.5z" />
    <glyph glyph-name="quotesingle" unicode="'" horiz-adv-x="239" 
d="M179 674l-45 -256h-31l-43 256q0 17 18.5 27t40.5 10t41 -10t19 -27z" />
    <glyph glyph-name="parenleft" unicode="(" horiz-adv-x="397" 
d="M300 754l22 -22q-174 -138 -174 -447q0 -310 174 -448l-22 -21q-240 171 -240 471q0 151 60 268.5t180 198.5z" />
    <glyph glyph-name="parenright" unicode=")" horiz-adv-x="397" 
d="M97 -184l-22 22q174 138 174 447q0 310 -174 448l22 21q240 -171 240 -471q0 -151 -60 -268.5t-180 -198.5z" />
    <glyph glyph-name="asterisk" unicode="*" horiz-adv-x="458" 
d="M106 358q-31 0 -31 30q0 14 6.5 33t19.5 26q14 7 44 21.5t62 39.5q-32 10 -56 13t-40 4q-11 1 -19 2t-13 3q-17 9 -28 26t-11 32q0 16 14 24t30 8q14 0 24.5 -3t20.5 -13q12 -12 31.5 -33t55.5 -45q0 30 -5 57t-9 44q-2 8 -3 13.5t-1 8.5q0 9 7 24t18.5 26.5t25.5 11.5
q17 0 28.5 -20t11.5 -43q0 -10 -10 -29t-23 -44t-21 -52q39 12 62.5 25t37.5 22t27 9q23 0 42 -11t19 -27q0 -12 -10.5 -24t-24.5 -20t-27 -8q-4 0 -11 1t-16 3q-17 4 -41.5 7.5t-53.5 3.5q30 -41 56.5 -63.5t30.5 -29.5q9 -19 9 -39q0 -16 -8 -28.5t-22 -12.5
q-16 0 -36 14.5t-25 33.5q-3 14 -7 45.5t-15 68.5q-33 -43 -45 -76t-17 -38q-11 -10 -25.5 -15.5t-28.5 -5.5z" />
    <glyph glyph-name="plus" unicode="+" horiz-adv-x="581" 
d="M529 211h-211v-211q-10 -1 -27 -1t-28 1v211h-211q-4 27 0 55h211v211q11 1 28 1t27 -1v-211h211q2 -28 0 -55z" />
    <glyph glyph-name="comma" unicode="," horiz-adv-x="297" 
d="M167 23q-17 -13 -38 -13q-22 0 -40 16.5t-18 45.5q0 31 21 51t54 20q43 0 65 -35t22 -83q0 -60 -35 -119.5t-108 -94.5l-17 29q49 27 76 63t27 80q0 7 -1.5 18t-7.5 22z" />
    <glyph glyph-name="hyphen" unicode="-" horiz-adv-x="353" 
d="M307 213h-264q-1 39 0 78h264q2 -38 0 -78z" />
    <glyph glyph-name="period" unicode="." horiz-adv-x="297" 
d="M75 62q0 31 21 52.5t51 21.5q34 0 54.5 -22.5t20.5 -51.5q0 -30 -20.5 -52t-54.5 -22q-30 0 -51 21.5t-21 52.5z" />
    <glyph glyph-name="slash" unicode="/" horiz-adv-x="377" 
d="M363 748l-330 -925h-62l327 925h65z" />
    <glyph glyph-name="zero" unicode="0" horiz-adv-x="563" 
d="M523 314q0 -94 -27.5 -167.5t-81.5 -116t-134 -42.5q-78 0 -131 41.5t-80 112.5t-27 161q0 65 14.5 123.5t44.5 104.5t76.5 72.5t110.5 26.5q63 0 108 -25.5t73 -70t41 -101t13 -119.5zM279 591q-49 0 -78 -38t-41 -99.5t-12 -132.5q0 -54 7 -106t23 -95t42.5 -68.5
t66.5 -25.5q50 0 78.5 38t40.5 100.5t12 134.5q0 54 -7 105.5t-22.5 94t-42.5 67.5t-67 25z" />
    <glyph glyph-name="one" unicode="1" horiz-adv-x="372" 
d="M49 -1q-3 17 0 32q48 5 68 10.5t24 21.5t4 52v373q0 25 -4.5 34t-24.5 9q-11 0 -35 -3t-57 -10q-6 15 -7 32q49 13 88 25t75.5 26t77.5 31q5 -5 9 -10t7 -13q-27 -32 -27 -117v-367q0 -32 2 -49.5t11 -26t29.5 -12t56.5 -6.5q3 -16 0 -32q-26 0 -56 1.5t-89 1.5
q-58 0 -89.5 -1.5t-62.5 -1.5z" />
    <glyph glyph-name="two" unicode="2" horiz-adv-x="530" 
d="M448 -1q-61 2 -134.5 2h-132.5h-96t-60 -1q-5 13 -5 27q121 94 189 168t96 133t28 108q0 63 -38 94.5t-93 31.5q-37 0 -73.5 -13t-67.5 -36q-5 5 -10 11t-9 13q43 47 95 70t108 23q52 0 96.5 -19.5t72 -55.5t27.5 -86q0 -59 -35 -116.5t-101 -122t-158 -144.5
q55 0 101 0.5t74.5 1.5t29.5 1q27 1 42 5t28 21.5t34 58.5q6 0 15 -1t16 -4q-12 -42 -21.5 -86t-17.5 -84z" />
    <glyph glyph-name="three" unicode="3" horiz-adv-x="523" 
d="M139 254q67 21 108 53t60 69t19 72q0 47 -30.5 80.5t-93.5 33.5q-37 0 -73 -13t-67 -36q-13 13 -17 24q44 49 93 71t109 22q61 0 102 -20t61.5 -53.5t20.5 -72.5q0 -49 -32.5 -102t-99.5 -94q89 -15 134.5 -66t45.5 -125q0 -57 -25 -101t-67 -74t-94 -45.5t-106 -15.5
q-57 0 -94 15.5t-55 37.5t-18 43q0 20 14.5 34.5t36.5 14.5q31 0 56 -27.5t38 -78.5q21 -3 39 -3q54 0 93 24t59.5 63t20.5 84q0 40 -18 77.5t-55 62t-93 24.5q-30 0 -62 -8q-4 8 -6 15t-4 15z" />
    <glyph glyph-name="four" unicode="4" horiz-adv-x="581" 
d="M395 -117h-25.5t-24.5 1v225h-322q-3 27 -3 56q87 119 173 232.5t177 228.5q43 0 77 -6q-1 -38 -1.5 -57.5t-0.5 -33.5v-342h111l-2 -40t-3 -38h-106v-225q-12 -1 -24.5 -1h-25.5zM345 187v342q-68 -86 -130.5 -170t-125.5 -172h256z" />
    <glyph glyph-name="five" unicode="5" horiz-adv-x="547" 
d="M133 613l345 7q-3 -23 -8 -50t-11 -50h-296l-24 -164q25 4 49 6t46 2q93 0 151 -32t85 -84.5t27 -114.5q0 -60 -23 -110t-64 -86.5t-93 -56t-111 -19.5q-52 0 -86.5 11.5t-54 28t-27.5 34t-8 29.5q0 22 13.5 34t32.5 12q29 0 56.5 -27t37.5 -81q12 -2 21.5 -2.5
t18.5 -0.5q62 0 104 28.5t63.5 74.5t21.5 98q0 45 -19 85.5t-62.5 66t-116.5 25.5q-23 0 -53 -3.5t-60 -11.5l-7 3z" />
    <glyph glyph-name="six" unicode="6" horiz-adv-x="571" 
d="M293 -12q-45 0 -89.5 16.5t-80.5 51.5t-57.5 90.5t-21.5 133.5q0 82 26.5 164t80.5 150t135.5 109t191.5 41h14t20 -2q0 -20 -4 -37q-5 1 -13.5 1.5t-22.5 0.5q-83 0 -145.5 -37.5t-102.5 -103t-57 -149.5q33 21 72 32t79 11q55 0 104 -23.5t80 -73t31 -127.5
q0 -83 -35 -138t-90 -82.5t-115 -27.5zM159 370q-4 -37 -4 -77q0 -96 21 -155t54 -85.5t69 -26.5q29 0 57 18t46 58t18 105q0 71 -21 115t-55.5 64.5t-73.5 20.5q-26 0 -55 -9t-56 -28z" />
    <glyph glyph-name="seven" unicode="7" horiz-adv-x="503" 
d="M119 -116l-5 13q72 158 147.5 313.5t150.5 315.5q-1 0 -26.5 0.5t-67 0.5h-90.5h-35t-41 -1q-28 -1 -45 -6.5t-29 -25.5t-29 -67q-7 0 -15.5 0.5t-16.5 4.5q21 99 30 188q65 -3 131.5 -4t141.5 -1h60t58.5 1t38.5 2q2 -7 2.5 -13t1.5 -16q-44 -109 -92 -231t-91.5 -244
t-75.5 -230q-11 -1 -26.5 -1h-28.5h-23.5t-24.5 1z" />
    <glyph glyph-name="eight" unicode="8" horiz-adv-x="539" 
d="M257 -12q-72 0 -122.5 25t-77 67.5t-26.5 92.5q0 48 22.5 84t58.5 63.5t76 47.5v2q-54 33 -91 74.5t-37 106.5q0 54 27.5 97.5t77 69.5t116.5 26q65 0 110 -25t68 -63.5t23 -81.5q0 -44 -21 -78t-52 -59t-61 -42v-2q41 -23 77.5 -49t59.5 -62t23 -87q0 -56 -30.5 -103.5
t-86.5 -75.5t-134 -28zM222 350q-36 -27 -60 -68.5t-24 -100.5q0 -42 14.5 -77.5t44 -57.5t74.5 -22q44 0 73.5 20t44.5 52t15 67q0 44 -25.5 75.5t-67 57.5t-89.5 54zM311 412q26 18 47.5 55.5t21.5 96.5q0 38 -11 71t-34.5 53t-61.5 20q-54 0 -83 -39t-29 -91
q0 -39 20 -67.5t54 -52t76 -46.5z" />
    <glyph glyph-name="nine" unicode="9" horiz-adv-x="570" 
d="M407 204q-44 -27 -82.5 -36t-70.5 -9q-72 0 -120 33t-72 85t-24 109q0 63 27.5 119t81 90.5t130.5 34.5q48 0 92.5 -16t80 -51t56 -92t20.5 -139q0 -85 -25.5 -168.5t-78 -152t-135 -109.5t-196.5 -41q-3 0 -14 0.5t-21 1.5q-1 9 -0.5 17.5t3.5 18.5q9 -1 13.5 -1h5.5
q96 0 163.5 38t108.5 106.5t57 161.5zM416 327q0 97 -21 155t-54.5 84t-69.5 26t-63 -24t-41.5 -64t-14.5 -89t16 -96t49 -77t84 -30q21 0 49.5 7.5t61.5 29.5q4 38 4 78z" />
    <glyph glyph-name="colon" unicode=":" horiz-adv-x="297" 
d="M90 62q0 31 21 52.5t51 21.5q34 0 54.5 -22.5t20.5 -51.5q0 -30 -20.5 -52t-54.5 -22q-30 0 -51 21.5t-21 52.5zM90 407q0 31 21 52.5t51 21.5q34 0 54.5 -22.5t20.5 -51.5q0 -30 -20.5 -52t-54.5 -22q-30 0 -51 21.5t-21 52.5z" />
    <glyph glyph-name="semicolon" unicode=";" horiz-adv-x="297" 
d="M182 23q-17 -13 -38 -13q-22 0 -40 16.5t-18 45.5q0 31 21 51t54 20q43 0 65 -35t22 -83q0 -60 -35 -119.5t-108 -94.5l-17 29q49 27 76 63t27 80q0 7 -1.5 18t-7.5 22zM90 407q0 31 21 52.5t51 21.5q34 0 54.5 -22.5t20.5 -51.5q0 -30 -20.5 -52t-54.5 -22
q-30 0 -51 21.5t-21 52.5z" />
    <glyph glyph-name="less" unicode="&#x3c;" horiz-adv-x="581" 
d="M61 258l443 206q6 -10 12.5 -24t10.5 -25l-388 -177l388 -176q-4 -11 -11 -25l-12 -24l-443 206q-4 20 0 39z" />
    <glyph glyph-name="equal" unicode="=" horiz-adv-x="581" 
d="M52 356h477q2 -28 0 -55h-477q-4 27 0 55zM52 176h477q2 -28 0 -55h-477q-4 27 0 55z" />
    <glyph glyph-name="greater" unicode="&#x3e;" horiz-adv-x="581" 
d="M77 464l443 -206q5 -19 0 -39l-443 -206q-5 10 -11.5 24t-11.5 25l388 176l-388 177q4 11 10.5 25t12.5 24z" />
    <glyph glyph-name="question" unicode="?" horiz-adv-x="412" 
d="M148 202l-20 193q16 -1 22 -1h7q71 0 107.5 5.5t50 20.5t13.5 41q0 50 -31 98t-83 73q-44 -25 -83 -25q-28 0 -47 13t-19 37t20.5 39t51.5 15q35 0 73.5 -19t73.5 -51t58 -71q17 -29 26 -61.5t9 -71.5q0 -78 -42 -109t-142 -31l-8 -95q-18 -2 -37 0zM167 -12
q-31 0 -51.5 20.5t-20.5 51.5t20.5 52t51.5 21q32 0 52 -22t20 -51t-20 -50.5t-52 -21.5z" />
    <glyph glyph-name="at" unicode="@" horiz-adv-x="916" 
d="M442 -193q-113 0 -202 46t-139.5 131t-50.5 200q0 98 36.5 178.5t99.5 138.5t145 90t173 32q75 0 140 -21.5t115 -63t78 -101t28 -135.5t-26.5 -134t-68.5 -97t-89 -59t-88 -20q-43 0 -68 21.5t-25 62.5q0 10 3 26l-3 1q-18 -27 -43.5 -52.5t-56 -42t-63.5 -16.5
q-44 0 -68.5 32t-24.5 85q0 39 13 84.5t36 90t55.5 81t71.5 58.5t82 22q20 0 39.5 -5t41.5 -15v0l79 16l2 -3l-5.5 -21t-13.5 -53.5t-17.5 -70.5l-18.5 -74t-15 -63t-8 -38q-1 -5 -3 -16t-2 -24q0 -18 8 -31.5t31 -13.5q25 0 56 17t60 51t48 84t19 115q0 93 -40.5 156
t-109 95t-151.5 32q-82 0 -152 -30t-122 -83.5t-81 -125t-29 -154.5q0 -104 44 -180.5t120.5 -118.5t175.5 -42q72 0 141.5 24t127.5 73q6 -4 11.5 -11t9.5 -12q-61 -61 -142 -88.5t-164 -27.5zM559 367q-42 35 -79 35q-34 0 -60.5 -27.5t-45.5 -70t-29 -89.5t-10 -85
q0 -37 10.5 -58.5t34.5 -21.5q27 0 56 24.5t52 62.5t33 78z" />
    <glyph glyph-name="A" unicode="A" horiz-adv-x="679" 
d="M-27 -1q-2 16 0 32q28 3 45 7t29 14.5t23 32t26 60.5l216 554q11 4 26.5 6t26.5 2l215 -571q14 -36 23 -56.5t20 -29.5t28 -12.5t47 -6.5q2 -16 0 -32q-35 0 -72 1t-74 1q-38 0 -76.5 -1t-76.5 -1q-3 15 0 32q49 5 68 9.5t19 23.5q0 8 -3 18t-8 25l-57 154h-225l-50 -138
q-7 -19 -10.5 -31.5t-3.5 -22.5q0 -22 20.5 -27.5t67.5 -10.5q2 -17 0 -32q-34 0 -67 1t-67 1q-28 0 -54 -1t-56 -1zM208 303h195l-98 266z" />
    <glyph glyph-name="B" unicode="B" horiz-adv-x="637" 
d="M326 -2q-35 0 -72.5 1.5t-66.5 1.5q-16 0 -45 -0.5t-59 -1t-50 -0.5q-2 15 0 32q47 5 67 9.5t25 20t5 50.5v465q0 42 -5 60t-25.5 23.5t-66.5 9.5q-2 15 0 32q21 0 50 -0.5t57.5 -1t47.5 -0.5q31 0 71.5 1t64.5 1q122 0 181 -40t59 -116q0 -127 -157 -172v-1
q54 -4 98.5 -25t71.5 -59t27 -94q0 -71 -43 -118.5t-107 -64.5q-28 -7 -60 -10t-68 -3zM299 341q-12 0 -27.5 -0.5t-31.5 -2.5v-222v-42t1 -28q44 -9 79 -9q77 0 119.5 38.5t42.5 117.5q0 77 -44 112.5t-139 35.5zM240 382q8 -1 14.5 -1h12.5q96 0 136.5 34.5t40.5 104.5
q0 140 -145 140q-15 0 -28.5 -1.5t-30.5 -3.5v-273z" />
    <glyph glyph-name="C" unicode="C" horiz-adv-x="721" 
d="M666 207q-12 -88 -18 -179q-55 -16 -112 -29t-122 -13q-111 0 -192.5 44t-126.5 123.5t-45 187.5q0 109 45 192.5t127 130.5t193 47q41 0 72 -5t75 -15q20 -4 35 -8t31 -4q5 0 11 0.5t10 1.5q2 -44 4 -91t6 -98q-20 -3 -34 -2q-39 181 -205 181q-67 0 -114 -26.5t-76 -72
t-42 -102.5t-13 -119q0 -88 26 -162t82 -118t144 -44q83 0 132.5 44t71.5 137h16.5t18.5 -1z" />
    <glyph glyph-name="D" unicode="D" horiz-adv-x="774" 
d="M188 699q31 0 71 1t66 1q197 0 298 -84t101 -245q0 -118 -51.5 -201.5t-142.5 -127.5t-209 -44q-14 0 -39 0.5t-51 1t-44 0.5q-16 0 -45 -0.5t-59 -1t-50 -0.5q-2 15 0 32q47 5 67 9.5t25 19.5t5 51v465q0 42 -5 60t-25.5 23.5t-66.5 9.5q-2 15 0 32q21 0 50 -0.5
t57.5 -1t47.5 -0.5zM240 655v-531v-42t1 -28q48 -14 99 -14q87 0 145.5 41t88 112t29.5 161q0 140 -71.5 223t-211.5 83q-25 0 -47.5 -2t-32.5 -3z" />
    <glyph glyph-name="E" unicode="E" horiz-adv-x="640" 
d="M33 -1q-2 15 0 32q47 5 67 9.5t25 20t5 50.5v465q0 42 -5 60t-25.5 23.5t-66.5 9.5q-2 15 0 32q26 0 45.5 -0.5t39.5 -0.5t48 -0.5t71 -0.5q79 0 148 0.5t115 1t54 0.5q4 -37 9.5 -76t12.5 -83q-17 -2 -33 0q-12 30 -28 53t-33 35q-19 14 -45.5 21t-65.5 7h-131v-273h55
q48 0 73 6.5t37 29t19 71.5q18 3 34 0q-1 -44 -1.5 -67.5t-0.5 -34.5v-18v-10l2 -132q-15 -3 -34 0q-6 53 -18 76t-35.5 29t-66.5 6h-64v-217q0 -34 0.5 -54.5t1.5 -26.5h137q50 0 80.5 8.5t50.5 25.5q14 11 33 38.5t36 63.5q16 2 31 0q-10 -56 -17 -101t-12 -78h-98
t-106 0.5t-96.5 0.5h-69.5q-47 0 -76.5 -0.5t-52 -1t-49.5 -0.5z" />
    <glyph glyph-name="F" unicode="F" horiz-adv-x="607" 
d="M30 -1q-2 15 0 32q48 5 69 9.5t26 19.5t5 51v465q0 42 -5 60t-25.5 23.5t-66.5 9.5q-2 15 0 32q24 0 40.5 -0.5t34.5 -0.5t45.5 -0.5t73.5 -0.5q57 0 116 0.5t109.5 0.5t82 0.5t33.5 0.5q5 -38 11 -79t13 -87q-8 -1 -16.5 -1t-16.5 1q-26 67 -61 94q-36 29 -113 29h-145
v-283h66q48 0 73 6.5t37 29t19 71.5q18 3 34 0q-1 -42 -1.5 -66.5t-0.5 -38.5v-26v-25t0.5 -39t1.5 -68q-15 -3 -34 0q-6 53 -18 76.5t-35.5 29.5t-66.5 6h-75v-207q0 -31 2 -48t12 -27q10 -9 30.5 -12t59.5 -6q3 -16 0 -32q-21 0 -51 0.5t-59.5 1t-49.5 0.5q-19 0 -47 -0.5
t-56.5 -1t-50.5 -0.5z" />
    <glyph glyph-name="G" unicode="G" horiz-adv-x="788" 
d="M424 -15q-113 0 -197 42t-130.5 122t-46.5 192t46.5 195t131 129t198.5 46q38 0 81 -5.5t74 -14.5q19 -5 35 -9t32 -4q12 0 24 3q2 -44 4 -91t6 -98q-21 -3 -35 -2q-20 92 -73 136.5t-141 44.5q-70 0 -119.5 -25.5t-80 -69.5t-44.5 -101.5t-14 -122.5q0 -95 29 -168
t88.5 -114.5t149.5 -41.5q28 0 62 5.5t65 17.5v126q0 31 -2.5 48.5t-13 25.5t-33 11.5t-61.5 6.5q-3 16 0 32q21 0 51 -0.5t60.5 -1t50.5 -0.5q31 0 71.5 1t69.5 1q2 -15 0 -31q-41 -5 -59 -10t-22 -20t-4 -51v-32q0 -47 2.5 -79t4.5 -46q-139 -47 -260 -47z" />
    <glyph glyph-name="H" unicode="H" horiz-adv-x="840" 
d="M32 -1q-3 15 0 32q46 4 66.5 9t26 20.5t5.5 50.5v465q0 42 -5 60t-26 23.5t-68 9.5q-3 15 0 32q20 0 49.5 -0.5t58.5 -1t47 -0.5t46.5 0.5t58 1t47.5 0.5q3 -15 0 -32q-46 -4 -67 -9t-26 -20.5t-5 -50.5v-197h360v184q0 42 -5 60t-25 23.5t-67 9.5q-2 15 0 32
q19 0 48 -0.5l58 -1t47 -0.5q20 0 48 0.5t56.5 1t48.5 0.5q2 -15 0 -32q-47 -4 -68 -9t-26 -20.5t-5 -50.5v-465q0 -41 5 -59.5t25.5 -24t68.5 -9.5q2 -17 0 -32q-21 0 -50 0.5t-57.5 1t-47.5 0.5q-18 0 -46 -0.5l-56 -1t-48 -0.5q-3 15 0 32q46 4 66 9t25 20.5t5 50.5v237
h-360v-224q0 -42 5 -60t25.5 -23.5t67.5 -9.5q2 -17 0 -32q-20 0 -49 0.5t-57.5 1t-47.5 0.5q-18 0 -46.5 -0.5l-57 -1t-48.5 -0.5z" />
    <glyph glyph-name="I" unicode="I" horiz-adv-x="370" 
d="M240 589v-465q0 -31 2 -49t11 -26t29 -11.5t57 -6.5q3 -16 0 -32q-20 0 -49 0.5t-57.5 1t-47.5 0.5t-47.5 -0.5l-57 -1t-50.5 -0.5q-3 15 0 32q48 5 69 9.5t26 19.5t5 51v465q0 42 -5 60t-26 23.5t-69 9.5q-2 15 0 32q21 0 50.5 -0.5t58.5 -1t48 -0.5t47 0.5t57 1t48 0.5
q3 -15 0 -32q-47 -4 -68 -9t-26 -20t-5 -51z" />
    <glyph glyph-name="J" unicode="J" horiz-adv-x="329" 
d="M3 -242q-35 0 -64 15t-29 49q0 26 18 40.5t44 14.5q28 0 51 -17.5t39 -48.5q27 8 38 38t13 75.5t2 101.5v550q0 42 -5 60t-25.5 23.5t-68.5 9.5q-3 15 0 32q20 0 48.5 -0.5t57.5 -1t49 -0.5q21 0 49 0.5t55.5 1t48.5 0.5q2 -15 0 -32q-48 -4 -69 -9t-26 -20t-5 -51v-515
q0 -82 -16 -139t-48 -98q-31 -39 -72 -59t-85 -20z" />
    <glyph glyph-name="K" unicode="K" horiz-adv-x="715" 
d="M30 -1q-2 15 0 32q48 5 69 9.5t26 19.5t5 51v465q0 42 -5 60t-26 23.5t-69 9.5q-2 15 0 32q20 0 49.5 -0.5t58.5 -1t47 -0.5q19 0 46.5 0.5t56 1t48.5 0.5q3 -15 0 -32q-46 -4 -66 -9t-25 -20t-5 -51v-247l230 244q38 41 38 56q0 13 -18 18.5t-59 8.5q-2 17 0 32
q17 0 43 -0.5l52 -1t42 -0.5q32 0 60.5 1t62.5 1q2 -16 0 -32q-31 -3 -51.5 -8t-39 -17t-41.5 -34t-58 -58l-147 -152l206 -271q24 -31 40 -49.5t31.5 -28t36 -13.5t52.5 -7q3 -16 0 -32q-19 0 -45 0.5t-51 1t-43 0.5q-11 0 -28.5 -0.5t-31.5 -0.5l-240 323l-41 -45v-154
q0 -42 5 -60.5t25.5 -23.5t65.5 -9q3 -16 0 -32q-20 0 -48.5 0.5l-57 1t-47.5 0.5t-47 -0.5t-56.5 -1t-49.5 -0.5z" />
    <glyph glyph-name="L" unicode="L" horiz-adv-x="614" 
d="M33 -1q-2 15 0 32q47 5 67 9.5t25 20t5 50.5v465q0 42 -5 60t-25.5 23.5t-66.5 9.5q-2 15 0 32q21 0 49.5 -0.5t56.5 -1t46 -0.5q19 0 47.5 0.5t58 1t48.5 0.5q3 -15 0 -32q-47 -4 -68 -9t-26 -20t-5 -51v-465q0 -34 0.5 -54.5t1.5 -27.5h142q83 0 123 37q33 32 69 112
q16 3 31 0q-12 -61 -19.5 -109.5t-12.5 -81.5q-97 0 -193.5 0.5t-193.5 0.5q-19 0 -48 -0.5l-58 -1t-49 -0.5z" />
    <glyph glyph-name="M" unicode="M" horiz-adv-x="969" 
d="M482 152l214 548q21 -1 44 -1h39q8 0 29.5 0.5t47 0.5t47 0.5t29.5 0.5q3 -15 0 -31h-2q-46 -5 -67 -9.5t-25.5 -20t-4.5 -50.5l8 -467q0 -31 2 -49t11 -26t29 -11.5t57 -6.5q3 -15 0 -31q-8 0 -29.5 0.5t-47 0.5t-47 0.5t-29.5 0.5t-29 -0.5t-46 -0.5t-46 -0.5t-29 -0.5
q-1 15 0 31h2q44 5 64 9.5t24.5 20t4.5 50.5l-9 536l-252 -645q-7 -3 -22 -4t-26 -1l-237 629l-16 -515q-1 -33 3 -47.5t24 -20.5t67 -12q4 -16 0 -31q-10 0 -34.5 0.5l-49 1t-35.5 0.5q-6 0 -23.5 -0.5t-38.5 -0.5t-38.5 -0.5t-23.5 -0.5q-2 16 0 31q47 6 67 12t25.5 24
t6.5 57l19 467q2 35 -3 50t-26.5 20.5t-70.5 9.5q-1 16 0 31q34 0 70 -1t80 -1h40t46 1z" />
    <glyph glyph-name="N" unicode="N" horiz-adv-x="793" 
d="M621 -7l-445 584v-428q0 -38 2 -58.5t12 -31.5q10 -10 31 -17t60 -11q2 -16 0 -32q-30 0 -66.5 1t-61.5 1t-61.5 -1t-65.5 -1q-3 15 0 32q36 5 56 9.5t29 14t11.5 28.5t2.5 53v410q0 40 -2.5 63t-13 34.5t-32 17t-59.5 9.5q-1 15 0 31q31 0 66 -1t70 -1h27.5t39.5 1
l406 -534v384q0 38 -1.5 59t-12.5 31q-21 22 -101 28q-3 17 0 32q19 0 45.5 -0.5t51.5 -1t41 -0.5q25 0 62 1t66 1q2 -15 0 -31q-48 -6 -69 -13.5t-26 -27.5t-5 -65v-565q-10 -2 -27 -3.5t-30 -1.5z" />
    <glyph glyph-name="O" unicode="O" horiz-adv-x="802" 
d="M752 354q0 -108 -44 -191t-124 -130.5t-189 -47.5q-108 0 -185 46t-118.5 127t-41.5 184q0 107 44 190.5t124.5 131t188.5 47.5q107 0 184 -46t119 -126.5t42 -184.5zM628 344q0 61 -12 119t-38.5 105t-69.5 74.5t-105 27.5q-63 0 -106.5 -28t-70 -74t-39 -103
t-12.5 -116q0 -58 12.5 -115.5t39.5 -104.5t71.5 -75.5t107.5 -28.5q62 0 104.5 27t68.5 72.5t37.5 102.5t11.5 117z" />
    <glyph glyph-name="P" unicode="P" horiz-adv-x="592" 
d="M330 310q-18 0 -40 2t-50 8v-196q0 -31 2 -48.5t12 -26.5q11 -9 30.5 -12t62.5 -6q2 -16 0 -32q-22 0 -52.5 0.5t-60 1t-49.5 0.5q-19 0 -47.5 -0.5l-57 -1t-50.5 -0.5q-2 15 0 32q48 5 69 9.5t26 19.5t5 51v465q0 42 -5 60t-26 23.5t-69 9.5q-2 15 0 32q20 0 50.5 -0.5
t59.5 -1t42 -0.5q19 0 47.5 0.5t56.5 1.5t44 1q63 0 117 -17.5t87 -57.5t33 -110q0 -67 -31 -113t-84.5 -70t-121.5 -24zM240 360q13 -3 29 -6t34 -3q66 0 104 44.5t38 116.5q0 70 -38 110t-114 40q-10 0 -24.5 -1t-28.5 -3v-298z" />
    <glyph glyph-name="Q" unicode="Q" horiz-adv-x="802" 
d="M323 -9q-87 17 -148 65t-93 121t-32 163q0 109 44 192.5t124.5 131t188.5 47.5q107 0 184 -46t119 -126.5t42 -184.5q0 -93 -33.5 -169t-96.5 -126.5t-152 -64.5v-3q65 -59 112.5 -91.5t88 -44.5t85.5 -12q22 0 42.5 3t42.5 12q8 -11 15 -27q-37 -31 -84.5 -52t-99.5 -21
q-54 0 -91.5 21t-65 54t-52.5 67q-10 14 -19 27.5t-20 25.5q-15 19 -28 24.5t-29.5 7t-43.5 6.5zM628 344q0 61 -12 119t-38.5 105t-69.5 74.5t-105 27.5q-63 0 -106.5 -27.5t-70 -74t-39 -103.5t-12.5 -115t12.5 -116t39.5 -105t71.5 -75.5t107.5 -28.5q62 0 104.5 27
t68.5 72.5t37.5 102.5t11.5 117z" />
    <glyph glyph-name="R" unicode="R" horiz-adv-x="693" 
d="M266 316l-26 3v-195q0 -31 2 -49t10.5 -26t28 -11.5t54.5 -6.5q3 -16 0 -32q-20 0 -48 0.5l-56 1t-47 0.5q-18 0 -47 -0.5l-58 -1t-49 -0.5q-3 15 0 32q48 4 69 8.5t26 20t5 51.5v466q0 41 -5.5 59t-26.5 24t-68 9q-3 15 0 32q19 0 49.5 -0.5t60 -1t43.5 -0.5
q18 0 46.5 0.5t57 1.5t44.5 1q63 0 117.5 -17t88 -55.5t33.5 -103.5q0 -64 -38.5 -114t-121.5 -75v-3q15 -12 34 -40l105 -152q26 -37 43.5 -58t33.5 -31.5t37 -14.5t53 -7q3 -16 0 -32q-19 0 -47 0.5t-54 1t-42 0.5t-28 -0.5t-28 -0.5l-185 273q-17 26 -30 33.5t-36 9.5z
M240 360q13 -2 23 -3t19 -1q78 0 123.5 40t45.5 118q0 71 -39.5 109t-116.5 38q-10 0 -24.5 -1t-30.5 -3v-297z" />
    <glyph glyph-name="S" unicode="S" horiz-adv-x="547" 
d="M256 -14q-1 0 -32.5 1.5t-72.5 8.5q-34 6 -61.5 8.5t-33.5 2.5q-1 83 -9 201q8 1 16.5 1h15.5q19 -88 63.5 -136t117.5 -48q65 0 106 35.5t41 93.5q0 44 -22.5 72t-59 47.5t-77.5 36.5q-48 21 -91.5 44.5t-71.5 60.5t-28 96q0 63 31.5 108t84.5 68.5t117 23.5
q20 0 41.5 -2t44.5 -6q29 -4 44.5 -5t20.5 -1q3 0 11 0.5t13 1.5q2 -44 4 -91t6 -98q-20 -3 -33 -2q-23 87 -57 125q-34 39 -97 39q-55 0 -94 -29.5t-39 -87.5q0 -31 14.5 -55t48.5 -46t94 -47q33 -14 66.5 -31t61.5 -40.5t45 -57t17 -79.5q0 -68 -34 -115.5t-89.5 -72.5
t-122.5 -25z" />
    <glyph glyph-name="T" unicode="T" horiz-adv-x="680" 
d="M183 -1q-2 15 0 32q50 5 71 9.5t26 19.5t5 51v546h-72q-53 0 -83.5 -14.5t-49 -43.5t-36.5 -74q-16 -2 -32 0l11.5 92t9.5 85q65 -4 144 -4.5t164 -0.5q86 0 165.5 0.5t143.5 4.5q4 -40 8 -84.5t10 -92.5q-17 -2 -33 0q-19 46 -38 75t-48.5 43t-82.5 14h-71v-533
q0 -31 2 -49t11.5 -26t30.5 -11.5t58 -6.5q3 -16 0 -32q-21 0 -50.5 0.5t-58.5 1t-49 0.5q-19 0 -47.5 -0.5t-58 -1t-50.5 -0.5z" />
    <glyph glyph-name="U" unicode="U" horiz-adv-x="767" 
d="M14 701q20 0 48.5 -0.5l57 -1t47.5 -0.5t47.5 0.5t57.5 1t49 0.5q3 -15 0 -31q-46 -4 -67 -9t-26 -20t-5 -51v-327q0 -112 48.5 -166.5t141.5 -54.5q98 0 148 61t50 189v274q0 35 -2.5 54.5t-13 28.5t-31.5 12.5t-59 7.5q-3 15 0 31q27 0 65 -1t61 -1q25 0 62.5 1t65.5 1
q3 -15 0 -31q-46 -5 -67 -10t-26.5 -22t-5.5 -58v-308q0 -133 -69 -207.5t-209 -74.5q-80 0 -140.5 26t-94.5 80.5t-34 137.5v344q0 42 -5 60t-26 23.5t-68 9.5q-3 15 0 31z" />
    <glyph glyph-name="V" unicode="V" horiz-adv-x="678" 
d="M311 -7l-216 570q-13 36 -22.5 56t-20.5 30t-28.5 13.5t-46.5 6.5q-3 16 0 32q35 0 73.5 -1t74.5 -1q22 0 50.5 0.5l57 1t50.5 0.5q3 -15 0 -32q-53 -4 -74 -10t-21 -24q0 -7 3.5 -17.5t8.5 -24.5l171 -458l167 440q7 19 11 32.5t4 22.5q0 20 -20.5 27.5t-76.5 11.5
q-3 17 0 32q15 0 44 -0.5l58 -1t44 -0.5q32 0 57.5 1t56.5 1q3 -16 0 -32q-29 -3 -47.5 -6t-31.5 -13t-24.5 -31.5t-26.5 -60.5l-221 -557q-12 -4 -27.5 -6t-26.5 -2z" />
    <glyph glyph-name="W" unicode="W" horiz-adv-x="1012" 
d="M638 -9l-128 371l-153 -361q-11 -3 -27 -5t-27 -3l-202 572q-13 36 -22 56t-20 29t-28.5 12.5t-47.5 6.5q-2 16 0 32q33 0 71.5 -1t72.5 -1q29 0 70.5 1t72.5 1q3 -15 0 -32q-41 -4 -58 -9t-17 -23q0 -7 3 -17.5t8 -26.5l158 -458l125 290l-48 139q-12 36 -20.5 56.5
t-18.5 29.5t-25.5 12.5t-42.5 6.5q-2 16 0 32q35 0 71 -1t70 -1q30 0 73 1t76 1q3 -15 0 -32q-49 -4 -68.5 -9t-19.5 -24q0 -14 10 -43l152 -460l163 444q8 20 12.5 33t4.5 23q0 19 -20 25.5t-69 10.5q-3 17 0 32q14 0 41 -0.5t54.5 -1t41.5 -0.5q31 0 57 1t56 1
q3 -16 0 -32q-29 -3 -47.5 -7t-31.5 -14.5t-24.5 -33t-26.5 -61.5l-218 -554q-10 -3 -26.5 -5t-26.5 -3z" />
    <glyph glyph-name="X" unicode="X" horiz-adv-x="696" 
d="M380 -1q-2 15 0 32q44 4 63 9.5t19 18.5q0 8 -5.5 18t-14.5 24l-125 196l-139 -192q-10 -15 -16 -25t-6 -18q0 -14 22 -20t68 -11q2 -17 0 -32q-11 0 -31.5 0.5t-44.5 0.5t-44 0.5t-31 0.5q-32 0 -61.5 -1t-52.5 -1q-2 16 0 32q29 3 49 8t36 16.5t33.5 32t42.5 53.5
l147 199l-145 226q-21 33 -36 52t-30 29t-33.5 14.5t-47.5 7.5q-3 16 0 32q36 0 75.5 -1t76.5 -1q22 0 51.5 0.5l59 1t50.5 0.5q2 -15 0 -32q-43 -4 -60.5 -9.5t-17.5 -18.5q0 -7 5 -17t15 -26l111 -174l125 172q21 30 21 42q0 14 -20.5 20t-64.5 11q-3 17 0 32
q14 0 43.5 -0.5l59 -1t43.5 -0.5q32 0 64 1t49 1q3 -16 0 -32q-29 -3 -48.5 -8t-35.5 -16t-34 -31.5t-43 -54.5l-132 -177l158 -248q21 -33 36 -52.5t30 -29t34 -14t48 -7.5q2 -16 0 -32q-37 0 -75 1t-76 1q-21 0 -51.5 -0.5l-61 -1t-52.5 -0.5z" />
    <glyph glyph-name="Y" unicode="Y" horiz-adv-x="620" 
d="M512 560l-147 -262v-174q0 -31 2 -49t11 -26t29 -11.5t57 -6.5q3 -16 0 -32q-21 0 -50 0.5t-57.5 1t-47.5 0.5t-47 -0.5t-57 -1t-50 -0.5q-2 15 0 32q48 5 69 9.5t26 20t5 50.5v177l-152 278q-18 34 -30 53.5t-23.5 29t-28 13.5t-45.5 7q-2 16 0 32q36 0 74 -1t75 -1
q32 0 71 1t75 1q2 -15 0 -32q-43 -4 -61 -9.5t-18 -19.5q0 -7 5.5 -18.5t14.5 -28.5l131 -245l132 244q18 33 18 45q0 15 -20.5 20.5t-70.5 11.5q-2 17 0 32q16 0 41 -0.5t49.5 -1t40.5 -0.5q32 0 59.5 1t58.5 1q2 -16 0 -32q-29 -3 -47 -7t-31 -14.5t-27 -31t-34 -56.5z
" />
    <glyph glyph-name="Z" unicode="Z" horiz-adv-x="656" 
d="M617 679l-447 -636h223q95 0 137 43q32 33 65 112q16 2 31 0q-11 -62 -19 -111.5t-12 -86.5q-15 0 -92.5 0.5t-226.5 0.5q-79 0 -125 -0.5t-73 -1t-49 -0.5q-4 9 -4 20l447 638h-218q-76 0 -112 -35q-32 -31 -55 -103q-16 -1 -34 0q8 50 14 95t10 88q65 -4 135.5 -4.5
t149.5 -0.5q81 0 129.5 0.5t76.5 1.5t45 1q2 -4 3 -9.5t1 -11.5z" />
    <glyph glyph-name="bracketleft" unicode="[" horiz-adv-x="409" 
d="M329 -183h-229v936h229v-43h-157v-850h157v-43z" />
    <glyph glyph-name="backslash" unicode="\" horiz-adv-x="377" 
d="M342 -177l-328 925h65l327 -925h-64z" />
    <glyph glyph-name="bracketright" unicode="]" horiz-adv-x="409" 
d="M80 753h229v-936h-229v43h156v850h-156v43z" />
    <glyph glyph-name="asciicircum" unicode="^" horiz-adv-x="584" 
d="M75 348l198 363q8 1 19 0.5t19 -1.5l198 -362q-10 -5 -21.5 -10.5t-22.5 -10.5l-173 315l-173 -315q-10 5 -22 10.5t-22 10.5z" />
    <glyph glyph-name="underscore" unicode="_" horiz-adv-x="400" 
d="M-35 -88h470v-45h-470v45z" />
    <glyph glyph-name="grave" unicode="`" horiz-adv-x="360" 
d="M81 742v4q35 6 74 6q29 0 34 -5l49 -196q-6 -2 -15 -3t-14 0z" />
    <glyph glyph-name="a" unicode="a" horiz-adv-x="493" 
d="M383 -10q-66 0 -83 66q-71 -68 -145 -68q-51 0 -86.5 30.5t-35.5 84.5q0 132 269 166q0 24 0.5 49t0.5 53q0 35 -25.5 54.5t-61.5 19.5q-26 0 -44 -8q0 -23 -10 -47t-27.5 -40.5t-42.5 -16.5q-22 0 -34.5 12.5t-12.5 30.5q0 24 22.5 45.5t57.5 37t73 24.5t68 9
q37 0 68.5 -13.5t51 -40t19.5 -65.5q0 -24 -1 -62.5t-1.5 -82t-1.5 -82.5t-1 -63q0 -32 28 -32q18 0 55 12q4 -5 5.5 -11t2.5 -11q-25 -27 -52.5 -39t-55.5 -12zM300 83l2 150q-92 -12 -126.5 -39t-34.5 -69q0 -35 18.5 -53.5t46.5 -18.5q18 0 40.5 8t53.5 22z" />
    <glyph glyph-name="b" unicode="b" horiz-adv-x="580" 
d="M284 -12q-38 0 -75 10t-74 29q-7 -9 -14 -17t-13 -17q-7 1 -13.5 2t-11.5 2q2 18 2 47.5v69.5v491q0 31 -6 46.5t-23.5 22t-52.5 9.5q-3 13 0 27q40 5 82 15.5t86 29.5l17 -6q-1 -22 -1.5 -50t-0.5 -61v-213q41 37 79.5 52t75.5 15q63 0 107.5 -33.5t68 -87t23.5 -114.5
q0 -71 -32.5 -132.5t-90 -99t-133.5 -37.5zM185 381v-302q46 -52 111 -52q51 0 82 28t44.5 73t13.5 95q0 49 -13.5 96.5t-44 79t-83.5 31.5q-29 0 -57 -12t-53 -37z" />
    <glyph glyph-name="c" unicode="c" horiz-adv-x="471" 
d="M434 97q10 -12 15 -23q-83 -86 -190 -86q-69 0 -118 33t-75.5 88t-26.5 122q0 73 30 132t84.5 94t125.5 35q37 0 75 -10.5t64 -32.5t26 -56q0 -27 -16 -41t-38 -14q-30 0 -51 27.5t-21 73.5q-18 12 -48 12q-36 0 -60.5 -18t-40 -48t-22.5 -64.5t-7 -67.5q0 -56 19 -100
t56 -69.5t92 -25.5q32 0 62.5 9t64.5 30z" />
    <glyph glyph-name="d" unicode="d" horiz-adv-x="589" 
d="M416 -13l-16 7l-4 69q-35 -38 -71.5 -56.5t-80.5 -18.5q-62 0 -108.5 33.5t-71.5 87.5t-25 117q0 73 31.5 133t89 96.5t134.5 36.5q23 0 48 -3.5t52 -11.5v128q0 31 -6 46.5t-23.5 22t-52.5 9.5q-3 13 0 27q40 5 82 15.5t86 29.5l17 -6q-1 -22 -1.5 -50t-0.5 -61v-496
q0 -38 3 -57t18 -26.5t51 -13.5q3 -13 0 -27q-40 -6 -78 -13t-73 -18zM395 392q-43 59 -113 59q-69 0 -104 -50.5t-35 -139.5q0 -52 14 -100t46 -79t85 -31q67 0 107 58v283z" />
    <glyph glyph-name="e" unicode="e" horiz-adv-x="497" 
d="M259 -12q-71 0 -120 33t-74.5 88.5t-25.5 122.5q0 69 26.5 128t77.5 95.5t124 36.5q88 0 137.5 -52.5t49.5 -135.5q0 -10 -0.5 -17.5t-1.5 -12.5l-315 3v-7q0 -98 45 -154t126 -56q68 0 134 44q10 -12 15 -23q-85 -93 -198 -93zM140 314l207 4q1 2 1 5.5v4.5
q0 54 -23.5 90t-69.5 36q-43 0 -75 -35t-40 -105z" />
    <glyph glyph-name="f" unicode="f" horiz-adv-x="330" 
d="M330 427h-125v-313q0 -39 5.5 -56t25.5 -21.5t63 -6.5q2 -14 0 -31q-34 0 -69 1t-76 1q-40 0 -67.5 -1t-59.5 -1q-1 15 0 31q35 2 51 6.5t20.5 19.5t4.5 48v323h-83q-3 15 0 27q37 6 54.5 11t23 15t6.5 29q1 21 5.5 53.5t19.5 68.5t45 65q31 29 71.5 44t83.5 15
q29 0 58 -7.5t49 -24.5t20 -46q0 -23 -13.5 -37.5t-39.5 -14.5q-35 0 -55 26t-20 55q-7 2 -14.5 3.5t-17.5 1.5q-47 0 -69 -41t-22 -139v-58h125q3 -22 0 -46z" />
    <glyph glyph-name="g" unicode="g" horiz-adv-x="548" 
d="M223 -255q-88 0 -142 31t-54 86q0 43 30 71t74 56q-39 9 -59 31.5t-20 53.5q0 54 79 109q-33 21 -53 54.5t-20 77.5q0 55 28.5 94.5t75 61t99.5 21.5q78 0 130 -43q54 43 106 43q26 0 41 -11.5t15 -33.5t-14 -35t-34 -13q-19 0 -32.5 11.5t-17.5 32.5q-14 -3 -22.5 -7
t-19.5 -11q34 -43 34 -102q0 -55 -27 -93.5t-71.5 -59t-97.5 -20.5q-50 0 -93 18q-25 -25 -25 -53q0 -25 19 -31.5t70 -6.5q23 0 55 0.5t47 0.5q100 0 144 -35.5t44 -97.5q0 -49 -24 -86.5t-65 -63t-92.5 -38t-107.5 -12.5zM174 -16q-54 -45 -54 -95q0 -35 21 -57t55 -32
t72 -10q34 0 71 10t63 35.5t26 71.5q0 42 -29.5 60t-109.5 18q-19 0 -47 -0.5t-62 -0.5h-6zM253 185q44 0 67.5 35.5t23.5 98.5q0 64 -24 101t-70 37q-43 0 -66.5 -34.5t-23.5 -97.5q0 -64 24.5 -102t68.5 -38z" />
    <glyph glyph-name="h" unicode="h" horiz-adv-x="596" 
d="M333 -1q-2 16 0 31q31 2 46 6.5t20 19.5t5 48v202q0 60 -18.5 89.5t-73.5 29.5q-29 0 -56 -10.5t-58 -38.5v-262q0 -39 4.5 -56t19 -21.5t45.5 -6.5q5 -15 0 -31q-25 0 -55 1t-67 1t-66 -1t-59 -1q-3 16 0 31q34 2 50 6.5t21 19.5t5 48v482q0 29 -1 46.5t-9 27.5
q-8 11 -23 15.5t-48 7.5q-3 13 0 27q40 5 81 15.5t87 29.5l17 -6q-1 -22 -1.5 -49.5t-0.5 -60.5v-222q45 42 88.5 58.5t83.5 16.5q66 0 101 -39t35 -112v-227q0 -39 4.5 -56t19.5 -21.5t48 -6.5q2 -15 0 -31q-30 0 -58.5 1t-66.5 1q-37 0 -64.5 -1t-55.5 -1z" />
    <glyph glyph-name="i" unicode="i" horiz-adv-x="298" 
d="M277 -1q-28 0 -58 1t-65 1q-32 0 -64.5 -1t-62.5 -1q-3 16 0 31q34 2 50 6.5t21 19.5t5 48v224q0 39 -3 58t-18.5 26.5t-53.5 12.5q-3 14 0 26q44 8 84 20t77 26l17 -6q-1 -31 -1.5 -58t-0.5 -51v-268q0 -39 4.5 -56t20 -21.5t48.5 -6.5q3 -15 0 -31zM77 667
q0 29 20.5 49t49.5 20q28 0 48.5 -20t20.5 -48q0 -26 -20 -47.5t-51 -21.5q-28 0 -48 20t-20 48z" />
    <glyph glyph-name="j" unicode="j" horiz-adv-x="282" 
d="M181 497l17 -6q-1 -28 -1.5 -55t-0.5 -55v-40t0.5 -75t1 -87.5t0.5 -79v-48.5q0 -68 -6 -112t-19 -72.5t-36 -52.5q-64 -69 -140 -69q-40 0 -56.5 16.5t-16.5 34.5t14 32t41 14q22 0 41.5 -11.5t31.5 -35.5q17 8 26 29.5t12.5 49.5t4.5 54t1 43v58v81.5t-0.5 88
t-0.5 78.5v51q0 39 -3.5 58t-19 26.5t-52.5 12.5q-3 14 0 26q42 8 81.5 19t79.5 27zM69 667q0 29 20.5 49t49.5 20q28 0 48.5 -20t20.5 -48q0 -26 -20 -47.5t-51 -21.5q-28 0 -48 20t-20 48z" />
    <glyph glyph-name="k" unicode="k" horiz-adv-x="550" 
d="M20 -1q-1 4 -1 8v8v7.5t1 7.5q34 2 50 6.5t21 19.5t5 48v501q0 31 -5.5 46.5t-23 22t-52.5 9.5q-1 4 -1 7v6v7t1 7q40 5 82 15.5t86 29.5l17 -6q-1 -22 -1.5 -50t-0.5 -61v-371q12 0 20 4t13 8q2 2 8 7.5t21 20.5t43 45q26 29 41.5 45.5t15.5 27.5q0 8 -13.5 13.5
t-36.5 6.5q-1 4 -1 8v8v8t1 8q20 0 50.5 -1t54.5 -1q12 0 34.5 0.5t45.5 0.5h34q1 -4 1.5 -8t0.5 -8t-0.5 -7.5t-1.5 -7.5q-52 -1 -88 -25.5t-69 -57.5l-72 -72l138 -182q22 -29 36.5 -45.5t31.5 -23.5t47 -9q2 -14 0 -31q-13 0 -38.5 1t-79.5 1h-24t-30 -2q0 11 -12 30.5
t-19 28.5q-3 5 -15 21.5t-28.5 39t-33.5 46t-31 41.5q-11 15 -20.5 23.5t-23.5 8.5v-124q0 -39 3.5 -56t17 -21.5t41.5 -6.5q2 -15 0 -31q-26 0 -54.5 1t-61.5 1q-32 0 -63 -1t-61 -1z" />
    <glyph glyph-name="l" unicode="l" horiz-adv-x="292" 
d="M271 -1q-29 0 -59 1t-67 1t-66 -1t-59 -1q-3 16 0 31q34 2 50 6.5t21 19.5t5 48v501q0 31 -5.5 46.5t-23 22t-52.5 9.5q-3 13 0 27q40 5 82 15.5t86 29.5l17 -6q-1 -22 -1.5 -50t-0.5 -61v-524q0 -39 4.5 -56t20 -21.5t48.5 -6.5q2 -15 0 -31z" />
    <glyph glyph-name="m" unicode="m" horiz-adv-x="896" 
d="M634 -1q-3 16 0 31q30 2 45 6.5t20.5 19.5t5.5 48v202q0 59 -17.5 89t-71.5 30q-67 0 -114 -50q2 -16 2 -34v-227q0 -39 4.5 -56t19.5 -21.5t46 -6.5q2 -15 0 -31q-28 0 -56 1t-66 1q-37 0 -64.5 -1t-52.5 -1q-3 16 0 31q29 2 43.5 6.5t19.5 19.5t5 48v202q0 59 -17 89
t-72 30q-63 0 -110 -51v-260q0 -39 4.5 -56t20 -21.5t47.5 -6.5q2 -15 0 -31q-28 0 -57.5 1t-67.5 1q-36 0 -65 -1t-59 -1q-3 16 0 31q34 2 50 6.5t21 19.5t5 48v224q0 39 -3.5 58t-19 26.5t-52.5 12.5q-3 14 0 26q42 8 81 19t77 27l17 -6v-74q81 75 169 75q55 0 83 -23
t39 -57q43 41 88 60.5t91 19.5q66 0 99.5 -39t33.5 -112v-227q0 -39 4 -56t19 -21.5t46 -6.5q3 -15 0 -31q-28 0 -56 1t-65 1q-38 0 -66.5 -1t-53.5 -1z" />
    <glyph glyph-name="n" unicode="n" horiz-adv-x="603" 
d="M340 -1q-2 16 0 31q31 2 46 6.5t20 19.5t5 48v202q0 60 -18.5 89.5t-73.5 29.5q-29 0 -56 -10.5t-59 -39.5v-261q0 -39 4.5 -56t19.5 -21.5t47 -6.5q2 -15 0 -31q-28 0 -58.5 1t-65.5 1q-32 0 -63 -1t-61 -1q-3 16 0 31q34 2 50 6.5t21 19.5t5 48v224q0 39 -3.5 58
t-19 26.5t-52.5 12.5q-3 14 0 26q86 17 158 46l17 -6v-75q46 42 90 59t84 17q66 0 101 -39t35 -112v-227q0 -39 4.5 -56t19.5 -21.5t48 -6.5q2 -15 0 -31q-30 0 -58.5 1t-66.5 1q-37 0 -64.5 -1t-55.5 -1z" />
    <glyph glyph-name="o" unicode="o" horiz-adv-x="571" 
d="M281 -12q-73 0 -127.5 31.5t-84.5 87t-30 127.5q0 78 31.5 136t88.5 90t131 32q73 0 127 -32t84 -88t30 -127q0 -73 -31.5 -131.5t-87.5 -92t-131 -33.5zM152 246q0 -102 33.5 -161.5t100.5 -59.5q64 0 98 56.5t34 151.5q0 101 -34 161t-99 60q-64 0 -98.5 -55
t-34.5 -153z" />
    <glyph glyph-name="p" unicode="p" horiz-adv-x="588" 
d="M19 -246q-1 16 0 31q35 2 51 7t20.5 19.5t4.5 46.5v470q0 39 -3.5 58t-19 26.5t-52.5 12.5q-2 14 0 26q41 8 80 19t81 27l14 -7q-1 -25 -1 -42.5v-33.5q39 41 77 59.5t81 18.5q63 0 106.5 -33t66.5 -86t23 -115q0 -73 -31.5 -134.5t-87.5 -98.5t-130 -37q-29 0 -55 4.5
t-49 12.5v-135q0 -39 6 -56t26 -21.5t63 -6.5q1 -16 0 -32q-34 0 -68.5 1t-75.5 1q-39 0 -67 -1t-60 -1zM194 87q43 -62 114 -62q50 0 79.5 28t43 73t13.5 95t-13 98t-42.5 79.5t-80.5 31.5q-61 0 -114 -59v-284z" />
    <glyph glyph-name="q" unicode="q" horiz-adv-x="578" 
d="M306 -266q-3 16 0 31q39 2 57.5 7t24 19.5t5.5 46.5v212q-35 -33 -73.5 -47.5t-78.5 -14.5q-67 0 -112 34t-67.5 88t-22.5 115q0 74 31.5 134.5t89 96.5t135.5 36q32 0 63 -7t61 -24q14 6 27 13.5t26 15.5q14 -1 24 -8q-1 -20 -1.5 -50t-0.5 -69v-513q0 -39 4.5 -56
t21 -21.5t51.5 -6.5q3 -15 0 -32q-31 0 -62.5 1t-70.5 1q-40 0 -70.5 -1t-61.5 -1zM394 386q-22 34 -49.5 49.5t-63.5 15.5q-67 0 -102.5 -50.5t-35.5 -140.5q0 -51 13.5 -99t45.5 -79t89 -31q28 0 56.5 9.5t46.5 30.5v295z" />
    <glyph glyph-name="r" unicode="r" horiz-adv-x="410" 
d="M27 -1q-3 16 0 31q34 2 50 6.5t21 19.5t5 48v224q0 39 -3.5 58t-19 26.5t-52.5 12.5q-3 14 0 26q40 8 78 18.5t80 27.5l17 -6v-88q70 89 143 89q35 0 52 -18.5t17 -41.5q0 -27 -18 -41.5t-41 -14.5q-19 0 -37.5 10t-27.5 31q-34 0 -60.5 -26.5t-26.5 -61.5v-215
q0 -39 4.5 -56t24 -21.5t63.5 -6.5q2 -14 0 -31q-34 0 -70 1t-74 1q-37 0 -65.5 -1t-59.5 -1z" />
    <glyph glyph-name="s" unicode="s" horiz-adv-x="424" 
d="M73 158q15 -66 48 -100.5t85 -34.5q39 0 66 18.5t27 58.5q0 30 -14.5 48t-40 30.5t-57.5 25.5q-37 15 -69.5 32.5t-53 44t-20.5 68.5q0 48 25.5 79.5t66 47.5t86.5 16q23 0 46 -3t25 -3q20 -3 37 -3.5t18 -0.5h4.5t9.5 1q0 -32 1 -65t4 -70h-4q-9 -1 -16.5 -1.5
t-14.5 0.5q-13 56 -38.5 81.5t-71.5 25.5q-41 0 -65.5 -18t-24.5 -50q0 -26 16 -42.5t39 -27.5t44 -19q39 -15 74.5 -33.5t58 -47.5t22.5 -78q0 -52 -26.5 -85.5t-67.5 -49t-86 -15.5q-26 0 -51.5 4t-27.5 4t-16.5 2t-32 4t-30.5 2q0 31 -2.5 69t-5.5 84h5q9 1 15.5 1.5
t12.5 -0.5z" />
    <glyph glyph-name="t" unicode="t" horiz-adv-x="362" 
d="M219 -12q-60 0 -95 28.5t-35 82.5q0 88 1.5 170t2.5 158h-76q-3 15 0 27q99 42 149 137q8 0 16 -0.5t14 -1.5q-1 -26 -1.5 -55t-1.5 -61h152q3 -22 0 -46h-152q-2 -70 -2.5 -147.5t-0.5 -155.5q0 -81 84 -81q36 0 67 19q9 -12 11 -30q-59 -44 -133 -44z" />
    <glyph glyph-name="u" unicode="u" horiz-adv-x="583" 
d="M226 -12q-65 0 -100.5 38.5t-35.5 111.5v202q0 39 -3.5 58t-19 27t-52.5 13q-5 13 0 25q43 6 82.5 13t79.5 17l15 -7q-1 -31 -1.5 -58.5t-0.5 -51.5v-202q0 -60 18.5 -89.5t72.5 -29.5q30 0 56.5 13.5t50.5 39.5v232q0 39 -3.5 58t-19 27t-52.5 13q-3 13 0 25
q43 6 82.5 13t80.5 17l15 -7q-1 -31 -1.5 -58.5t-0.5 -51.5v-259q0 -30 3.5 -45t20 -21.5t54.5 -10.5q1 -12 0 -25q-43 -4 -82 -10t-76 -15l-16 7l-2 70q-83 -79 -165 -79z" />
    <glyph glyph-name="v" unicode="v" horiz-adv-x="502" 
d="M277 5l-55 -11l-156 391q-8 22 -17 33.5t-23.5 17.5t-42.5 9q-2 14 0 32q29 0 60.5 -1t62.5 -1q29 0 63 1t57 1q3 -16 0 -32q-34 -2 -46.5 -7t-12.5 -21q0 -8 3.5 -20t6.5 -20l12 -32t21.5 -55.5t25.5 -65t24.5 -61.5t18.5 -45q21 48 50.5 116t57.5 138q5 14 8.5 25.5
t3.5 18.5q0 14 -13 20t-47 9q-1 16 0 32q26 0 49.5 -1t56.5 -1q15 0 28.5 0.5t50.5 1.5q2 -17 0 -32q-42 -3 -57 -18.5t-29 -46.5z" />
    <glyph glyph-name="w" unicode="w" horiz-adv-x="764" 
d="M538 4l-48 -10l-103 284q-29 -68 -57.5 -133.5t-57.5 -139.5l-55 -11l-148 391q-8 22 -16.5 33.5t-23.5 17.5t-42 9q-2 14 0 32q29 0 60 -1t64 -1q28 0 61 1t55 1q1 -16 0 -32q-32 -2 -45 -7t-13 -20t10 -42q23 -64 46.5 -128t50.5 -131l92 213l-20 55q-8 22 -15 33.5
t-20 17.5t-39 9q-2 14 0 32q29 0 58 -1t60 -1q26 0 57 1t53 1q3 -16 0 -32q-33 -2 -46 -7t-13 -20t10 -42q23 -64 44 -128t46 -131q29 66 56 129t51 127q5 14 8.5 25t3.5 18q0 14 -12.5 20t-47.5 9q-1 16 0 32q24 0 49 -1t54 -1q26 0 42 0.5t39 1.5q2 -17 0 -32
q-41 -3 -56.5 -18.5t-29.5 -46.5z" />
    <glyph glyph-name="x" unicode="x" horiz-adv-x="520" 
d="M272 -1q-3 15 0 31q32 2 43 5.5t11 10.5q0 4 -5 14t-13 22q-17 26 -34 52.5t-38 57.5q-25 -32 -49.5 -64t-44.5 -60q-3 -4 -6 -9t-3 -10q0 -8 13.5 -12.5t47.5 -6.5q3 -16 0 -31q-25 0 -52 1t-51 1q-26 0 -49 -1t-46 -1q-3 17 0 31q31 4 48 10.5t30.5 19t30.5 34.5
l107 135q-23 34 -51 75.5t-57 83.5q-12 19 -23 30t-27 17.5t-45 9.5q-3 14 0 32q29 0 57.5 -1t64.5 -1q29 0 67 1t61 1q3 -16 0 -32q-31 -2 -42.5 -5.5t-11.5 -11.5q0 -4 3.5 -11t8.5 -15q17 -27 33.5 -53t33.5 -52q25 31 45.5 58.5t37.5 52.5q8 11 8 18q0 9 -12.5 12.5
t-43.5 6.5q-3 16 0 32q24 0 50 -1t49 -1q26 0 47 1t45 1q3 -14 0 -32q-29 -3 -45.5 -10t-29 -19.5t-30.5 -33.5q-15 -19 -40.5 -50t-56.5 -71q25 -38 51 -76t67 -97q14 -19 24.5 -30.5t26 -17.5t44.5 -10q3 -14 0 -31q-31 0 -61.5 1t-62.5 1q-31 0 -66.5 -1t-58.5 -1z" />
    <glyph glyph-name="y" unicode="y" horiz-adv-x="499" 
d="M94 -255q-27 0 -41.5 15.5t-14.5 36.5q0 28 30 54.5t98 26.5q13 23 25.5 49.5t29.5 65.5q-11 28 -28 72t-38.5 97.5t-43.5 111t-43 111.5q-12 32 -26.5 44t-55.5 16q-3 14 0 31q29 0 59 -1t62 -1q29 0 63 1t58 1q2 -15 0 -31q-34 -2 -47.5 -7t-13.5 -20q0 -14 10 -43
q26 -71 50.5 -131t49.5 -123q32 73 56.5 131t49.5 121q11 29 11 43t-15 20t-53 9q-3 16 0 31q25 0 51.5 -1t56.5 -1q20 0 43.5 1t42.5 1q3 -15 0 -31q-42 -3 -57 -18.5t-28 -46.5l-171 -399q-5 -12 -18 -40.5t-27.5 -59t-24.5 -50.5q-25 -49 -49 -67.5t-51 -18.5z" />
    <glyph glyph-name="z" unicode="z" horiz-adv-x="496" 
d="M437 -1q-44 2 -79 2h-61h-117h-69t-81 -1q-5 10 -5 21l291 416h-104q-50 0 -75 -7.5t-39 -29.5t-32 -66q-15 -2 -29 3q7 41 12.5 77t6.5 65q43 -2 95 -3.5t107 -1.5q44 0 96 1t92 2q7 -10 7 -22l-292 -416h122q36 0 58 4t37.5 16t30.5 36.5t36 65.5q16 0 27 -5
q-10 -39 -18.5 -78.5t-16.5 -78.5z" />
    <glyph glyph-name="braceleft" unicode="{" horiz-adv-x="395" 
d="M118 288v-4q44 -9 65.5 -26.5t28.5 -44.5t7 -67v-191q0 -56 21.5 -84t74.5 -28v-34q-63 0 -103 14.5t-59.5 52t-19.5 105.5v190q0 37 -8 57t-27 29.5t-53 14.5v28q34 5 53 14.5t27 29.5t8 57v189q0 68 19.5 105t59.5 51.5t103 14.5v-35q-53 0 -74.5 -27.5t-21.5 -82.5
v-191q0 -39 -7 -66.5t-28.5 -44.5t-65.5 -26z" />
    <glyph glyph-name="bar" unicode="|" horiz-adv-x="304" 
d="M178 -262h-52v1052h52v-1052z" />
    <glyph glyph-name="braceright" unicode="}" horiz-adv-x="395" 
d="M277 284v4q-43 9 -65 26t-29 44.5t-7 66.5v191q0 55 -21.5 82.5t-74.5 27.5v35q63 0 103 -14.5t59.5 -51.5t19.5 -105v-189q0 -37 8 -57t27.5 -29.5t52.5 -14.5v-28q-33 -5 -52.5 -14.5t-27.5 -29.5t-8 -57v-190q0 -68 -19.5 -105.5t-59.5 -52t-103 -14.5v34
q53 0 74.5 28t21.5 84v191q0 40 7 67t29 44.5t65 26.5z" />
    <glyph glyph-name="asciitilde" unicode="~" horiz-adv-x="581" 
d="M529 287q2 -24 0 -49q-28 -22 -56.5 -31t-57.5 -9q-32 0 -63.5 9t-59.5 19q-34 13 -65.5 22t-60.5 9t-57 -8t-57 -31q-5 23 0 48q29 23 57 32t57 9q32 0 63 -9.5t62 -20.5q48 -17 75 -23.5t49 -6.5q29 0 57.5 8.5t56.5 31.5z" />
    <glyph glyph-name="nbspace" unicode="&#xa0;" horiz-adv-x="260" 
 />
    <glyph glyph-name="exclamdown" unicode="&#xa1;" horiz-adv-x="319" 
d="M76 -186l52 448q18 2 36 0l54 -447q0 -27 -20 -42t-52 -15q-31 0 -50.5 14.5t-19.5 41.5zM219 409q0 -31 -20.5 -52t-50.5 -21q-33 0 -53 22t-20 51t20 50.5t53 21.5q30 0 50.5 -20.5t20.5 -51.5z" />
    <glyph glyph-name="cent" unicode="&#xa2;" horiz-adv-x="511" 
d="M291 -104h-10.5t-10.5 1v92q-69 3 -119.5 37.5t-78 91t-27.5 126.5q0 66 26 125t76 98t123 46v88q22 1 43 0v-87q36 -2 75 -13t66 -32.5t27 -54.5q0 -25 -14 -38t-34 -13q-26 0 -46 25t-20 71q-14 6 -27.5 9.5t-26.5 4.5v-417h5q70 0 149 46q10 -11 16 -22
q-33 -37 -78 -60t-92 -29v-94q-6 -1 -11.5 -1h-10.5zM270 62v410q-42 -6 -71 -35.5t-44 -74t-15 -98.5q0 -84 35.5 -136t94.5 -66z" />
    <glyph glyph-name="sterling" unicode="&#xa3;" horiz-adv-x="555" 
d="M482 -1q-43 1 -92.5 1.5t-98.5 0.5h-91h-104t-67 -1q-4 13 -4 28q65 47 86.5 98t21.5 101q0 15 -2 31h-81q-1 24 0 44h74q-8 36 -17 71t-9 77q0 61 34 101t87 59.5t108 19.5q54 0 90 -15.5t53.5 -37.5t17.5 -44q0 -20 -13 -35t-36 -15q-28 0 -48 25t-20 67q-26 16 -57 16
q-52 0 -84.5 -34t-32.5 -96q0 -32 4.5 -54t9.5 -45.5t8 -59.5h188q1 -20 0 -44h-187q-1 -43 -19.5 -85t-68.5 -86l1 -3q55 0 125 0.5t129 1.5q26 1 40.5 5.5t27.5 22.5t34 59q7 0 15.5 -1t15.5 -4q-11 -42 -20.5 -85.5t-17.5 -83.5z" />
    <glyph glyph-name="currency" unicode="&#xa4;" horiz-adv-x="598" 
d="M299 96q-40 0 -73.5 12t-59.5 32l-55 -57q-23 20 -41 42l59 53q-45 59 -45 133q0 39 11.5 72.5t32.5 60.5l-58 55q9 10 19.5 21t21.5 21l55 -59q58 45 133 45q38 0 71.5 -11.5t61.5 -32.5l55 58q11 -9 21 -20l20 -22l-58 -55q21 -27 32.5 -61t11.5 -72t-11.5 -71.5
t-32.5 -60.5l58 -55q-9 -10 -19.5 -20.5l-21.5 -21.5l-56 58q-58 -44 -132 -44zM299 146q45 0 81 22.5t57 60t21 82.5t-21 83t-56.5 61t-81.5 23q-45 0 -81 -22.5t-57 -60.5t-21 -84t21.5 -83.5t57.5 -59.5t80 -22z" />
    <glyph glyph-name="yen" unicode="&#xa5;" horiz-adv-x="553" 
d="M437 475l-92 -163h139q3 -21 0 -44h-157v-72h157q3 -22 0 -44h-157v-25q0 -32 2.5 -50t11.5 -26.5t30.5 -12.5t58.5 -7q1 -15 0 -32q-28 0 -68.5 1t-85.5 1q-48 0 -83.5 -1t-69.5 -1q-1 17 0 32q49 5 70.5 9.5t26.5 20.5t5 53v38h-159q-1 22 0 44h159v72h-159q-2 23 0 44
h136l-93 170q-19 35 -31 55t-23.5 30t-28 14.5t-43.5 8.5q-4 16 0 32q35 0 71.5 -1t73.5 -1q29 0 62 1t68 1q3 -14 0 -32q-39 -4 -55 -9.5t-16 -18.5q0 -9 5.5 -22t15.5 -30l98 -181l96 180q10 18 15 29.5t5 20.5q0 14 -20 19.5t-66 11.5q-3 18 0 32q41 0 70.5 -1t56.5 -1
q32 0 57.5 1t56.5 1q1 -16 0 -32q-28 -4 -46 -9t-31.5 -16t-27.5 -32t-35 -58z" />
    <glyph glyph-name="brokenbar" unicode="&#xa6;" horiz-adv-x="307" 
d="M125 199h57v-382h-57v382zM182 329h-57v382h57v-382z" />
    <glyph glyph-name="section" unicode="&#xa7;" horiz-adv-x="550" 
d="M229 -200q-38 0 -71.5 10t-54.5 29.5t-21 45.5q0 20 13 35t37 15q29 0 49 -24.5t23 -68.5q15 -4 33 -4q35 0 66 13t55 36q-14 56 -51.5 101t-81.5 89q-42 42 -82.5 89t-66.5 107t-26 141q0 80 29.5 147.5t85.5 108.5t135 41q39 0 72.5 -10t54.5 -29.5t21 -46.5
q0 -22 -13.5 -35.5t-36.5 -13.5q-29 0 -49 24.5t-24 68.5q-15 4 -33 4q-34 0 -65 -13t-55 -36q13 -56 50.5 -101t84.5 -92q41 -40 81 -86.5t66 -106t26 -140.5q0 -80 -29 -148t-85 -109t-137 -41zM140 585q-17 -26 -26 -56.5t-9 -63.5q0 -49 19 -92t49.5 -82t64.5 -79
q35 -40 68.5 -83t56.5 -92.5t27 -109.5q34 54 34 119q0 50 -19 93t-50 83t-66 80q-34 39 -67 81.5t-55.5 92t-26.5 109.5z" />
    <glyph glyph-name="dieresis" unicode="&#xa8;" horiz-adv-x="360" 
d="M16 664q0 26 17 44t45 18t45 -18t17 -44t-17 -44.5t-45 -18.5t-45 18.5t-17 44.5zM219 664q0 26 17 44t45 18t45 -18t17 -44t-17 -44.5t-45 -18.5t-45 18.5t-17 44.5z" />
    <glyph glyph-name="copyright" unicode="&#xa9;" horiz-adv-x="1063" 
d="M988 317q0 -100 -33.5 -184t-94.5 -145t-144.5 -94.5t-183.5 -33.5t-184 33.5t-145 95t-94.5 145t-33.5 183.5q0 99 33.5 182.5t94.5 144t145 94t184 33.5t183.5 -33.5t144.5 -94t94.5 -144t33.5 -182.5zM931 317q0 120 -49.5 211.5t-139 143.5t-210.5 52t-211 -52
t-140 -143.5t-50 -211.5q0 -121 50 -213.5t140 -144t211 -51.5t210.5 51.5t139 144t49.5 213.5zM727 228q-4 -33 -7 -67t-6 -69q-31 -12 -56 -19.5t-43 -12.5q-18 -4 -37.5 -5.5t-39.5 -1.5q-80 0 -141 31.5t-95.5 89.5t-34.5 139q0 78 35 138t95.5 94.5t138.5 34.5
q48 0 96 -14q23 -6 39 -8.5t24 -2.5q5 0 10.5 0.5t10.5 1.5q0 -34 2 -72t5 -79q-7 -1 -15 -1.5t-16 -0.5q-28 139 -149 139q-60 0 -97.5 -32.5t-55 -83.5t-17.5 -109q0 -60 18.5 -112t57.5 -84t101 -32q56 0 93.5 34t52.5 105q16 2 31 -1z" />
    <glyph glyph-name="ordfeminine" unicode="&#xaa;" horiz-adv-x="390" 
d="M293 299q-53 0 -65 52q-48 -53 -102 -53q-38 0 -62 21t-24 58q0 96 189 114q0 16 0.5 32.5t0.5 26.5q0 20 -15 32t-41 12q-8 0 -17.5 -1.5t-16.5 -5.5q0 -33 -16.5 -53t-39.5 -20q-14 0 -24 9t-10 22q0 23 24.5 42t61 31t72.5 12q47 0 73 -20t26 -56q0 -9 -0.5 -35.5
t-1 -58.5t-1 -57t-0.5 -30q0 -26 23 -26q17 0 46 10q5 -8 7 -16q-20 -22 -42.5 -32t-44.5 -10zM346 200h-293q-1 18 0 37h293q1 -19 0 -37zM227 372l2 91q-23 -2 -48 -7.5t-42 -20.5t-17 -44q0 -43 42 -43q25 0 63 24z" />
    <glyph glyph-name="guillemotleft" unicode="&#xab;" horiz-adv-x="477" 
d="M132 245q21 -20 46 -49t49 -60t41 -57q-3 -5 -9 -9.5t-12 -8.5q-44 43 -98 87t-108 79q-1 3 -1 6v6q0 12 3 24q56 37 111 81t98 86q7 -4 12.5 -8.5t8.5 -10.5q-18 -27 -42.5 -57.5t-51 -59.5t-47.5 -49zM306 244q20 -20 44 -47.5t46.5 -57t38.5 -55.5q-7 -8 -19 -17
q-43 41 -92.5 83.5t-102.5 76.5q-1 3 -1 6v6q0 11 3 23q55 36 106.5 78t92.5 82q6 -4 11.5 -8t8.5 -9q-17 -27 -41 -57t-49 -57.5t-46 -46.5z" />
    <glyph glyph-name="logicalnot" unicode="&#xac;" horiz-adv-x="581" 
d="M52 346h472v-266q-10 -1 -27 -1t-28 1v211h-417q-4 27 0 55z" />
    <glyph glyph-name="softhyphen" unicode="&#xad;" 
 />
    <glyph glyph-name="registered" unicode="&#xae;" horiz-adv-x="575" 
d="M289 294q-72 0 -126 29.5t-83.5 82.5t-29.5 124t29.5 124t83.5 82t126 29q71 0 124 -29t82.5 -82t29.5 -124t-29.5 -124t-82.5 -82.5t-124 -29.5zM289 324q92 0 146.5 56t54.5 150q0 61 -24.5 107t-69.5 72t-107 26q-94 0 -148.5 -56.5t-54.5 -148.5q0 -94 54.5 -150
t148.5 -56zM264 519l-13 1v-55q0 -30 4.5 -36t29.5 -9q2 -9 0 -20q-16 0 -35 0.5t-30 0.5q-9 0 -29 -0.5t-36 -0.5q-4 11 0 20q21 2 30 4.5t10.5 10.5t1.5 25v148q0 20 -1.5 28.5t-10.5 11.5t-30 4q-4 11 0 20q20 0 33 -0.5t36 -0.5t41 0.5t25 0.5q47 0 76 -18t29 -52
q0 -50 -66 -75v-2q6 -3 10.5 -8t8.5 -12l22 -33q16 -24 25 -34.5t19 -13t29 -4.5q2 -9 0 -20q-6 0 -26.5 0.5t-37.5 0.5h-13.5t-12.5 -1l-62 99q-7 11 -11.5 15t-15.5 5zM251 542q7 -1 12.5 -1h11.5q60 0 60 54q0 53 -59 53h-11t-14 -1v-105z" />
    <glyph glyph-name="macron" unicode="&#xaf;" horiz-adv-x="360" 
d="M39 661h282q3 -25 0 -50h-282q-3 25 0 50z" />
    <glyph glyph-name="degree" unicode="&#xb0;" horiz-adv-x="463" 
d="M50 449q0 50 24.5 91t65.5 65.5t91 24.5t91.5 -24.5t66 -65.5t24.5 -91q0 -49 -25 -90.5t-66 -66.5t-91 -25q-49 0 -90.5 24.5t-66 66t-24.5 91.5zM106 449q0 -35 16.5 -65t45 -47.5t63.5 -17.5q36 0 64.5 17.5t45 47t16.5 65.5t-16.5 65.5t-45 46.5t-64.5 17
q-35 0 -63.5 -17.5t-45 -47t-16.5 -64.5z" />
    <glyph glyph-name="plusminus" unicode="&#xb1;" horiz-adv-x="581" 
d="M529 261h-211v-151q-10 -1 -27 -1t-28 1v151h-211q-4 27 0 55h211v161q11 1 28 1t27 -1v-161h211q2 -28 0 -55zM529 1h-477q-4 27 0 55h477q2 -28 0 -55z" />
    <glyph glyph-name="twosuperior" unicode="&#xb2;" horiz-adv-x="386" 
d="M317 333q-43 2 -94 2h-93h-67.5t-42.5 -1q-4 12 -4 24q118 97 164.5 166t46.5 120q0 44 -25.5 64.5t-60.5 20.5q-50 0 -91 -38q-5 5 -9 10.5t-7 11.5q29 36 66 55.5t83 19.5q55 0 95 -28t40 -81q0 -59 -55 -124.5t-145 -149.5q47 0 84.5 0.5t44.5 0.5q19 0 30 5t21.5 22
t25.5 54q5 0 13 -1t14 -4q-9 -37 -18.5 -75.5t-15.5 -73.5z" />
    <glyph glyph-name="threesuperior" unicode="&#xb3;" horiz-adv-x="373" 
d="M99 566l11 3q60 17 89 42.5t29 54.5q0 24 -21 43.5t-62 19.5q-55 0 -94 -36q-10 9 -15 22q33 41 72 57t80 16q63 0 95 -28.5t32 -63.5q0 -29 -22 -56t-70 -49q116 -23 116 -121q0 -51 -28.5 -83.5t-71.5 -47.5t-86 -15q-58 0 -97.5 24t-39.5 61q0 20 11.5 32.5t30.5 12.5
q25 0 47 -24.5t33 -71.5q6 -1 12 -1.5t10 -0.5q38 0 65.5 24.5t27.5 66.5q0 38 -26.5 69t-78.5 31q-13 0 -21.5 -2t-19.5 -5q-6 10 -8 26z" />
    <glyph glyph-name="acute" unicode="&#xb4;" horiz-adv-x="360" 
d="M279 746v-4l-128 -194q-5 -1 -14 0t-15 3l49 196q5 5 34 5q40 0 74 -6z" />
    <glyph glyph-name="micro" unicode="&#xb5;" horiz-adv-x="587" 
d="M234 -12q-31 0 -53.5 18t-36.5 44.5t-21 53.5l-4 -1q-3 -30 -4 -53.5t-1 -27.5q0 -67 19 -129t63 -121q-32 -27 -67 -27q-24 0 -40 16.5t-25 43t-13 56.5t-4 56q0 55 9 114.5t21 111t21 82.5q-2 13 -3 34.5t-1 46.5q0 38 2.5 78t8 67.5t14.5 27.5q13 0 34 -7t38.5 -16
t17.5 -15q0 -38 -18 -99t-45 -135q0 -28 5 -55.5t22.5 -45.5t53.5 -18q49 0 83 36t59 88v18q0 33 2.5 75t7.5 81t10.5 64.5t11.5 25.5q10 0 31.5 -7t40 -16.5t18.5 -15.5q0 -46 -23 -115.5t-61 -140.5l-1.5 -9t-0.5 -8q0 -32 20.5 -56t59.5 -24q54 0 76 39l6 -2
q2 -9 3.5 -16.5t1.5 -15.5q0 -37 -24 -67.5t-68 -30.5q-87 0 -106 130q-15 -30 -35.5 -61t-46.5 -51.5t-58 -20.5z" />
    <glyph glyph-name="paragraph" unicode="&#xb6;" horiz-adv-x="576" 
d="M438 588v-750l-47 -11v828l-74 2v-846l-47 -11v508q-67 0 -124 20t-91.5 64t-34.5 115q0 62 28.5 105t77 66t108.5 23q22 0 50.5 -0.5t56.5 -1t48 -0.5q19 0 46.5 0.5t55.5 1t49 0.5q2 -15 0 -31q-48 -4 -69.5 -9t-27 -20.5t-5.5 -52.5z" />
    <glyph glyph-name="periodcentered" unicode="&#xb7;" horiz-adv-x="297" 
d="M75 259q0 31 21 52.5t51 21.5q34 0 54.5 -22.5t20.5 -51.5q0 -30 -20.5 -52t-54.5 -22q-30 0 -51 21.5t-21 52.5z" />
    <glyph glyph-name="cedilla" unicode="&#xb8;" horiz-adv-x="360" 
d="M179 10h42l-41 -63q50 -12 70 -37t20 -56q0 -36 -19.5 -61t-51.5 -38.5t-70 -13.5q-41 0 -59 16t-18 33q0 15 11 25.5t27 10.5q13 0 30 -11.5t28 -41.5q33 2 46 15.5t13 31.5q0 30 -28.5 48.5t-76.5 22.5l-2 5z" />
    <glyph glyph-name="onesuperior" unicode="&#xb9;" horiz-adv-x="316" 
d="M43 361q40 4 56.5 9t20 19t3.5 45v228q0 22 -4 30t-20 8q-22 0 -76 -12q-6 14 -7 28q41 12 73.5 22.5t62.5 22.5t65 27q4 -4 7.5 -8.5t5.5 -10.5q-22 -30 -22 -104v-222q0 -37 3.5 -53t20.5 -20.5t57 -8.5q3 -15 0 -28q-22 0 -46 1.5t-74 1.5q-47 0 -73.5 -1.5
t-52.5 -1.5q-1 13 0 28z" />
    <glyph glyph-name="ordmasculine" unicode="&#xba;" horiz-adv-x="426" 
d="M211 298q-78 0 -124.5 44.5t-46.5 117.5q0 52 23 90t63 59t90 21q51 0 89 -21t59.5 -58t21.5 -85q0 -50 -22.5 -88t-62 -59t-90.5 -21zM127 467q0 -64 22 -102t65 -38q41 0 63.5 35.5t22.5 96.5q0 65 -22 103t-65 38q-42 0 -64 -35.5t-22 -97.5zM364 200h-301q-1 18 0 37
h301q1 -19 0 -37z" />
    <glyph glyph-name="guillemotright" unicode="&#xbb;" horiz-adv-x="477" 
d="M345 246q-21 20 -46 49t-49 60t-41 57q3 5 9 9.5t12 8.5q44 -43 98 -87t108 -79q1 -3 1 -6v-6q0 -12 -3 -24q-56 -37 -111 -81t-98 -86q-7 4 -12.5 8.5t-8.5 10.5q18 27 42.5 57.5t51 59.5t47.5 49zM171 247q-20 20 -44 47.5t-46.5 57t-38.5 55.5q7 8 19 17
q44 -41 93.5 -83t101.5 -77q1 -3 1 -6v-6q0 -11 -3 -23q-55 -36 -106.5 -77.5t-92.5 -82.5q-6 4 -11.5 8.5t-8.5 8.5q17 27 41 57t49 57.5t46 46.5z" />
    <glyph glyph-name="onequarter" unicode="&#xbc;" horiz-adv-x="707" 
d="M33 361q36 4 51 8.5t18 17t3 39.5v160q0 20 -3.5 27t-17.5 7q-18 0 -68 -11q-6 13 -7 25q56 16 94.5 30.5t85.5 34.5q8 -8 12 -17q-20 -26 -20 -93v-155q0 -33 3 -47t18.5 -18.5t50.5 -7.5q3 -13 0 -25q-19 0 -41 1t-66 1q-42 0 -66 -1t-47 -1q-3 12 0 25zM601 662
l-471 -671q-18 10 -35 26l471 671l18 -12t17 -14zM574 -2h-18.5t-18.5 1v83h-178q-1 9 -1.5 22t-0.5 21q49 62 98 118.5t101 117.5q32 0 57 -6q-1 -23 -1 -35v-21v-157h80q0 -16 -1 -31t-3 -29h-76v-83q-9 -1 -18.5 -1h-19.5zM537 142v150q-34 -37 -65.5 -75t-62.5 -75h128z
" />
    <glyph glyph-name="onehalf" unicode="&#xbd;" horiz-adv-x="718" 
d="M33 361q36 4 51 8.5t18 17t3 39.5v160q0 20 -3.5 27t-17.5 7q-18 0 -68 -11q-6 13 -7 25q56 16 94.5 30.5t85.5 34.5q8 -8 12 -17q-20 -26 -20 -93v-155q0 -33 3 -47t18.5 -18.5t50.5 -7.5q3 -13 0 -25q-19 0 -41 1t-66 1q-42 0 -66 -1t-47 -1q-3 12 0 25zM601 662
l-471 -671q-18 10 -35 26l471 671l18 -12t17 -14zM661 -2q-37 2 -81 2h-80h-57.5t-36.5 -1q-4 11 -4 21q101 75 140 128.5t39 93.5q0 34 -21 50t-50 16q-22 0 -41.5 -8.5t-35.5 -22.5q-5 4 -8.5 9t-6.5 11q26 30 58.5 47t71.5 17q45 0 79.5 -22t34.5 -63q0 -46 -46 -97.5
t-122 -116.5q38 0 69 0.5t36 0.5q17 1 27 5t19.5 19t22.5 48q5 0 12 -0.5t12 -3.5q-8 -33 -16.5 -67.5t-14.5 -65.5z" />
    <glyph glyph-name="threequarters" unicode="&#xbe;" horiz-adv-x="722" 
d="M85 522l20 5q46 14 67.5 32.5t21.5 38.5q0 18 -18 33t-53 15q-49 0 -82 -30q-6 5 -9 9.5t-5 9.5q29 35 64.5 49.5t71.5 14.5q52 0 80.5 -22.5t28.5 -50.5q0 -22 -18.5 -43.5t-57.5 -39.5q96 -19 96 -96q0 -41 -25 -67.5t-62 -38.5t-75 -12q-51 0 -86 20t-35 52
q0 17 10 27.5t26 10.5q21 0 40.5 -20.5t28.5 -58.5q6 -2 12.5 -2.5t10.5 -0.5q32 0 55 19.5t23 51.5q0 30 -22 53.5t-65 23.5q-12 0 -20 -2l-16 -4q-7 10 -7 23zM616 662l-471 -671q-18 10 -35 26l471 671l18 -12t17 -14zM589 -2h-18.5t-18.5 1v83h-178q-1 9 -1.5 22
t-0.5 21q49 62 98 118.5t101 117.5q32 0 57 -6q-1 -23 -1 -35v-21v-157h80q0 -16 -1 -31t-3 -29h-76v-83q-9 -1 -18.5 -1h-19.5zM552 142v150q-34 -37 -65.5 -75t-62.5 -75h128z" />
    <glyph glyph-name="questiondown" unicode="&#xbf;" horiz-adv-x="412" 
d="M264 267l20 -193q-16 1 -22 1h-7q-70 0 -107 -5.5t-50.5 -20t-13.5 -41.5q0 -50 31 -98t83 -73q44 25 83 25q28 0 47 -13t19 -37t-20 -39t-52 -15q-35 0 -73.5 19t-73.5 51t-58 71q-17 29 -26 61.5t-9 71.5q0 78 42 109t142 31l8 95q18 2 37 0zM317 409q0 -31 -20 -52
t-52 -21q-31 0 -51.5 22t-20.5 51t20.5 50.5t51.5 21.5q32 0 52 -20.5t20 -51.5z" />
    <glyph glyph-name="Agrave" unicode="&#xc0;" horiz-adv-x="679" 
d="M-22 -1q-2 16 0 32q28 3 45 7t29 14.5t23 32t26 60.5l216 554q11 4 26.5 6t26.5 2l215 -571q14 -36 23 -56.5t20 -29.5t28 -12.5t47 -6.5q2 -16 0 -32q-35 0 -72 1t-74 1q-38 0 -76.5 -1t-76.5 -1q-3 15 0 32q49 5 68 9.5t19 23.5q0 8 -3 18t-8 25l-57 154h-225l-50 -138
q-7 -19 -10.5 -31.5t-3.5 -22.5q0 -22 20.5 -27.5t67.5 -10.5q2 -17 0 -32q-34 0 -67 1t-67 1q-28 0 -54 -1t-56 -1zM213 303h195l-98 266zM202 841v3q15 24 36.5 45.5t37.5 21.5q28 -33 64 -75t70 -77q-10 -18 -21 -24q-27 17 -62.5 37.5t-69 39t-55.5 29.5z" />
    <glyph glyph-name="Aacute" unicode="&#xc1;" horiz-adv-x="679" 
d="M-22 -1q-2 16 0 32q28 3 45 7t29 14.5t23 32t26 60.5l216 554q11 4 26.5 6t26.5 2l215 -571q14 -36 23 -56.5t20 -29.5t28 -12.5t47 -6.5q2 -16 0 -32q-35 0 -72 1t-74 1q-38 0 -76.5 -1t-76.5 -1q-3 15 0 32q49 5 68 9.5t19 23.5q0 8 -3 18t-8 25l-57 154h-225l-50 -138
q-7 -19 -10.5 -31.5t-3.5 -22.5q0 -22 20.5 -27.5t67.5 -10.5q2 -17 0 -32q-34 0 -67 1t-67 1q-28 0 -54 -1t-56 -1zM213 303h195l-98 266zM476 844v-3q-22 -11 -55.5 -29.5t-69 -39t-62.5 -37.5q-11 6 -21 24q34 35 70 77t64 75q16 0 37.5 -21.5t36.5 -45.5z" />
    <glyph glyph-name="Acircumflex" unicode="&#xc2;" horiz-adv-x="679" 
d="M-22 -1q-2 16 0 32q28 3 45 7t29 14.5t23 32t26 60.5l216 554q11 4 26.5 6t26.5 2l215 -571q14 -36 23 -56.5t20 -29.5t28 -12.5t47 -6.5q2 -16 0 -32q-35 0 -72 1t-74 1q-38 0 -76.5 -1t-76.5 -1q-3 15 0 32q49 5 68 9.5t19 23.5q0 8 -3 18t-8 25l-57 154h-225l-50 -138
q-7 -19 -10.5 -31.5t-3.5 -22.5q0 -22 20.5 -27.5t67.5 -10.5q2 -17 0 -32q-34 0 -67 1t-67 1q-28 0 -54 -1t-56 -1zM213 303h195l-98 266zM338 826q-31 -23 -66 -46t-73 -45q-17 3 -28 13q21 21 44.5 49.5t46 57t38.5 49.5q8 2 18.5 3t20.5 1q9 0 19.5 -1t18.5 -3
q17 -21 39.5 -49.5t46.5 -57t44 -49.5q-12 -9 -28 -13q-38 22 -73.5 44.5t-67.5 46.5z" />
    <glyph glyph-name="Atilde" unicode="&#xc3;" horiz-adv-x="679" 
d="M-22 -1q-2 16 0 32q28 3 45 7t29 14.5t23 32t26 60.5l216 554q11 4 26.5 6t26.5 2l215 -571q14 -36 23 -56.5t20 -29.5t28 -12.5t47 -6.5q2 -16 0 -32q-35 0 -72 1t-74 1q-38 0 -76.5 -1t-76.5 -1q-3 15 0 32q49 5 68 9.5t19 23.5q0 8 -3 18t-8 25l-57 154h-225l-50 -138
q-7 -19 -10.5 -31.5t-3.5 -22.5q0 -22 20.5 -27.5t67.5 -10.5q2 -17 0 -32q-34 0 -67 1t-67 1q-28 0 -54 -1t-56 -1zM213 303h195l-98 266zM489 897q9 -2 17 -5t15 -6q-20 -60 -51 -92t-71 -32q-14 0 -30 5t-37 17q-19 11 -36.5 20.5t-37.5 9.5q-36 0 -60 -58q-14 3 -32 11
q22 58 52.5 90.5t70.5 32.5q13 0 29 -5t37 -17q19 -10 37.5 -20.5t36.5 -10.5q36 0 60 60z" />
    <glyph glyph-name="Adieresis" unicode="&#xc4;" horiz-adv-x="679" 
d="M-22 -1q-2 16 0 32q28 3 45 7t29 14.5t23 32t26 60.5l216 554q11 4 26.5 6t26.5 2l215 -571q14 -36 23 -56.5t20 -29.5t28 -12.5t47 -6.5q2 -16 0 -32q-35 0 -72 1t-74 1q-38 0 -76.5 -1t-76.5 -1q-3 15 0 32q49 5 68 9.5t19 23.5q0 8 -3 18t-8 25l-57 154h-225l-50 -138
q-7 -19 -10.5 -31.5t-3.5 -22.5q0 -22 20.5 -27.5t67.5 -10.5q2 -17 0 -32q-34 0 -67 1t-67 1q-28 0 -54 -1t-56 -1zM213 303h195l-98 266zM176 814q0 26 16.5 43.5t44.5 17.5t44.5 -17.5t16.5 -43.5t-16.5 -44t-44.5 -18t-44.5 18t-16.5 44zM379 814q0 26 16.5 43.5
t44.5 17.5t44.5 -17.5t16.5 -43.5t-16.5 -44t-44.5 -18t-44.5 18t-16.5 44z" />
    <glyph glyph-name="Aring" unicode="&#xc5;" horiz-adv-x="679" 
d="M-22 -1q-2 16 0 32q28 3 45 7t29 14.5t23 32t26 60.5l216 554q11 4 26.5 6t26.5 2l215 -571q14 -36 23 -56.5t20 -29.5t28 -12.5t47 -6.5q2 -16 0 -32q-35 0 -72 1t-74 1q-38 0 -76.5 -1t-76.5 -1q-3 15 0 32q49 5 68 9.5t19 23.5q0 8 -3 18t-8 25l-57 154h-225l-50 -138
q-7 -19 -10.5 -31.5t-3.5 -22.5q0 -22 20.5 -27.5t67.5 -10.5q2 -17 0 -32q-34 0 -67 1t-67 1q-28 0 -54 -1t-56 -1zM213 303h195l-98 266zM225 826q0 44 35 68t79 24q52 0 82.5 -24t30.5 -66q0 -44 -34 -68t-79 -24q-46 0 -80 22t-34 68zM339 891q-25 0 -39.5 -17
t-14.5 -46q0 -28 14.5 -46t39.5 -18q26 0 40 16.5t14 45.5t-14.5 47t-39.5 18z" />
    <glyph glyph-name="AE" unicode="&#xc6;" horiz-adv-x="951" 
d="M345 -1q-2 15 0 32q47 5 67 9.5t25 19.5t5 51v217h-196l-113 -203q-10 -19 -16 -31.5t-6 -23.5q0 -19 21 -27.5t70 -11.5q3 -17 0 -32q-15 0 -41 0.5t-53 1t-46 0.5q-28 0 -57 -1t-61 -1q-2 16 0 32q30 3 49 7.5t32.5 15.5t27.5 32.5t35 58.5l291 515q-16 3 -37.5 5.5
t-48.5 3.5q-3 15 0 32q111 -1 170 -1.5t79 -0.5h73.5t113 0.5t136.5 1.5q4 -37 9.5 -76t11.5 -83q-15 -2 -31 0q-25 58 -62 88q-18 14 -43 21t-65 7h-133v-287h54q48 0 73.5 6.5t37.5 29.5t19 72q17 2 33 0q-1 -41 -1.5 -65t-0.5 -37.5v-25.5v-24t0.5 -38t1.5 -66
q-15 -1 -33 0q-6 50 -18 72t-36 27.5t-67 5.5h-63v-204q0 -34 0.5 -54.5t1.5 -26.5h137q50 0 81 8.5t50 24.5q16 14 34.5 40.5t34.5 62.5q15 2 30 0q-10 -56 -17 -101t-12 -78h-96t-102.5 0.5t-93 0.5h-67.5q-47 0 -79.5 -0.5t-57.5 -1t-51 -0.5zM270 371h172v287h-13z" />
    <glyph glyph-name="Ccedilla" unicode="&#xc7;" horiz-adv-x="721" 
d="M666 207q-12 -88 -18 -179q-55 -16 -112 -29q-55 -13 -118 -13l-25 -39q50 -12 70 -37t20 -56q0 -36 -19.5 -61t-51.5 -38.5t-70 -13.5q-41 0 -59 16t-18 33q0 15 11 25.5t27 10.5q13 0 30 -11.5t28 -41.5q33 2 46 15.5t13 31.5q0 30 -28.5 48.5t-76.5 22.5l-2 5l63 91
q-87 7 -154 43q-82 44 -127 123.5t-45 187.5q0 109 45 192.5t127 130.5t193 47q41 0 72 -5t75 -15q20 -4 35 -8t31 -4q5 0 11 0.5t10 1.5q2 -44 4 -91t6 -98q-20 -3 -34 -2q-39 181 -205 181q-67 0 -114 -26.5t-76 -72t-42 -102.5t-13 -119q0 -88 26 -162t82 -118t144 -44
q83 0 132.5 44t71.5 137h17q8 0 18 -1z" />
    <glyph glyph-name="Egrave" unicode="&#xc8;" horiz-adv-x="640" 
d="M33 -1q-2 15 0 32q47 5 67 9.5t25 20t5 50.5v465q0 42 -5 60t-25.5 23.5t-66.5 9.5q-2 15 0 32q26 0 45.5 -0.5t39.5 -0.5t48 -0.5t71 -0.5q79 0 148 0.5t115 1t54 0.5q4 -37 9.5 -76t12.5 -83q-17 -2 -33 0q-12 30 -28 53t-33 35q-19 14 -45.5 21t-65.5 7h-131v-273h55
q48 0 73 6.5t37 29t19 71.5q18 3 34 0q-1 -44 -1.5 -67.5t-0.5 -34.5v-18v-10l2 -132q-15 -3 -34 0q-6 53 -18 76t-35.5 29t-66.5 6h-64v-217q0 -34 0.5 -54.5t1.5 -26.5h137q50 0 80.5 8.5t50.5 25.5q14 11 33 38.5t36 63.5q16 2 31 0q-10 -56 -17 -101t-12 -78h-98
t-106 0.5t-96.5 0.5h-69.5q-47 0 -76.5 -0.5t-52 -1t-49.5 -0.5zM187 841v3q15 24 36.5 45.5t37.5 21.5q28 -33 64 -75t70 -77q-10 -18 -21 -24q-27 17 -62.5 37.5t-69 39t-55.5 29.5z" />
    <glyph glyph-name="Eacute" unicode="&#xc9;" horiz-adv-x="640" 
d="M33 -1q-2 15 0 32q47 5 67 9.5t25 20t5 50.5v465q0 42 -5 60t-25.5 23.5t-66.5 9.5q-2 15 0 32q26 0 45.5 -0.5t39.5 -0.5t48 -0.5t71 -0.5q79 0 148 0.5t115 1t54 0.5q4 -37 9.5 -76t12.5 -83q-17 -2 -33 0q-12 30 -28 53t-33 35q-19 14 -45.5 21t-65.5 7h-131v-273h55
q48 0 73 6.5t37 29t19 71.5q18 3 34 0q-1 -44 -1.5 -67.5t-0.5 -34.5v-18v-10l2 -132q-15 -3 -34 0q-6 53 -18 76t-35.5 29t-66.5 6h-64v-217q0 -34 0.5 -54.5t1.5 -26.5h137q50 0 80.5 8.5t50.5 25.5q14 11 33 38.5t36 63.5q16 2 31 0q-10 -56 -17 -101t-12 -78h-98
t-106 0.5t-96.5 0.5h-69.5q-47 0 -76.5 -0.5t-52 -1t-49.5 -0.5zM461 844v-3q-22 -11 -55.5 -29.5t-69 -39t-62.5 -37.5q-11 6 -21 24q34 35 70 77t64 75q16 0 37.5 -21.5t36.5 -45.5z" />
    <glyph glyph-name="Ecircumflex" unicode="&#xca;" horiz-adv-x="640" 
d="M33 -1q-2 15 0 32q47 5 67 9.5t25 20t5 50.5v465q0 42 -5 60t-25.5 23.5t-66.5 9.5q-2 15 0 32q26 0 45.5 -0.5t39.5 -0.5t48 -0.5t71 -0.5q79 0 148 0.5t115 1t54 0.5q4 -37 9.5 -76t12.5 -83q-17 -2 -33 0q-12 30 -28 53t-33 35q-19 14 -45.5 21t-65.5 7h-131v-273h55
q48 0 73 6.5t37 29t19 71.5q18 3 34 0q-1 -44 -1.5 -67.5t-0.5 -34.5v-18v-10l2 -132q-15 -3 -34 0q-6 53 -18 76t-35.5 29t-66.5 6h-64v-217q0 -34 0.5 -54.5t1.5 -26.5h137q50 0 80.5 8.5t50.5 25.5q14 11 33 38.5t36 63.5q16 2 31 0q-10 -56 -17 -101t-12 -78h-98
t-106 0.5t-96.5 0.5h-69.5q-47 0 -76.5 -0.5t-52 -1t-49.5 -0.5zM323 826q-31 -23 -66 -46t-73 -45q-17 3 -28 13q21 21 44.5 49.5t46 57t38.5 49.5q8 2 18.5 3t20.5 1q9 0 19.5 -1t18.5 -3q17 -21 39.5 -49.5t46.5 -57t44 -49.5q-12 -9 -28 -13q-38 22 -73.5 44.5
t-67.5 46.5z" />
    <glyph glyph-name="Edieresis" unicode="&#xcb;" horiz-adv-x="640" 
d="M33 -1q-2 15 0 32q47 5 67 9.5t25 20t5 50.5v465q0 42 -5 60t-25.5 23.5t-66.5 9.5q-2 15 0 32q26 0 45.5 -0.5t39.5 -0.5t48 -0.5t71 -0.5q79 0 148 0.5t115 1t54 0.5q4 -37 9.5 -76t12.5 -83q-17 -2 -33 0q-12 30 -28 53t-33 35q-19 14 -45.5 21t-65.5 7h-131v-273h55
q48 0 73 6.5t37 29t19 71.5q18 3 34 0q-1 -44 -1.5 -67.5t-0.5 -34.5v-18v-10l2 -132q-15 -3 -34 0q-6 53 -18 76t-35.5 29t-66.5 6h-64v-217q0 -34 0.5 -54.5t1.5 -26.5h137q50 0 80.5 8.5t50.5 25.5q14 11 33 38.5t36 63.5q16 2 31 0q-10 -56 -17 -101t-12 -78h-98
t-106 0.5t-96.5 0.5h-69.5q-47 0 -76.5 -0.5t-52 -1t-49.5 -0.5zM161 814q0 26 16.5 43.5t44.5 17.5t44.5 -17.5t16.5 -43.5t-16.5 -44t-44.5 -18t-44.5 18t-16.5 44zM364 814q0 26 16.5 43.5t44.5 17.5t44.5 -17.5t16.5 -43.5t-16.5 -44t-44.5 -18t-44.5 18t-16.5 44z" />
    <glyph glyph-name="Igrave" unicode="&#xcc;" horiz-adv-x="370" 
d="M240 589v-465q0 -31 2 -49t11 -26t29 -11.5t57 -6.5q3 -16 0 -32q-20 0 -49 0.5t-57.5 1t-47.5 0.5t-47.5 -0.5l-57 -1t-50.5 -0.5q-3 15 0 32q48 5 69 9.5t26 19.5t5 51v465q0 42 -5 60t-26 23.5t-69 9.5q-2 15 0 32q21 0 50.5 -0.5t58.5 -1t48 -0.5t47 0.5t57 1t48 0.5
q3 -15 0 -32q-47 -4 -68 -9t-26 -20t-5 -51zM47 841v3q15 24 36.5 45.5t37.5 21.5q28 -33 64 -75t70 -77q-10 -18 -21 -24q-27 17 -62.5 37.5t-69 39t-55.5 29.5z" />
    <glyph glyph-name="Iacute" unicode="&#xcd;" horiz-adv-x="370" 
d="M240 589v-465q0 -31 2 -49t11 -26t29 -11.5t57 -6.5q3 -16 0 -32q-20 0 -49 0.5t-57.5 1t-47.5 0.5t-47.5 -0.5l-57 -1t-50.5 -0.5q-3 15 0 32q48 5 69 9.5t26 19.5t5 51v465q0 42 -5 60t-26 23.5t-69 9.5q-2 15 0 32q21 0 50.5 -0.5t58.5 -1t48 -0.5t47 0.5t57 1t48 0.5
q3 -15 0 -32q-47 -4 -68 -9t-26 -20t-5 -51zM321 844v-3q-22 -11 -55.5 -29.5t-69 -39t-62.5 -37.5q-11 6 -21 24q34 35 70 77t64 75q16 0 37.5 -21.5t36.5 -45.5z" />
    <glyph glyph-name="Icircumflex" unicode="&#xce;" horiz-adv-x="370" 
d="M240 589v-465q0 -31 2 -49t11 -26t29 -11.5t57 -6.5q3 -16 0 -32q-20 0 -49 0.5t-57.5 1t-47.5 0.5t-47.5 -0.5l-57 -1t-50.5 -0.5q-3 15 0 32q48 5 69 9.5t26 19.5t5 51v465q0 42 -5 60t-26 23.5t-69 9.5q-2 15 0 32q21 0 50.5 -0.5t58.5 -1t48 -0.5t47 0.5t57 1t48 0.5
q3 -15 0 -32q-47 -4 -68 -9t-26 -20t-5 -51zM183 826q-31 -23 -66 -46t-73 -45q-17 3 -28 13q21 21 44.5 49.5t46 57t38.5 49.5q8 2 18.5 3t20.5 1q9 0 19.5 -1t18.5 -3q17 -21 39.5 -49.5t46.5 -57t44 -49.5q-12 -9 -28 -13q-38 22 -73.5 44.5t-67.5 46.5z" />
    <glyph glyph-name="Idieresis" unicode="&#xcf;" horiz-adv-x="370" 
d="M240 589v-465q0 -31 2 -49t11 -26t29 -11.5t57 -6.5q3 -16 0 -32q-20 0 -49 0.5t-57.5 1t-47.5 0.5t-47.5 -0.5l-57 -1t-50.5 -0.5q-3 15 0 32q48 5 69 9.5t26 19.5t5 51v465q0 42 -5 60t-26 23.5t-69 9.5q-2 15 0 32q21 0 50.5 -0.5t58.5 -1t48 -0.5t47 0.5t57 1t48 0.5
q3 -15 0 -32q-47 -4 -68 -9t-26 -20t-5 -51zM21 814q0 26 16.5 43.5t44.5 17.5t44.5 -17.5t16.5 -43.5t-16.5 -44t-44.5 -18t-44.5 18t-16.5 44zM224 814q0 26 16.5 43.5t44.5 17.5t44.5 -17.5t16.5 -43.5t-16.5 -44t-44.5 -18t-44.5 18t-16.5 44z" />
    <glyph glyph-name="Eth" unicode="&#xd0;" horiz-adv-x="774" 
d="M33 -1q-2 15 0 32q47 5 67 9.5t25 19.5t5 51v236h-97q-1 24 0 45h97v184q0 42 -5 60t-25.5 23.5t-66.5 9.5q-2 15 0 32q21 0 50 -0.5t57.5 -1t47.5 -0.5q31 0 71 1t66 1q197 0 298 -84t101 -245q0 -118 -51.5 -201.5t-142.5 -127.5t-209 -44q-14 0 -39 0.5t-51 1t-44 0.5
q-16 0 -45 -0.5t-59 -1t-50 -0.5zM411 347h-171v-223v-42t1 -28q48 -14 99 -14q87 0 145.5 41t88 112t29.5 161q0 140 -71.5 223t-213.5 83q-24 0 -46 -2t-32 -3v-263h171q3 -21 0 -45z" />
    <glyph glyph-name="Ntilde" unicode="&#xd1;" horiz-adv-x="793" 
d="M621 -7l-445 584v-428q0 -38 2 -58.5t12 -31.5q10 -10 31 -17t60 -11q2 -16 0 -32q-30 0 -66.5 1t-61.5 1t-61.5 -1t-65.5 -1q-3 15 0 32q36 5 56 9.5t29 14t11.5 28.5t2.5 53v410q0 40 -2.5 63t-13 34.5t-32 17t-59.5 9.5q-1 15 0 31q31 0 66 -1t70 -1h27.5t39.5 1
l406 -534v384q0 38 -1.5 59t-12.5 31q-21 22 -101 28q-3 17 0 32q19 0 45.5 -0.5t51.5 -1t41 -0.5q25 0 62 1t66 1q2 -15 0 -31q-48 -6 -69 -13.5t-26 -27.5t-5 -65v-565q-10 -2 -27 -3.5t-30 -1.5zM559 897q9 -2 17 -5t15 -6q-20 -60 -51 -92t-71 -32q-14 0 -30 5t-37 17
q-19 11 -36.5 20.5t-37.5 9.5q-36 0 -60 -58q-14 3 -32 11q22 58 52.5 90.5t70.5 32.5q13 0 29 -5t37 -17q19 -10 37.5 -20.5t36.5 -10.5q36 0 60 60z" />
    <glyph glyph-name="Ograve" unicode="&#xd2;" horiz-adv-x="802" 
d="M752 354q0 -108 -44 -191t-124 -130.5t-189 -47.5q-108 0 -185 46t-118.5 127t-41.5 184q0 107 44 190.5t124.5 131t188.5 47.5q107 0 184 -46t119 -126.5t42 -184.5zM628 344q0 61 -12 119t-38.5 105t-69.5 74.5t-105 27.5q-63 0 -106.5 -28t-70 -74t-39 -103
t-12.5 -116q0 -58 12.5 -115.5t39.5 -104.5t71.5 -75.5t107.5 -28.5q62 0 104.5 27t68.5 72.5t37.5 102.5t11.5 117zM264 841v3q15 24 36.5 45.5t37.5 21.5q28 -33 64 -75t70 -77q-10 -18 -21 -24q-27 17 -62.5 37.5t-69 39t-55.5 29.5z" />
    <glyph glyph-name="Oacute" unicode="&#xd3;" horiz-adv-x="802" 
d="M752 354q0 -108 -44 -191t-124 -130.5t-189 -47.5q-108 0 -185 46t-118.5 127t-41.5 184q0 107 44 190.5t124.5 131t188.5 47.5q107 0 184 -46t119 -126.5t42 -184.5zM628 344q0 61 -12 119t-38.5 105t-69.5 74.5t-105 27.5q-63 0 -106.5 -28t-70 -74t-39 -103
t-12.5 -116q0 -58 12.5 -115.5t39.5 -104.5t71.5 -75.5t107.5 -28.5q62 0 104.5 27t68.5 72.5t37.5 102.5t11.5 117zM538 844v-3q-22 -11 -55.5 -29.5t-69 -39t-62.5 -37.5q-11 6 -21 24q34 35 70 77t64 75q16 0 37.5 -21.5t36.5 -45.5z" />
    <glyph glyph-name="Ocircumflex" unicode="&#xd4;" horiz-adv-x="802" 
d="M752 354q0 -108 -44 -191t-124 -130.5t-189 -47.5q-108 0 -185 46t-118.5 127t-41.5 184q0 107 44 190.5t124.5 131t188.5 47.5q107 0 184 -46t119 -126.5t42 -184.5zM628 344q0 61 -12 119t-38.5 105t-69.5 74.5t-105 27.5q-63 0 -106.5 -28t-70 -74t-39 -103
t-12.5 -116q0 -58 12.5 -115.5t39.5 -104.5t71.5 -75.5t107.5 -28.5q62 0 104.5 27t68.5 72.5t37.5 102.5t11.5 117zM400 826q-31 -23 -66 -46t-73 -45q-17 3 -28 13q21 21 44.5 49.5t46 57t38.5 49.5q8 2 18.5 3t20.5 1q9 0 19.5 -1t18.5 -3q17 -21 39.5 -49.5t46.5 -57
t44 -49.5q-12 -9 -28 -13q-38 22 -73.5 44.5t-67.5 46.5z" />
    <glyph glyph-name="Otilde" unicode="&#xd5;" horiz-adv-x="802" 
d="M752 354q0 -108 -44 -191t-124 -130.5t-189 -47.5q-108 0 -185 46t-118.5 127t-41.5 184q0 107 44 190.5t124.5 131t188.5 47.5q107 0 184 -46t119 -126.5t42 -184.5zM628 344q0 61 -12 119t-38.5 105t-69.5 74.5t-105 27.5q-63 0 -106.5 -28t-70 -74t-39 -103
t-12.5 -116q0 -58 12.5 -115.5t39.5 -104.5t71.5 -75.5t107.5 -28.5q62 0 104.5 27t68.5 72.5t37.5 102.5t11.5 117zM551 897q9 -2 17 -5t15 -6q-20 -60 -51 -92t-71 -32q-14 0 -30 5t-37 17q-19 11 -36.5 20.5t-37.5 9.5q-36 0 -60 -58q-14 3 -32 11q22 58 52.5 90.5
t70.5 32.5q13 0 29 -5t37 -17q19 -10 37.5 -20.5t36.5 -10.5q36 0 60 60z" />
    <glyph glyph-name="Odieresis" unicode="&#xd6;" horiz-adv-x="802" 
d="M752 354q0 -108 -44 -191t-124 -130.5t-189 -47.5q-108 0 -185 46t-118.5 127t-41.5 184q0 107 44 190.5t124.5 131t188.5 47.5q107 0 184 -46t119 -126.5t42 -184.5zM628 344q0 61 -12 119t-38.5 105t-69.5 74.5t-105 27.5q-63 0 -106.5 -28t-70 -74t-39 -103
t-12.5 -116q0 -58 12.5 -115.5t39.5 -104.5t71.5 -75.5t107.5 -28.5q62 0 104.5 27t68.5 72.5t37.5 102.5t11.5 117zM238 814q0 26 16.5 43.5t44.5 17.5t44.5 -17.5t16.5 -43.5t-16.5 -44t-44.5 -18t-44.5 18t-16.5 44zM441 814q0 26 16.5 43.5t44.5 17.5t44.5 -17.5
t16.5 -43.5t-16.5 -44t-44.5 -18t-44.5 18t-16.5 44z" />
    <glyph glyph-name="multiply" unicode="&#xd7;" horiz-adv-x="581" 
d="M62 428q7 8 19.5 20t19.5 19l189 -189l190 189q9 -8 20 -19.5t18 -19.5l-189 -189l189 -189q-7 -8 -18.5 -20t-19.5 -19l-190 189l-189 -189q-21 16 -39 39l189 189z" />
    <glyph glyph-name="Oslash" unicode="&#xd8;" horiz-adv-x="802" 
d="M752 678l-80 -82q39 -47 59.5 -108.5t20.5 -133.5q0 -108 -44 -191t-124 -130.5t-189 -47.5q-72 0 -131 21.5t-102 59.5l-79 -81q-10 9 -18.5 17t-15.5 15l80 83q-79 96 -79 242q0 107 44 190.5t124.5 131t188.5 47.5q72 0 130.5 -21.5t102.5 -60.5l78 81q19 -14 34 -32z
M406 25q62 0 104.5 27t68.5 72.5t37.5 102.5t11.5 117q0 46 -7 91t-21 85l-375 -388q28 -47 72 -77t109 -30zM204 177l375 389q-27 46 -70 75t-106 29t-106.5 -28t-70 -74t-39 -103t-12.5 -116q0 -44 7 -88t22 -84z" />
    <glyph glyph-name="Ugrave" unicode="&#xd9;" horiz-adv-x="767" 
d="M14 701q20 0 48.5 -0.5l57 -1t47.5 -0.5t47.5 0.5t57.5 1t49 0.5q3 -15 0 -31q-46 -4 -67 -9t-26 -20t-5 -51v-327q0 -112 48.5 -166.5t141.5 -54.5q98 0 148 61t50 189v274q0 35 -2.5 54.5t-13 28.5t-31.5 12.5t-59 7.5q-3 15 0 31q27 0 65 -1t61 -1q25 0 62.5 1t65.5 1
q3 -15 0 -31q-46 -5 -67 -10t-26.5 -22t-5.5 -58v-308q0 -133 -69 -207.5t-209 -74.5q-80 0 -140.5 26t-94.5 80.5t-34 137.5v344q0 42 -5 60t-26 23.5t-68 9.5q-3 15 0 31zM272 841v3q15 24 36.5 45.5t37.5 21.5q28 -33 64 -75t70 -77q-10 -18 -21 -24q-27 17 -62.5 37.5
t-69 39t-55.5 29.5z" />
    <glyph glyph-name="Uacute" unicode="&#xda;" horiz-adv-x="767" 
d="M14 701q20 0 48.5 -0.5l57 -1t47.5 -0.5t47.5 0.5t57.5 1t49 0.5q3 -15 0 -31q-46 -4 -67 -9t-26 -20t-5 -51v-327q0 -112 48.5 -166.5t141.5 -54.5q98 0 148 61t50 189v274q0 35 -2.5 54.5t-13 28.5t-31.5 12.5t-59 7.5q-3 15 0 31q27 0 65 -1t61 -1q25 0 62.5 1t65.5 1
q3 -15 0 -31q-46 -5 -67 -10t-26.5 -22t-5.5 -58v-308q0 -133 -69 -207.5t-209 -74.5q-80 0 -140.5 26t-94.5 80.5t-34 137.5v344q0 42 -5 60t-26 23.5t-68 9.5q-3 15 0 31zM546 844v-3q-22 -11 -55.5 -29.5t-69 -39t-62.5 -37.5q-11 6 -21 24q34 35 70 77t64 75
q16 0 37.5 -21.5t36.5 -45.5z" />
    <glyph glyph-name="Ucircumflex" unicode="&#xdb;" horiz-adv-x="767" 
d="M14 701q20 0 48.5 -0.5l57 -1t47.5 -0.5t47.5 0.5t57.5 1t49 0.5q3 -15 0 -31q-46 -4 -67 -9t-26 -20t-5 -51v-327q0 -112 48.5 -166.5t141.5 -54.5q98 0 148 61t50 189v274q0 35 -2.5 54.5t-13 28.5t-31.5 12.5t-59 7.5q-3 15 0 31q27 0 65 -1t61 -1q25 0 62.5 1t65.5 1
q3 -15 0 -31q-46 -5 -67 -10t-26.5 -22t-5.5 -58v-308q0 -133 -69 -207.5t-209 -74.5q-80 0 -140.5 26t-94.5 80.5t-34 137.5v344q0 42 -5 60t-26 23.5t-68 9.5q-3 15 0 31zM408 826q-31 -23 -66 -46t-73 -45q-17 3 -28 13q21 21 44.5 49.5t46 57t38.5 49.5q8 2 18.5 3
t20.5 1q9 0 19.5 -1t18.5 -3q17 -21 39.5 -49.5t46.5 -57t44 -49.5q-12 -9 -28 -13q-38 22 -73.5 44.5t-67.5 46.5z" />
    <glyph glyph-name="Udieresis" unicode="&#xdc;" horiz-adv-x="767" 
d="M14 701q20 0 48.5 -0.5l57 -1t47.5 -0.5t47.5 0.5t57.5 1t49 0.5q3 -15 0 -31q-46 -4 -67 -9t-26 -20t-5 -51v-327q0 -112 48.5 -166.5t141.5 -54.5q98 0 148 61t50 189v274q0 35 -2.5 54.5t-13 28.5t-31.5 12.5t-59 7.5q-3 15 0 31q27 0 65 -1t61 -1q25 0 62.5 1t65.5 1
q3 -15 0 -31q-46 -5 -67 -10t-26.5 -22t-5.5 -58v-308q0 -133 -69 -207.5t-209 -74.5q-80 0 -140.5 26t-94.5 80.5t-34 137.5v344q0 42 -5 60t-26 23.5t-68 9.5q-3 15 0 31zM246 814q0 26 16.5 43.5t44.5 17.5t44.5 -17.5t16.5 -43.5t-16.5 -44t-44.5 -18t-44.5 18t-16.5 44
zM449 814q0 26 16.5 43.5t44.5 17.5t44.5 -17.5t16.5 -43.5t-16.5 -44t-44.5 -18t-44.5 18t-16.5 44z" />
    <glyph glyph-name="Yacute" unicode="&#xdd;" horiz-adv-x="620" 
d="M512 560l-147 -262v-174q0 -31 2 -49t11 -26t29 -11.5t57 -6.5q3 -16 0 -32q-21 0 -50 0.5t-57.5 1t-47.5 0.5t-47 -0.5t-57 -1t-50 -0.5q-2 15 0 32q48 5 69 9.5t26 20t5 50.5v177l-152 278q-18 34 -30 53.5t-23.5 29t-28 13.5t-45.5 7q-2 16 0 32q36 0 74 -1t75 -1
q32 0 71 1t75 1q2 -15 0 -32q-43 -4 -61 -9.5t-18 -19.5q0 -7 5.5 -18.5t14.5 -28.5l131 -245l132 244q18 33 18 45q0 15 -20.5 20.5t-70.5 11.5q-2 17 0 32q16 0 41 -0.5t49.5 -1t40.5 -0.5q32 0 59.5 1t58.5 1q2 -16 0 -32q-29 -3 -47 -7t-31 -14.5t-27 -31t-34 -56.5z
M466 844v-3q-22 -11 -55.5 -29.5t-69 -39t-62.5 -37.5q-11 6 -21 24q34 35 70 77t64 75q16 0 37.5 -21.5t36.5 -45.5z" />
    <glyph glyph-name="Thorn" unicode="&#xde;" horiz-adv-x="602" 
d="M30 -1q-2 15 0 32q48 5 69 9.5t26 20t5 50.5v465q0 42 -5 60t-26 23.5t-69 9.5q-2 15 0 32q21 0 50.5 -0.5t58.5 -1t48 -0.5t47 0.5t57 1t48 0.5q3 -15 0 -32q-47 -4 -68 -9t-26 -20t-5 -51v-34q22 3 40.5 4t33.5 1q128 0 190.5 -47t62.5 -138q0 -67 -31 -113.5t-84 -70
t-120 -23.5q-20 0 -42 2t-50 8v-54q0 -31 2 -49t11 -26t29 -11.5t57 -6.5q3 -16 0 -32q-20 0 -49 0.5t-57.5 1t-47.5 0.5t-47.5 -0.5l-57 -1t-50.5 -0.5zM240 218q19 -5 34.5 -6.5t25.5 -1.5q68 0 106.5 43.5t38.5 115.5q0 71 -38 110t-114 39q-23 0 -53 -4v-296z" />
    <glyph glyph-name="germandbls" unicode="&#xdf;" horiz-adv-x="601" 
d="M103 104v323h-83q-3 15 0 27q38 6 55 11t22.5 14t6.5 28q4 71 21 115.5t50 74.5q31 27 74 42.5t94 15.5q44 0 83 -14t63.5 -44t24.5 -77q0 -39 -14.5 -63.5t-36.5 -41.5t-44 -32.5t-36.5 -35t-14.5 -49.5q0 -26 7.5 -43.5t27.5 -32.5t57 -37q26 -15 49.5 -32.5t38.5 -43
t15 -65.5q0 -45 -22 -79.5t-59.5 -54.5t-83.5 -20q-28 0 -61 9.5t-56 29t-23 49.5q0 23 13 35t32 12q30 0 49.5 -27t19.5 -67q14 -8 34 -8q29 0 48.5 21t19.5 55q0 44 -26 67t-67 47q-26 16 -50.5 34t-40 44.5t-15.5 66.5q0 37 14 60.5t35.5 40.5t42.5 35.5t35 45.5t14 70
q0 49 -23.5 78t-69.5 29q-59 0 -90 -49q-28 -46 -28 -159v-390q0 -38 1.5 -66.5t2.5 -48.5l-4 -4q-12 1 -25.5 1h-19.5q-34 0 -55 -0.5t-38 -1t-40 -0.5q-2 16 0 31q35 2 51 6.5t20.5 19.5t4.5 48z" />
    <glyph glyph-name="agrave" unicode="&#xe0;" horiz-adv-x="493" 
d="M383 -10q-66 0 -83 66q-71 -68 -145 -68q-51 0 -86.5 30.5t-35.5 84.5q0 132 269 166q0 24 0.5 49t0.5 53q0 35 -25.5 54.5t-61.5 19.5q-26 0 -44 -8q0 -23 -10 -47t-27.5 -40.5t-42.5 -16.5q-22 0 -34.5 12.5t-12.5 30.5q0 24 22.5 45.5t57.5 37t73 24.5t68 9
q37 0 68.5 -13.5t51 -40t19.5 -65.5q0 -24 -1 -62.5t-1.5 -82t-1.5 -82.5t-1 -63q0 -32 28 -32q18 0 55 12q4 -5 5.5 -11t2.5 -11q-25 -27 -52.5 -39t-55.5 -12zM300 83l2 150q-92 -12 -126.5 -39t-34.5 -69q0 -35 18.5 -53.5t46.5 -18.5q18 0 40.5 8t53.5 22zM116 742v4
q35 6 74 6q29 0 34 -5l49 -196q-6 -2 -15 -3t-14 0z" />
    <glyph glyph-name="aacute" unicode="&#xe1;" horiz-adv-x="493" 
d="M383 -10q-66 0 -83 66q-71 -68 -145 -68q-51 0 -86.5 30.5t-35.5 84.5q0 132 269 166q0 24 0.5 49t0.5 53q0 35 -25.5 54.5t-61.5 19.5q-26 0 -44 -8q0 -23 -10 -47t-27.5 -40.5t-42.5 -16.5q-22 0 -34.5 12.5t-12.5 30.5q0 24 22.5 45.5t57.5 37t73 24.5t68 9
q37 0 68.5 -13.5t51 -40t19.5 -65.5q0 -24 -1 -62.5t-1.5 -82t-1.5 -82.5t-1 -63q0 -32 28 -32q18 0 55 12q4 -5 5.5 -11t2.5 -11q-25 -27 -52.5 -39t-55.5 -12zM300 83l2 150q-92 -12 -126.5 -39t-34.5 -69q0 -35 18.5 -53.5t46.5 -18.5q18 0 40.5 8t53.5 22zM362 746v-4
l-128 -194q-5 -1 -14 0t-15 3l49 196q5 5 34 5q40 0 74 -6z" />
    <glyph glyph-name="acircumflex" unicode="&#xe2;" horiz-adv-x="493" 
d="M383 -10q-66 0 -83 66q-71 -68 -145 -68q-51 0 -86.5 30.5t-35.5 84.5q0 132 269 166q0 24 0.5 49t0.5 53q0 35 -25.5 54.5t-61.5 19.5q-26 0 -44 -8q0 -23 -10 -47t-27.5 -40.5t-42.5 -16.5q-22 0 -34.5 12.5t-12.5 30.5q0 24 22.5 45.5t57.5 37t73 24.5t68 9
q37 0 68.5 -13.5t51 -40t19.5 -65.5q0 -24 -1 -62.5t-1.5 -82t-1.5 -82.5t-1 -63q0 -32 28 -32q18 0 55 12q4 -5 5.5 -11t2.5 -11q-25 -27 -52.5 -39t-55.5 -12zM300 83l2 150q-92 -12 -126.5 -39t-34.5 -69q0 -35 18.5 -53.5t46.5 -18.5q18 0 40.5 8t53.5 22zM238 671
q-30 -29 -63 -60t-68 -63q-7 2 -14.5 5t-14.5 8q29 41 61.5 93t55.5 94q10 2 21 3t23 1t23 -1t21 -3q23 -42 55.5 -94t60.5 -93q-12 -10 -29 -13q-36 32 -69 63t-63 60z" />
    <glyph glyph-name="atilde" unicode="&#xe3;" horiz-adv-x="493" 
d="M383 -10q-66 0 -83 66q-71 -68 -145 -68q-51 0 -86.5 30.5t-35.5 84.5q0 132 269 166q0 24 0.5 49t0.5 53q0 35 -25.5 54.5t-61.5 19.5q-26 0 -44 -8q0 -23 -10 -47t-27.5 -40.5t-42.5 -16.5q-22 0 -34.5 12.5t-12.5 30.5q0 24 22.5 45.5t57.5 37t73 24.5t68 9
q37 0 68.5 -13.5t51 -40t19.5 -65.5q0 -24 -1 -62.5t-1.5 -82t-1.5 -82.5t-1 -63q0 -32 28 -32q18 0 55 12q4 -5 5.5 -11t2.5 -11q-25 -27 -52.5 -39t-55.5 -12zM300 83l2 150q-92 -12 -126.5 -39t-34.5 -69q0 -35 18.5 -53.5t46.5 -18.5q18 0 40.5 8t53.5 22zM387 726
q9 -2 17 -5t15 -6q-20 -60 -51 -92.5t-71 -32.5q-13 0 -29 5t-36 17q-18 11 -35.5 20.5t-36.5 9.5q-36 0 -60 -58q-14 3 -32 11q22 58 53 91t71 33q13 0 28.5 -5t35.5 -17q18 -10 36.5 -20.5t35.5 -10.5q35 0 59 60z" />
    <glyph glyph-name="adieresis" unicode="&#xe4;" horiz-adv-x="493" 
d="M383 -10q-66 0 -83 66q-71 -68 -145 -68q-51 0 -86.5 30.5t-35.5 84.5q0 132 269 166q0 24 0.5 49t0.5 53q0 35 -25.5 54.5t-61.5 19.5q-26 0 -44 -8q0 -23 -10 -47t-27.5 -40.5t-42.5 -16.5q-22 0 -34.5 12.5t-12.5 30.5q0 24 22.5 45.5t57.5 37t73 24.5t68 9
q37 0 68.5 -13.5t51 -40t19.5 -65.5q0 -24 -1 -62.5t-1.5 -82t-1.5 -82.5t-1 -63q0 -32 28 -32q18 0 55 12q4 -5 5.5 -11t2.5 -11q-25 -27 -52.5 -39t-55.5 -12zM300 83l2 150q-92 -12 -126.5 -39t-34.5 -69q0 -35 18.5 -53.5t46.5 -18.5q18 0 40.5 8t53.5 22zM75 664
q0 26 17 44t45 18t45 -18t17 -44t-17 -44.5t-45 -18.5t-45 18.5t-17 44.5zM278 664q0 26 17 44t45 18t45 -18t17 -44t-17 -44.5t-45 -18.5t-45 18.5t-17 44.5z" />
    <glyph glyph-name="aring" unicode="&#xe5;" horiz-adv-x="493" 
d="M383 -10q-66 0 -83 66q-71 -68 -145 -68q-51 0 -86.5 30.5t-35.5 84.5q0 132 269 166q0 24 0.5 49t0.5 53q0 35 -25.5 54.5t-61.5 19.5q-26 0 -44 -8q0 -23 -10 -47t-27.5 -40.5t-42.5 -16.5q-22 0 -34.5 12.5t-12.5 30.5q0 24 22.5 45.5t57.5 37t73 24.5t68 9
q37 0 68.5 -13.5t51 -40t19.5 -65.5q0 -24 -1 -62.5t-1.5 -82t-1.5 -82.5t-1 -63q0 -32 28 -32q18 0 55 12q4 -5 5.5 -11t2.5 -11q-25 -27 -52.5 -39t-55.5 -12zM300 83l2 150q-92 -12 -126.5 -39t-34.5 -69q0 -35 18.5 -53.5t46.5 -18.5q18 0 40.5 8t53.5 22zM119 638
q0 50 35.5 76t84.5 26q50 0 85 -24.5t35 -75.5q0 -46 -36 -74t-84 -28q-49 0 -84.5 25.5t-35.5 74.5zM239 711q-27 0 -42 -19t-15 -52q0 -31 15 -51t42 -20t42 19t15 50q0 32 -15.5 52.5t-41.5 20.5z" />
    <glyph glyph-name="ae" unicode="&#xe6;" horiz-adv-x="743" 
d="M698 274l-307 3v-5q0 -54 16 -102.5t52.5 -79t98.5 -30.5q65 0 130 44q10 -12 15 -23q-82 -93 -192 -93q-111 0 -169 88q-45 -44 -91.5 -66t-90.5 -22q-54 0 -89.5 30.5t-35.5 83.5q0 68 65 109t198 58v2q0 25 0.5 50t0.5 50q0 35 -24 54.5t-59 19.5q-26 0 -42 -8
q0 -24 -10 -48t-28 -40t-42 -16q-22 0 -34.5 12.5t-12.5 30.5q0 24 22.5 45.5t56.5 37t71 24.5t67 9q36 0 66 -14t47 -40q27 26 63 40t79 14q85 0 133 -52.5t48 -135.5q0 -10 -0.5 -17.5t-1.5 -12.5zM329 97q-2 5 -5 11q-11 24 -18.5 53.5t-7.5 56.5v15q-87 -12 -121 -39
t-34 -69q0 -35 18 -53.5t49 -18.5q21 0 51.5 9.5t67.5 34.5zM394 314l199 4q1 2 1 5.5v4.5q0 54 -22.5 90t-67.5 36q-36 0 -59 -21.5t-35 -53.5t-16 -65z" />
    <glyph glyph-name="ccedilla" unicode="&#xe7;" horiz-adv-x="471" 
d="M434 97q10 -12 15 -23q-75 -77 -169 -85l-27 -42q50 -12 70 -37t20 -56q0 -36 -19.5 -61t-51.5 -38.5t-70 -13.5q-41 0 -59 16t-18 33q0 15 11 25.5t27 10.5q13 0 30 -11.5t28 -41.5q33 2 46 15.5t13 31.5q0 30 -28.5 48.5t-76.5 22.5l-2 5l64 93q-55 4 -96 32
q-49 33 -75.5 88t-26.5 122q0 73 30 132t84.5 94t125.5 35q37 0 75 -10.5t64 -32.5t26 -56q0 -27 -16 -41t-38 -14q-30 0 -51 27.5t-21 73.5q-18 12 -48 12q-36 0 -60.5 -18t-40 -48t-22.5 -64.5t-7 -67.5q0 -56 19 -100t56 -69.5t92 -25.5q32 0 62.5 9t64.5 30z" />
    <glyph glyph-name="egrave" unicode="&#xe8;" horiz-adv-x="497" 
d="M259 -12q-71 0 -120 33t-74.5 88.5t-25.5 122.5q0 69 26.5 128t77.5 95.5t124 36.5q88 0 137.5 -52.5t49.5 -135.5q0 -10 -0.5 -17.5t-1.5 -12.5l-315 3v-7q0 -98 45 -154t126 -56q68 0 134 44q10 -12 15 -23q-85 -93 -198 -93zM140 314l207 4q1 2 1 5.5v4.5
q0 54 -23.5 90t-69.5 36q-43 0 -75 -35t-40 -105zM136 742v4q35 6 74 6q29 0 34 -5l49 -196q-6 -2 -15 -3t-14 0z" />
    <glyph glyph-name="eacute" unicode="&#xe9;" horiz-adv-x="497" 
d="M259 -12q-71 0 -120 33t-74.5 88.5t-25.5 122.5q0 69 26.5 128t77.5 95.5t124 36.5q88 0 137.5 -52.5t49.5 -135.5q0 -10 -0.5 -17.5t-1.5 -12.5l-315 3v-7q0 -98 45 -154t126 -56q68 0 134 44q10 -12 15 -23q-85 -93 -198 -93zM140 314l207 4q1 2 1 5.5v4.5
q0 54 -23.5 90t-69.5 36q-43 0 -75 -35t-40 -105zM382 746v-4l-128 -194q-5 -1 -14 0t-15 3l49 196q5 5 34 5q40 0 74 -6z" />
    <glyph glyph-name="ecircumflex" unicode="&#xea;" horiz-adv-x="497" 
d="M259 -12q-71 0 -120 33t-74.5 88.5t-25.5 122.5q0 69 26.5 128t77.5 95.5t124 36.5q88 0 137.5 -52.5t49.5 -135.5q0 -10 -0.5 -17.5t-1.5 -12.5l-315 3v-7q0 -98 45 -154t126 -56q68 0 134 44q10 -12 15 -23q-85 -93 -198 -93zM140 314l207 4q1 2 1 5.5v4.5
q0 54 -23.5 90t-69.5 36q-43 0 -75 -35t-40 -105zM258 671q-30 -29 -63 -60t-68 -63q-7 2 -14.5 5t-14.5 8q29 41 61.5 93t55.5 94q10 2 21 3t23 1t23 -1t21 -3q23 -42 55.5 -94t60.5 -93q-12 -10 -29 -13q-36 32 -69 63t-63 60z" />
    <glyph glyph-name="edieresis" unicode="&#xeb;" horiz-adv-x="497" 
d="M259 -12q-71 0 -120 33t-74.5 88.5t-25.5 122.5q0 69 26.5 128t77.5 95.5t124 36.5q88 0 137.5 -52.5t49.5 -135.5q0 -10 -0.5 -17.5t-1.5 -12.5l-315 3v-7q0 -98 45 -154t126 -56q68 0 134 44q10 -12 15 -23q-85 -93 -198 -93zM140 314l207 4q1 2 1 5.5v4.5
q0 54 -23.5 90t-69.5 36q-43 0 -75 -35t-40 -105zM95 664q0 26 17 44t45 18t45 -18t17 -44t-17 -44.5t-45 -18.5t-45 18.5t-17 44.5zM298 664q0 26 17 44t45 18t45 -18t17 -44t-17 -44.5t-45 -18.5t-45 18.5t-17 44.5z" />
    <glyph glyph-name="igrave" unicode="&#xec;" horiz-adv-x="298" 
d="M277 -1q-28 0 -57 1t-64 1q-32 0 -65.5 -1t-63.5 -1q-3 16 0 31q34 2 50 6.5t21 19.5t5 48v224q0 39 -3 58t-18 26.5t-52 12.5q-3 14 0 26q42 8 82 20.5t77 25.5l17 -6q-1 -31 -1.5 -58t-0.5 -51v-268q0 -39 4.5 -56t20 -21.5t48.5 -6.5q3 -15 0 -31zM21 742v4q35 6 74 6
q29 0 34 -5l49 -196q-6 -2 -15 -3t-14 0z" />
    <glyph glyph-name="iacute" unicode="&#xed;" horiz-adv-x="298" 
d="M277 -1q-28 0 -57 1t-64 1q-32 0 -65.5 -1t-63.5 -1q-3 16 0 31q34 2 50 6.5t21 19.5t5 48v224q0 39 -3 58t-18 26.5t-52 12.5q-3 14 0 26q42 8 82 20.5t77 25.5l17 -6q-1 -31 -1.5 -58t-0.5 -51v-268q0 -39 4.5 -56t20 -21.5t48.5 -6.5q3 -15 0 -31zM267 746v-4
l-128 -194q-5 -1 -14 0t-15 3l49 196q5 5 34 5q40 0 74 -6z" />
    <glyph glyph-name="icircumflex" unicode="&#xee;" horiz-adv-x="298" 
d="M277 -1q-28 0 -57 1t-64 1q-32 0 -65.5 -1t-63.5 -1q-3 16 0 31q34 2 50 6.5t21 19.5t5 48v224q0 39 -3 58t-18 26.5t-52 12.5q-3 14 0 26q42 8 82 20.5t77 25.5l17 -6q-1 -31 -1.5 -58t-0.5 -51v-268q0 -39 4.5 -56t20 -21.5t48.5 -6.5q3 -15 0 -31zM143 671
q-30 -29 -63 -60t-68 -63q-7 2 -14.5 5t-14.5 8q29 41 61.5 93t55.5 94q10 2 21 3t23 1t23 -1t21 -3q23 -42 55.5 -94t60.5 -93q-12 -10 -29 -13q-36 32 -69 63t-63 60z" />
    <glyph glyph-name="idieresis" unicode="&#xef;" horiz-adv-x="298" 
d="M277 -1q-28 0 -57 1t-64 1q-32 0 -65.5 -1t-63.5 -1q-3 16 0 31q34 2 50 6.5t21 19.5t5 48v224q0 39 -3 58t-18 26.5t-52 12.5q-3 14 0 26q42 8 82 20.5t77 25.5l17 -6q-1 -31 -1.5 -58t-0.5 -51v-268q0 -39 4.5 -56t20 -21.5t48.5 -6.5q3 -15 0 -31zM-20 664q0 26 17 44
t45 18t45 -18t17 -44t-17 -44.5t-45 -18.5t-45 18.5t-17 44.5zM183 664q0 26 17 44t45 18t45 -18t17 -44t-17 -44.5t-45 -18.5t-45 18.5t-17 44.5z" />
    <glyph glyph-name="eth" unicode="&#xf0;" horiz-adv-x="567" 
d="M273 -11q-71 0 -123.5 31t-81.5 85.5t-29 124.5q0 69 27.5 126t77.5 90.5t117 33.5q34 0 64.5 -9.5t65.5 -29.5q-15 52 -40 93t-56 80l-116 -76q-7 8 -13.5 17t-12.5 17l114 74q-16 17 -40.5 38t-49.5 39q5 9 11.5 17.5t14.5 15.5q27 -16 45.5 -28t33.5 -23.5t34 -26.5
l114 77q17 -17 26 -35l-106 -71q49 -47 88 -106.5t62 -127t23 -135.5q0 -76 -27.5 -142.5t-83 -107.5t-139.5 -41zM405 383q-40 25 -68.5 36t-56.5 11q-62 0 -95.5 -48.5t-33.5 -136.5q0 -35 6.5 -73t21.5 -71t40.5 -53.5t64.5 -20.5q40 0 65.5 22t40 57t20 76t5.5 79
q0 67 -10 122z" />
    <glyph glyph-name="ntilde" unicode="&#xf1;" horiz-adv-x="603" 
d="M340 -1q-2 16 0 31q31 2 46 6.5t20 19.5t5 48v202q0 60 -18.5 89.5t-73.5 29.5q-29 0 -56 -10.5t-59 -39.5v-261q0 -39 4.5 -56t19.5 -21.5t47 -6.5q2 -15 0 -31q-28 0 -58.5 1t-65.5 1q-32 0 -63 -1t-61 -1q-3 16 0 31q34 2 50 6.5t21 19.5t5 48v224q0 39 -3.5 58
t-19 26.5t-52.5 12.5q-3 14 0 26q86 17 158 46l17 -6v-75q46 42 90 59t84 17q66 0 101 -39t35 -112v-227q0 -39 4.5 -56t19.5 -21.5t48 -6.5q2 -15 0 -31q-30 0 -58.5 1t-66.5 1q-37 0 -64.5 -1t-55.5 -1zM452 726q9 -2 17 -5t15 -6q-20 -60 -51 -92.5t-71 -32.5
q-13 0 -29 5t-36 17q-18 11 -35.5 20.5t-36.5 9.5q-36 0 -60 -58q-14 3 -32 11q22 58 53 91t71 33q13 0 28.5 -5t35.5 -17q18 -10 36.5 -20.5t35.5 -10.5q35 0 59 60z" />
    <glyph glyph-name="ograve" unicode="&#xf2;" horiz-adv-x="571" 
d="M281 -12q-73 0 -127.5 31.5t-84.5 87t-30 127.5q0 78 31.5 136t88.5 90t131 32q73 0 127 -32t84 -88t30 -127q0 -73 -31.5 -131.5t-87.5 -92t-131 -33.5zM152 246q0 -102 33.5 -161.5t100.5 -59.5q64 0 98 56.5t34 151.5q0 101 -34 161t-99 60q-64 0 -98.5 -55
t-34.5 -153zM162 742v4q35 6 74 6q29 0 34 -5l49 -196q-6 -2 -15 -3t-14 0z" />
    <glyph glyph-name="oacute" unicode="&#xf3;" horiz-adv-x="571" 
d="M281 -12q-73 0 -127.5 31.5t-84.5 87t-30 127.5q0 78 31.5 136t88.5 90t131 32q73 0 127 -32t84 -88t30 -127q0 -73 -31.5 -131.5t-87.5 -92t-131 -33.5zM152 246q0 -102 33.5 -161.5t100.5 -59.5q64 0 98 56.5t34 151.5q0 101 -34 161t-99 60q-64 0 -98.5 -55
t-34.5 -153zM408 746v-4l-128 -194q-5 -1 -14 0t-15 3l49 196q5 5 34 5q40 0 74 -6z" />
    <glyph glyph-name="ocircumflex" unicode="&#xf4;" horiz-adv-x="571" 
d="M281 -12q-73 0 -127.5 31.5t-84.5 87t-30 127.5q0 78 31.5 136t88.5 90t131 32q73 0 127 -32t84 -88t30 -127q0 -73 -31.5 -131.5t-87.5 -92t-131 -33.5zM152 246q0 -102 33.5 -161.5t100.5 -59.5q64 0 98 56.5t34 151.5q0 101 -34 161t-99 60q-64 0 -98.5 -55
t-34.5 -153zM284 671q-30 -29 -63 -60t-68 -63q-7 2 -14.5 5t-14.5 8q29 41 61.5 93t55.5 94q10 2 21 3t23 1t23 -1t21 -3q23 -42 55.5 -94t60.5 -93q-12 -10 -29 -13q-36 32 -69 63t-63 60z" />
    <glyph glyph-name="otilde" unicode="&#xf5;" horiz-adv-x="571" 
d="M281 -12q-73 0 -127.5 31.5t-84.5 87t-30 127.5q0 78 31.5 136t88.5 90t131 32q73 0 127 -32t84 -88t30 -127q0 -73 -31.5 -131.5t-87.5 -92t-131 -33.5zM152 246q0 -102 33.5 -161.5t100.5 -59.5q64 0 98 56.5t34 151.5q0 101 -34 161t-99 60q-64 0 -98.5 -55
t-34.5 -153zM433 726q9 -2 17 -5t15 -6q-20 -60 -51 -92.5t-71 -32.5q-13 0 -29 5t-36 17q-18 11 -35.5 20.5t-36.5 9.5q-36 0 -60 -58q-14 3 -32 11q22 58 53 91t71 33q13 0 28.5 -5t35.5 -17q18 -10 36.5 -20.5t35.5 -10.5q35 0 59 60z" />
    <glyph glyph-name="odieresis" unicode="&#xf6;" horiz-adv-x="571" 
d="M281 -12q-73 0 -127.5 31.5t-84.5 87t-30 127.5q0 78 31.5 136t88.5 90t131 32q73 0 127 -32t84 -88t30 -127q0 -73 -31.5 -131.5t-87.5 -92t-131 -33.5zM152 246q0 -102 33.5 -161.5t100.5 -59.5q64 0 98 56.5t34 151.5q0 101 -34 161t-99 60q-64 0 -98.5 -55
t-34.5 -153zM121 664q0 26 17 44t45 18t45 -18t17 -44t-17 -44.5t-45 -18.5t-45 18.5t-17 44.5zM324 664q0 26 17 44t45 18t45 -18t17 -44t-17 -44.5t-45 -18.5t-45 18.5t-17 44.5z" />
    <glyph glyph-name="divide" unicode="&#xf7;" horiz-adv-x="581" 
d="M52 266h477q2 -28 0 -55h-477q-4 27 0 55zM234 75q0 22 16.5 38t38.5 16q25 0 40.5 -16.5t15.5 -37.5q0 -22 -15.5 -38.5t-40.5 -16.5q-22 0 -38.5 16t-16.5 39zM234 402q0 23 16.5 39t38.5 16q25 0 40.5 -16.5t15.5 -38.5q0 -21 -15.5 -37.5t-40.5 -16.5q-22 0 -38.5 16
t-16.5 38z" />
    <glyph glyph-name="oslash" unicode="&#xf8;" horiz-adv-x="571" 
d="M535 470l-59 -61q55 -67 55 -164q0 -73 -31.5 -131.5t-87.5 -92t-131 -33.5q-49 0 -89.5 14t-71.5 40l-57 -59q-7 7 -15 13.5t-14 13.5l59 61q-54 65 -54 163q0 78 31.5 136t88.5 90t131 32q47 0 87 -14.5t71 -39.5l58 60q17 -11 29 -28zM286 25q64 0 98 56.5t34 151.5
q0 59 -12 104l-229 -236q17 -37 44 -56.5t65 -19.5zM163 143l229 237q-17 35 -44 54.5t-63 19.5q-64 0 -98.5 -55t-34.5 -153q0 -58 11 -103z" />
    <glyph glyph-name="ugrave" unicode="&#xf9;" horiz-adv-x="583" 
d="M226 -12q-65 0 -100.5 38.5t-35.5 111.5v202q0 39 -3.5 58t-19 27t-52.5 13q-5 13 0 25q43 6 82.5 13t79.5 17l15 -7q-1 -31 -1.5 -58.5t-0.5 -51.5v-202q0 -60 18.5 -89.5t72.5 -29.5q30 0 56.5 13.5t50.5 39.5v232q0 39 -3.5 58t-19 27t-52.5 13q-3 13 0 25
q43 6 82.5 13t80.5 17l15 -7q-1 -31 -1.5 -58.5t-0.5 -51.5v-259q0 -30 3.5 -45t20 -21.5t54.5 -10.5q1 -12 0 -25q-43 -4 -82 -10t-76 -15l-16 7l-2 70q-83 -79 -165 -79zM161 742v4q35 6 74 6q29 0 34 -5l49 -196q-6 -2 -15 -3t-14 0z" />
    <glyph glyph-name="uacute" unicode="&#xfa;" horiz-adv-x="583" 
d="M226 -12q-65 0 -100.5 38.5t-35.5 111.5v202q0 39 -3.5 58t-19 27t-52.5 13q-5 13 0 25q43 6 82.5 13t79.5 17l15 -7q-1 -31 -1.5 -58.5t-0.5 -51.5v-202q0 -60 18.5 -89.5t72.5 -29.5q30 0 56.5 13.5t50.5 39.5v232q0 39 -3.5 58t-19 27t-52.5 13q-3 13 0 25
q43 6 82.5 13t80.5 17l15 -7q-1 -31 -1.5 -58.5t-0.5 -51.5v-259q0 -30 3.5 -45t20 -21.5t54.5 -10.5q1 -12 0 -25q-43 -4 -82 -10t-76 -15l-16 7l-2 70q-83 -79 -165 -79zM407 746v-4l-128 -194q-5 -1 -14 0t-15 3l49 196q5 5 34 5q40 0 74 -6z" />
    <glyph glyph-name="ucircumflex" unicode="&#xfb;" horiz-adv-x="583" 
d="M226 -12q-65 0 -100.5 38.5t-35.5 111.5v202q0 39 -3.5 58t-19 27t-52.5 13q-5 13 0 25q43 6 82.5 13t79.5 17l15 -7q-1 -31 -1.5 -58.5t-0.5 -51.5v-202q0 -60 18.5 -89.5t72.5 -29.5q30 0 56.5 13.5t50.5 39.5v232q0 39 -3.5 58t-19 27t-52.5 13q-3 13 0 25
q43 6 82.5 13t80.5 17l15 -7q-1 -31 -1.5 -58.5t-0.5 -51.5v-259q0 -30 3.5 -45t20 -21.5t54.5 -10.5q1 -12 0 -25q-43 -4 -82 -10t-76 -15l-16 7l-2 70q-83 -79 -165 -79zM283 671q-30 -29 -63 -60t-68 -63q-7 2 -14.5 5t-14.5 8q29 41 61.5 93t55.5 94q10 2 21 3t23 1
t23 -1t21 -3q23 -42 55.5 -94t60.5 -93q-12 -10 -29 -13q-36 32 -69 63t-63 60z" />
    <glyph glyph-name="udieresis" unicode="&#xfc;" horiz-adv-x="583" 
d="M226 -12q-65 0 -100.5 38.5t-35.5 111.5v202q0 39 -3.5 58t-19 27t-52.5 13q-5 13 0 25q43 6 82.5 13t79.5 17l15 -7q-1 -31 -1.5 -58.5t-0.5 -51.5v-202q0 -60 18.5 -89.5t72.5 -29.5q30 0 56.5 13.5t50.5 39.5v232q0 39 -3.5 58t-19 27t-52.5 13q-3 13 0 25
q43 6 82.5 13t80.5 17l15 -7q-1 -31 -1.5 -58.5t-0.5 -51.5v-259q0 -30 3.5 -45t20 -21.5t54.5 -10.5q1 -12 0 -25q-43 -4 -82 -10t-76 -15l-16 7l-2 70q-83 -79 -165 -79zM120 664q0 26 17 44t45 18t45 -18t17 -44t-17 -44.5t-45 -18.5t-45 18.5t-17 44.5zM323 664
q0 26 17 44t45 18t45 -18t17 -44t-17 -44.5t-45 -18.5t-45 18.5t-17 44.5z" />
    <glyph glyph-name="yacute" unicode="&#xfd;" horiz-adv-x="499" 
d="M94 -255q-27 0 -41.5 15.5t-14.5 36.5q0 28 30 54.5t98 26.5q13 23 25.5 49.5t29.5 65.5q-11 28 -28 72t-38.5 97.5t-43.5 111t-43 111.5q-12 32 -26.5 44t-55.5 16q-3 14 0 31q29 0 59 -1t62 -1q29 0 63 1t58 1q2 -15 0 -31q-34 -2 -47.5 -7t-13.5 -20q0 -14 10 -43
q26 -71 50.5 -131t49.5 -123q32 73 56.5 131t49.5 121q11 29 11 43t-15 20t-53 9q-3 16 0 31q25 0 51.5 -1t56.5 -1q20 0 43.5 1t42.5 1q3 -15 0 -31q-42 -3 -57 -18.5t-28 -46.5l-171 -399q-5 -12 -18 -40.5t-27.5 -59t-24.5 -50.5q-25 -49 -49 -67.5t-51 -18.5zM392 746
v-4l-128 -194q-5 -1 -14 0t-15 3l49 196q5 5 34 5q40 0 74 -6z" />
    <glyph glyph-name="thorn" unicode="&#xfe;" horiz-adv-x="580" 
d="M9 -247q0 2 -0.5 4t-0.5 4v16q0 2 0.5 4t0.5 4q35 2 51 6.5t20.5 19.5t4.5 47v747q0 31 -6 46.5t-23.5 22t-52.5 9.5q-3 13 0 27q40 5 82 15.5t86 29.5l17 -6q-1 -22 -1.5 -50t-0.5 -61v-214q38 36 77 52t79 16q63 0 107 -34t67.5 -87.5t23.5 -114.5q0 -72 -32 -132
t-89.5 -95.5t-134.5 -35.5q-23 0 -49.5 4t-48.5 11v-138q0 -39 5.5 -56.5t26 -22t63.5 -6.5q0 -4 0.5 -7t0.5 -8q0 -4 -0.5 -8t-0.5 -9q-34 0 -69 1t-75 1t-68.5 -1t-59.5 -1zM186 88q44 -58 111 -58q51 0 81.5 27t44 71t13.5 94t-13.5 97.5t-44 79t-83.5 31.5
q-60 0 -109 -48v-294z" />
    <glyph glyph-name="ydieresis" unicode="&#xff;" horiz-adv-x="499" 
d="M94 -255q-27 0 -41.5 15.5t-14.5 36.5q0 28 30 54.5t98 26.5q13 23 25.5 49.5t29.5 65.5q-11 28 -28 72t-38.5 97.5t-43.5 111t-43 111.5q-12 32 -26.5 44t-55.5 16q-3 14 0 31q29 0 59 -1t62 -1q29 0 63 1t58 1q2 -15 0 -31q-34 -2 -47.5 -7t-13.5 -20q0 -14 10 -43
q26 -71 50.5 -131t49.5 -123q32 73 56.5 131t49.5 121q11 29 11 43t-15 20t-53 9q-3 16 0 31q25 0 51.5 -1t56.5 -1q20 0 43.5 1t42.5 1q3 -15 0 -31q-42 -3 -57 -18.5t-28 -46.5l-171 -399q-5 -12 -18 -40.5t-27.5 -59t-24.5 -50.5q-25 -49 -49 -67.5t-51 -18.5zM105 664
q0 26 17 44t45 18t45 -18t17 -44t-17 -44.5t-45 -18.5t-45 18.5t-17 44.5zM308 664q0 26 17 44t45 18t45 -18t17 -44t-17 -44.5t-45 -18.5t-45 18.5t-17 44.5z" />
    <glyph glyph-name="Amacron" unicode="&#x100;" horiz-adv-x="679" 
d="M-22 -1q-2 16 0 32q28 3 45 7t29 14.5t23 32t26 60.5l216 554q11 4 26.5 6t26.5 2l215 -571q14 -36 23 -56.5t20 -29.5t28 -12.5t47 -6.5q2 -16 0 -32q-35 0 -72 1t-74 1q-38 0 -76.5 -1t-76.5 -1q-3 15 0 32q49 5 68 9.5t19 23.5q0 8 -3 18t-8 25l-57 154h-225l-50 -138
q-7 -19 -10.5 -31.5t-3.5 -22.5q0 -22 20.5 -27.5t67.5 -10.5q2 -17 0 -32q-34 0 -67 1t-67 1q-28 0 -54 -1t-56 -1zM213 303h195l-98 266zM195 823h288q3 -24 0 -48h-288q-3 24 0 48z" />
    <glyph glyph-name="amacron" unicode="&#x101;" horiz-adv-x="493" 
d="M383 -10q-66 0 -83 66q-71 -68 -145 -68q-51 0 -86.5 30.5t-35.5 84.5q0 132 269 166q0 24 0.5 49t0.5 53q0 35 -25.5 54.5t-61.5 19.5q-26 0 -44 -8q0 -23 -10 -47t-27.5 -40.5t-42.5 -16.5q-22 0 -34.5 12.5t-12.5 30.5q0 24 22.5 45.5t57.5 37t73 24.5t68 9
q37 0 68.5 -13.5t51 -40t19.5 -65.5q0 -24 -1 -62.5t-1.5 -82t-1.5 -82.5t-1 -63q0 -32 28 -32q18 0 55 12q4 -5 5.5 -11t2.5 -11q-25 -27 -52.5 -39t-55.5 -12zM300 83l2 150q-92 -12 -126.5 -39t-34.5 -69q0 -35 18.5 -53.5t46.5 -18.5q18 0 40.5 8t53.5 22zM98 661h282
q3 -25 0 -50h-282q-3 25 0 50z" />
    <glyph glyph-name="Abreve" unicode="&#x102;" horiz-adv-x="679" 
d="M-22 -1q-2 16 0 32q28 3 45 7t29 14.5t23 32t26 60.5l216 554q11 4 26.5 6t26.5 2l215 -571q14 -36 23 -56.5t20 -29.5t28 -12.5t47 -6.5q2 -16 0 -32q-35 0 -72 1t-74 1q-38 0 -76.5 -1t-76.5 -1q-3 15 0 32q49 5 68 9.5t19 23.5q0 8 -3 18t-8 25l-57 154h-225l-50 -138
q-7 -19 -10.5 -31.5t-3.5 -22.5q0 -22 20.5 -27.5t67.5 -10.5q2 -17 0 -32q-34 0 -67 1t-67 1q-28 0 -54 -1t-56 -1zM213 303h195l-98 266zM216 914q14 -49 44 -70.5t79 -21.5q50 0 80.5 21.5t44.5 70.5q8 -1 16 -3l16 -4q-10 -78 -52 -121t-104 -43t-104 43t-53 121
q14 4 33 7z" />
    <glyph glyph-name="abreve" unicode="&#x103;" horiz-adv-x="493" 
d="M383 -10q-66 0 -83 66q-71 -68 -145 -68q-51 0 -86.5 30.5t-35.5 84.5q0 132 269 166q0 24 0.5 49t0.5 53q0 35 -25.5 54.5t-61.5 19.5q-26 0 -44 -8q0 -23 -10 -47t-27.5 -40.5t-42.5 -16.5q-22 0 -34.5 12.5t-12.5 30.5q0 24 22.5 45.5t57.5 37t73 24.5t68 9
q37 0 68.5 -13.5t51 -40t19.5 -65.5q0 -24 -1 -62.5t-1.5 -82t-1.5 -82.5t-1 -63q0 -32 28 -32q18 0 55 12q4 -5 5.5 -11t2.5 -11q-25 -27 -52.5 -39t-55.5 -12zM300 83l2 150q-92 -12 -126.5 -39t-34.5 -69q0 -35 18.5 -53.5t46.5 -18.5q18 0 40.5 8t53.5 22zM123 742
q11 -64 41 -91.5t76 -27.5q49 0 79.5 29.5t38.5 89.5q18 -2 30 -7q-8 -94 -46.5 -143.5t-102.5 -49.5t-100.5 49.5t-45.5 143.5q12 5 30 7z" />
    <glyph glyph-name="Ccircumflex" unicode="&#x108;" horiz-adv-x="721" 
d="M666 207q-12 -88 -18 -179q-55 -16 -112 -29t-122 -13q-111 0 -192.5 44t-126.5 123.5t-45 187.5q0 109 45 192.5t127 130.5t193 47q41 0 72 -5t75 -15q20 -4 35 -8t31 -4q5 0 11 0.5t10 1.5q2 -44 4 -91t6 -98q-20 -3 -34 -2q-39 181 -205 181q-67 0 -114 -26.5t-76 -72
t-42 -102.5t-13 -119q0 -88 26 -162t82 -118t144 -44q83 0 132.5 44t71.5 137h16.5t18.5 -1zM413 826q-31 -23 -66 -46t-73 -45q-17 3 -28 13q21 21 44.5 49.5t46 57t38.5 49.5q8 2 18.5 3t20.5 1q9 0 19.5 -1t18.5 -3q17 -21 39.5 -49.5t46.5 -57t44 -49.5q-12 -9 -28 -13
q-38 22 -73.5 44.5t-67.5 46.5z" />
    <glyph glyph-name="ccircumflex" unicode="&#x109;" horiz-adv-x="471" 
d="M434 97q10 -12 15 -23q-83 -86 -190 -86q-69 0 -118 33t-75.5 88t-26.5 122q0 73 30 132t84.5 94t125.5 35q37 0 75 -10.5t64 -32.5t26 -56q0 -27 -16 -41t-38 -14q-30 0 -51 27.5t-21 73.5q-18 12 -48 12q-36 0 -60.5 -18t-40 -48t-22.5 -64.5t-7 -67.5q0 -56 19 -100
t56 -69.5t92 -25.5q32 0 62.5 9t64.5 30zM273 671q-30 -29 -63 -60t-68 -63q-7 2 -14.5 5t-14.5 8q29 41 61.5 93t55.5 94q10 2 21 3t23 1t23 -1t21 -3q23 -42 55.5 -94t60.5 -93q-12 -10 -29 -13q-36 32 -69 63t-63 60z" />
    <glyph glyph-name="Ccaron" unicode="&#x10c;" horiz-adv-x="721" 
d="M666 207q-12 -88 -18 -179q-55 -16 -112 -29t-122 -13q-111 0 -192.5 44t-126.5 123.5t-45 187.5q0 109 45 192.5t127 130.5t193 47q41 0 72 -5t75 -15q20 -4 35 -8t31 -4q5 0 11 0.5t10 1.5q2 -44 4 -91t6 -98q-20 -3 -34 -2q-39 181 -205 181q-67 0 -114 -26.5t-76 -72
t-42 -102.5t-13 -119q0 -88 26 -162t82 -118t144 -44q83 0 132.5 44t71.5 137h16.5t18.5 -1zM415 817q31 23 66 46t73 45q17 -3 28 -13q-20 -21 -44 -49.5t-46.5 -57t-38.5 -49.5q-7 -2 -17.5 -3t-21.5 -1q-9 0 -19.5 1t-18.5 3q-16 21 -39 49.5t-46.5 57t-44.5 49.5
q12 9 28 13q38 -22 73.5 -44.5t67.5 -46.5z" />
    <glyph glyph-name="ccaron" unicode="&#x10d;" horiz-adv-x="471" 
d="M434 97q10 -12 15 -23q-83 -86 -190 -86q-69 0 -118 33t-75.5 88t-26.5 122q0 73 30 132t84.5 94t125.5 35q37 0 75 -10.5t64 -32.5t26 -56q0 -27 -16 -41t-38 -14q-30 0 -51 27.5t-21 73.5q-18 12 -48 12q-36 0 -60.5 -18t-40 -48t-22.5 -64.5t-7 -67.5q0 -56 19 -100
t56 -69.5t92 -25.5q32 0 62.5 9t64.5 30zM274 629q30 29 63 60t68 63q7 -1 14.5 -4.5t14.5 -8.5q-29 -41 -61.5 -93t-55.5 -94q-10 -2 -21 -3t-23 -1t-23 1t-21 3q-23 42 -55 94t-61 93q12 10 29 13q36 -32 69 -63t63 -60z" />
    <glyph glyph-name="Emacron" unicode="&#x112;" horiz-adv-x="640" 
d="M33 -1q-2 15 0 32q47 5 67 9.5t25 20t5 50.5v465q0 42 -5 60t-25.5 23.5t-66.5 9.5q-2 15 0 32q26 0 45.5 -0.5t39.5 -0.5t48 -0.5t71 -0.5q79 0 148 0.5t115 1t54 0.5q4 -37 9.5 -76t12.5 -83q-17 -2 -33 0q-12 30 -28 53t-33 35q-19 14 -45.5 21t-65.5 7h-131v-273h55
q48 0 73 6.5t37 29t19 71.5q18 3 34 0q-1 -44 -1.5 -67.5t-0.5 -34.5v-18v-10l2 -132q-15 -3 -34 0q-6 53 -18 76t-35.5 29t-66.5 6h-64v-217q0 -34 0.5 -54.5t1.5 -26.5h137q50 0 80.5 8.5t50.5 25.5q14 11 33 38.5t36 63.5q16 2 31 0q-10 -56 -17 -101t-12 -78h-98
t-106 0.5t-96.5 0.5h-69.5q-47 0 -76.5 -0.5t-52 -1t-49.5 -0.5zM180 823h288q3 -24 0 -48h-288q-3 24 0 48z" />
    <glyph glyph-name="emacron" unicode="&#x113;" horiz-adv-x="497" 
d="M259 -12q-71 0 -120 33t-74.5 88.5t-25.5 122.5q0 69 26.5 128t77.5 95.5t124 36.5q88 0 137.5 -52.5t49.5 -135.5q0 -10 -0.5 -17.5t-1.5 -12.5l-315 3v-7q0 -98 45 -154t126 -56q68 0 134 44q10 -12 15 -23q-85 -93 -198 -93zM140 314l207 4q1 2 1 5.5v4.5
q0 54 -23.5 90t-69.5 36q-43 0 -75 -35t-40 -105zM118 661h282q3 -25 0 -50h-282q-3 25 0 50z" />
    <glyph glyph-name="Ebreve" unicode="&#x114;" horiz-adv-x="640" 
d="M33 -1q-2 15 0 32q47 5 67 9.5t25 20t5 50.5v465q0 42 -5 60t-25.5 23.5t-66.5 9.5q-2 15 0 32q26 0 45.5 -0.5t39.5 -0.5t48 -0.5t71 -0.5q79 0 148 0.5t115 1t54 0.5q4 -37 9.5 -76t12.5 -83q-17 -2 -33 0q-12 30 -28 53t-33 35q-19 14 -45.5 21t-65.5 7h-131v-273h55
q48 0 73 6.5t37 29t19 71.5q18 3 34 0q-1 -44 -1.5 -67.5t-0.5 -34.5v-18v-10l2 -132q-15 -3 -34 0q-6 53 -18 76t-35.5 29t-66.5 6h-64v-217q0 -34 0.5 -54.5t1.5 -26.5h137q50 0 80.5 8.5t50.5 25.5q14 11 33 38.5t36 63.5q16 2 31 0q-10 -56 -17 -101t-12 -78h-98
t-106 0.5t-96.5 0.5h-69.5q-47 0 -76.5 -0.5t-52 -1t-49.5 -0.5zM201 914q14 -49 44 -70.5t79 -21.5q50 0 80.5 21.5t44.5 70.5q8 -1 16 -3l16 -4q-10 -78 -52 -121t-104 -43t-104 43t-53 121q14 4 33 7z" />
    <glyph glyph-name="ebreve" unicode="&#x115;" horiz-adv-x="497" 
d="M259 -12q-71 0 -120 33t-74.5 88.5t-25.5 122.5q0 69 26.5 128t77.5 95.5t124 36.5q88 0 137.5 -52.5t49.5 -135.5q0 -10 -0.5 -17.5t-1.5 -12.5l-315 3v-7q0 -98 45 -154t126 -56q68 0 134 44q10 -12 15 -23q-85 -93 -198 -93zM140 314l207 4q1 2 1 5.5v4.5
q0 54 -23.5 90t-69.5 36q-43 0 -75 -35t-40 -105zM143 742q11 -64 41 -91.5t76 -27.5q49 0 79.5 29.5t38.5 89.5q18 -2 30 -7q-8 -94 -46.5 -143.5t-102.5 -49.5t-100.5 49.5t-45.5 143.5q12 5 30 7z" />
    <glyph glyph-name="Gdotaccent" unicode="&#x120;" horiz-adv-x="788" 
d="M424 -15q-113 0 -197 42t-130.5 122t-46.5 192t46.5 195t131 129t198.5 46q38 0 81 -5.5t74 -14.5q19 -5 35 -9t32 -4q12 0 24 3q2 -44 4 -91t6 -98q-21 -3 -35 -2q-20 92 -73 136.5t-141 44.5q-70 0 -119.5 -25.5t-80 -69.5t-44.5 -101.5t-14 -122.5q0 -95 29 -168
t88.5 -114.5t149.5 -41.5q28 0 62 5.5t65 17.5v126q0 31 -2.5 48.5t-13 25.5t-33 11.5t-61.5 6.5q-3 16 0 32q21 0 51 -0.5t60.5 -1t50.5 -0.5q31 0 71.5 1t69.5 1q2 -15 0 -31q-41 -5 -59 -10t-22 -20t-4 -51v-32q0 -47 2.5 -79t4.5 -46q-139 -47 -260 -47zM355 816
q0 28 20.5 48t48.5 20q27 0 47.5 -20t20.5 -47q0 -25 -20 -46.5t-50 -21.5q-28 0 -47.5 20t-19.5 47z" />
    <glyph glyph-name="gdotaccent" unicode="&#x121;" horiz-adv-x="548" 
d="M223 -255q-88 0 -142 31t-54 86q0 43 30 71t74 56q-39 9 -59 31.5t-20 53.5q0 54 79 109q-33 21 -53 54.5t-20 77.5q0 55 28.5 94.5t75 61t99.5 21.5q78 0 130 -43q54 43 106 43q26 0 41 -11.5t15 -33.5t-14 -35t-34 -13q-19 0 -32.5 11.5t-17.5 32.5q-14 -3 -22.5 -7
t-19.5 -11q34 -43 34 -102q0 -55 -27 -93.5t-71.5 -59t-97.5 -20.5q-50 0 -93 18q-25 -25 -25 -53q0 -25 19 -31.5t70 -6.5q23 0 55 0.5t47 0.5q100 0 144 -35.5t44 -97.5q0 -49 -24 -86.5t-65 -63t-92.5 -38t-107.5 -12.5zM174 -16q-54 -45 -54 -95q0 -35 21 -57t55 -32
t72 -10q34 0 71 10t63 35.5t26 71.5q0 42 -29.5 60t-109.5 18q-19 0 -47 -0.5t-62 -0.5h-6zM253 185q44 0 67.5 35.5t23.5 98.5q0 64 -24 101t-70 37q-43 0 -66.5 -34.5t-23.5 -97.5q0 -64 24.5 -102t68.5 -38zM189 667q0 29 20.5 49t49.5 20q28 0 48.5 -20t20.5 -48
q0 -26 -20 -47.5t-51 -21.5q-28 0 -48 20t-20 48z" />
    <glyph glyph-name="Itilde" unicode="&#x128;" horiz-adv-x="370" 
d="M240 589v-465q0 -31 2 -49t11 -26t29 -11.5t57 -6.5q3 -16 0 -32q-20 0 -49 0.5t-57.5 1t-47.5 0.5t-47.5 -0.5l-57 -1t-50.5 -0.5q-3 15 0 32q48 5 69 9.5t26 19.5t5 51v465q0 42 -5 60t-26 23.5t-69 9.5q-2 15 0 32q21 0 50.5 -0.5t58.5 -1t48 -0.5t47 0.5t57 1t48 0.5
q3 -15 0 -32q-47 -4 -68 -9t-26 -20t-5 -51zM334 897q9 -2 17 -5t15 -6q-20 -60 -51 -92t-71 -32q-14 0 -30 5t-37 17q-19 11 -36.5 20.5t-37.5 9.5q-36 0 -60 -58q-14 3 -32 11q22 58 52.5 90.5t70.5 32.5q13 0 29 -5t37 -17q19 -10 37.5 -20.5t36.5 -10.5q36 0 60 60z" />
    <glyph glyph-name="itilde" unicode="&#x129;" horiz-adv-x="298" 
d="M277 -1q-28 0 -57 1t-64 1q-32 0 -65.5 -1t-63.5 -1q-3 16 0 31q34 2 50 6.5t21 19.5t5 48v224q0 39 -3 58t-18 26.5t-52 12.5q-3 14 0 26q42 8 82 20.5t77 25.5l17 -6q-1 -31 -1.5 -58t-0.5 -51v-268q0 -39 4.5 -56t20 -21.5t48.5 -6.5q3 -15 0 -31zM292 726q9 -2 17 -5
t15 -6q-20 -60 -51 -92.5t-71 -32.5q-13 0 -29 5t-36 17q-18 11 -35.5 20.5t-36.5 9.5q-36 0 -60 -58q-14 3 -32 11q22 58 53 91t71 33q13 0 28.5 -5t35.5 -17q18 -10 36.5 -20.5t35.5 -10.5q35 0 59 60z" />
    <glyph glyph-name="Imacron" unicode="&#x12a;" horiz-adv-x="370" 
d="M240 589v-465q0 -31 2 -49t11 -26t29 -11.5t57 -6.5q3 -16 0 -32q-20 0 -49 0.5t-57.5 1t-47.5 0.5t-47.5 -0.5l-57 -1t-50.5 -0.5q-3 15 0 32q48 5 69 9.5t26 19.5t5 51v465q0 42 -5 60t-26 23.5t-69 9.5q-2 15 0 32q21 0 50.5 -0.5t58.5 -1t48 -0.5t47 0.5t57 1t48 0.5
q3 -15 0 -32q-47 -4 -68 -9t-26 -20t-5 -51zM40 823h288q3 -24 0 -48h-288q-3 24 0 48z" />
    <glyph glyph-name="imacron" unicode="&#x12b;" horiz-adv-x="298" 
d="M277 -1q-28 0 -57 1t-64 1q-32 0 -65.5 -1t-63.5 -1q-3 16 0 31q34 2 50 6.5t21 19.5t5 48v224q0 39 -3 58t-18 26.5t-52 12.5q-3 14 0 26q42 8 82 20.5t77 25.5l17 -6q-1 -31 -1.5 -58t-0.5 -51v-268q0 -39 4.5 -56t20 -21.5t48.5 -6.5q3 -15 0 -31zM3 661h282
q3 -25 0 -50h-282q-3 25 0 50z" />
    <glyph glyph-name="Ibreve" unicode="&#x12c;" horiz-adv-x="370" 
d="M240 589v-465q0 -31 2 -49t11 -26t29 -11.5t57 -6.5q3 -16 0 -32q-20 0 -49 0.5t-57.5 1t-47.5 0.5t-47.5 -0.5l-57 -1t-50.5 -0.5q-3 15 0 32q48 5 69 9.5t26 19.5t5 51v465q0 42 -5 60t-26 23.5t-69 9.5q-2 15 0 32q21 0 50.5 -0.5t58.5 -1t48 -0.5t47 0.5t57 1t48 0.5
q3 -15 0 -32q-47 -4 -68 -9t-26 -20t-5 -51zM61 914q14 -49 44 -70.5t79 -21.5q50 0 80.5 21.5t44.5 70.5q8 -1 16 -3l16 -4q-10 -78 -52 -121t-104 -43t-104 43t-53 121q14 4 33 7z" />
    <glyph glyph-name="ibreve" unicode="&#x12d;" horiz-adv-x="298" 
d="M277 -1q-28 0 -57 1t-64 1q-32 0 -65.5 -1t-63.5 -1q-3 16 0 31q34 2 50 6.5t21 19.5t5 48v224q0 39 -3 58t-18 26.5t-52 12.5q-3 14 0 26q42 8 82 20.5t77 25.5l17 -6q-1 -31 -1.5 -58t-0.5 -51v-268q0 -39 4.5 -56t20 -21.5t48.5 -6.5q3 -15 0 -31zM28 742
q11 -64 41 -91.5t76 -27.5q49 0 79.5 29.5t38.5 89.5q18 -2 30 -7q-8 -94 -46.5 -143.5t-102.5 -49.5t-100.5 49.5t-45.5 143.5q12 5 30 7z" />
    <glyph glyph-name="dotlessi" unicode="&#x131;" horiz-adv-x="298" 
d="M277 -1q-28 0 -57 1t-64 1q-32 0 -65.5 -1t-63.5 -1q-3 16 0 31q34 2 50 6.5t21 19.5t5 48v224q0 39 -3 58t-18 26.5t-52 12.5q-3 14 0 26q42 8 82 20.5t77 25.5l17 -6q-1 -31 -1.5 -58t-0.5 -51v-268q0 -39 4.5 -56t20 -21.5t48.5 -6.5q3 -15 0 -31z" />
    <glyph glyph-name="Lacute" unicode="&#x139;" horiz-adv-x="614" 
d="M33 -1q-2 15 0 32q47 5 67 9.5t25 20t5 50.5v465q0 42 -5 60t-25.5 23.5t-66.5 9.5q-2 15 0 32q21 0 49.5 -0.5t56.5 -1t46 -0.5q19 0 47.5 0.5t58 1t48.5 0.5q3 -15 0 -32q-47 -4 -68 -9t-26 -20t-5 -51v-465q0 -34 0.5 -54.5t1.5 -27.5h142q83 0 123 37q33 32 69 112
q16 3 31 0q-12 -61 -19.5 -109.5t-12.5 -81.5q-97 0 -193.5 0.5t-193.5 0.5q-19 0 -48 -0.5l-58 -1t-49 -0.5zM321 844v-3q-22 -11 -55.5 -29.5t-69 -39t-62.5 -37.5q-11 6 -21 24q34 35 70 77t64 75q16 0 37.5 -21.5t36.5 -45.5z" />
    <glyph glyph-name="lacute" unicode="&#x13a;" horiz-adv-x="292" 
d="M271 -1q-29 0 -59 1t-67 1t-66 -1t-59 -1q-3 16 0 31q34 2 50 6.5t21 19.5t5 48v501q0 31 -5.5 46.5t-23 22t-52.5 9.5q-3 13 0 27q40 5 82 15.5t86 29.5l17 -6q-1 -22 -1.5 -50t-0.5 -61v-524q0 -39 4.5 -56t20 -21.5t48.5 -6.5q2 -15 0 -31zM281 874v-3
q-22 -11 -55.5 -29.5t-69 -39t-62.5 -37.5q-11 6 -21 24q34 35 70 77t64 75q16 0 37.5 -21.5t36.5 -45.5z" />
    <glyph glyph-name="Ncommaaccent" unicode="&#x145;" horiz-adv-x="793" 
d="M621 -7l-445 584v-428q0 -38 2 -58.5t12 -31.5q10 -10 31 -17t60 -11q2 -16 0 -32q-30 0 -66.5 1t-61.5 1t-61.5 -1t-65.5 -1q-3 15 0 32q36 5 56 9.5t29 14t11.5 28.5t2.5 53v410q0 40 -2.5 63t-13 34.5t-32 17t-59.5 9.5q-1 15 0 31q31 0 66 -1t70 -1h27.5t39.5 1
l406 -534v384q0 38 -1.5 59t-12.5 31q-21 22 -101 28q-3 17 0 32q19 0 45.5 -0.5t51.5 -1t41 -0.5q25 0 62 1t66 1q2 -15 0 -31q-48 -6 -69 -13.5t-26 -27.5t-5 -65v-565q-10 -2 -27 -3.5t-30 -1.5zM340 -236q46 11 67 30t21 45q0 12 -4 24q-19 -15 -41 -15
q-20 0 -34.5 13.5t-14.5 37.5q0 26 18 41.5t45 15.5q37 0 58.5 -26t21.5 -67q0 -51 -34 -84t-95 -46q-3 8 -5 15.5t-3 15.5z" />
    <glyph glyph-name="ncommaaccent" unicode="&#x146;" horiz-adv-x="603" 
d="M340 -1q-2 16 0 31q31 2 46 6.5t20 19.5t5 48v202q0 60 -18.5 89.5t-73.5 29.5q-29 0 -56 -10.5t-59 -39.5v-261q0 -39 4.5 -56t19.5 -21.5t47 -6.5q2 -15 0 -31q-28 0 -58.5 1t-65.5 1q-32 0 -63 -1t-61 -1q-3 16 0 31q34 2 50 6.5t21 19.5t5 48v224q0 39 -3.5 58
t-19 26.5t-52.5 12.5q-3 14 0 26q86 17 158 46l17 -6v-75q46 42 90 59t84 17q66 0 101 -39t35 -112v-227q0 -39 4.5 -56t19.5 -21.5t48 -6.5q2 -15 0 -31q-30 0 -58.5 1t-66.5 1q-37 0 -64.5 -1t-55.5 -1zM245 -236q46 11 67 30t21 45q0 12 -4 24q-19 -15 -41 -15
q-20 0 -34.5 13.5t-14.5 37.5q0 26 18 41.5t45 15.5q37 0 58.5 -26t21.5 -67q0 -51 -34 -84t-95 -46q-3 8 -5 15.5t-3 15.5z" />
    <glyph glyph-name="Omacron" unicode="&#x14c;" horiz-adv-x="802" 
d="M752 354q0 -108 -44 -191t-124 -130.5t-189 -47.5q-108 0 -185 46t-118.5 127t-41.5 184q0 107 44 190.5t124.5 131t188.5 47.5q107 0 184 -46t119 -126.5t42 -184.5zM628 344q0 61 -12 119t-38.5 105t-69.5 74.5t-105 27.5q-63 0 -106.5 -28t-70 -74t-39 -103
t-12.5 -116q0 -58 12.5 -115.5t39.5 -104.5t71.5 -75.5t107.5 -28.5q62 0 104.5 27t68.5 72.5t37.5 102.5t11.5 117zM257 823h288q3 -24 0 -48h-288q-3 24 0 48z" />
    <glyph glyph-name="omacron" unicode="&#x14d;" horiz-adv-x="571" 
d="M281 -12q-73 0 -127.5 31.5t-84.5 87t-30 127.5q0 78 31.5 136t88.5 90t131 32q73 0 127 -32t84 -88t30 -127q0 -73 -31.5 -131.5t-87.5 -92t-131 -33.5zM152 246q0 -102 33.5 -161.5t100.5 -59.5q64 0 98 56.5t34 151.5q0 101 -34 161t-99 60q-64 0 -98.5 -55
t-34.5 -153zM144 661h282q3 -25 0 -50h-282q-3 25 0 50z" />
    <glyph glyph-name="Obreve" unicode="&#x14e;" horiz-adv-x="802" 
d="M752 354q0 -108 -44 -191t-124 -130.5t-189 -47.5q-108 0 -185 46t-118.5 127t-41.5 184q0 107 44 190.5t124.5 131t188.5 47.5q107 0 184 -46t119 -126.5t42 -184.5zM628 344q0 61 -12 119t-38.5 105t-69.5 74.5t-105 27.5q-63 0 -106.5 -28t-70 -74t-39 -103
t-12.5 -116q0 -58 12.5 -115.5t39.5 -104.5t71.5 -75.5t107.5 -28.5q62 0 104.5 27t68.5 72.5t37.5 102.5t11.5 117zM278 914q14 -49 44 -70.5t79 -21.5q50 0 80.5 21.5t44.5 70.5q8 -1 16 -3l16 -4q-10 -78 -52 -121t-104 -43t-104 43t-53 121q14 4 33 7z" />
    <glyph glyph-name="obreve" unicode="&#x14f;" horiz-adv-x="571" 
d="M281 -12q-73 0 -127.5 31.5t-84.5 87t-30 127.5q0 78 31.5 136t88.5 90t131 32q73 0 127 -32t84 -88t30 -127q0 -73 -31.5 -131.5t-87.5 -92t-131 -33.5zM152 246q0 -102 33.5 -161.5t100.5 -59.5q64 0 98 56.5t34 151.5q0 101 -34 161t-99 60q-64 0 -98.5 -55
t-34.5 -153zM169 742q11 -64 41 -91.5t76 -27.5q49 0 79.5 29.5t38.5 89.5q18 -2 30 -7q-8 -94 -46.5 -143.5t-102.5 -49.5t-100.5 49.5t-45.5 143.5q12 5 30 7z" />
    <glyph glyph-name="OE" unicode="&#x152;" horiz-adv-x="1049" 
d="M397 -8q-110 0 -187.5 44.5t-118.5 124t-41 184.5q0 106 42.5 186.5t126 126t207.5 45.5q21 0 44 -1t65.5 -2t119.5 -1h52.5h82.5t92 0.5t81 1.5q5 -37 10 -76t12 -83q-16 -1 -33 0q-26 62 -60 88q-37 28 -112 28h-131v-273h54q48 0 73.5 6.5t37.5 29t18 71.5q17 3 35 0
q-1 -42 -1.5 -66.5t-0.5 -38.5v-25v-25.5t0.5 -39t1.5 -67.5q-17 -3 -34 0q-7 53 -18.5 76.5t-35 29.5t-67.5 6h-63v-218q0 -28 0.5 -47.5t1.5 -33.5h137q51 0 81 8t48 23q16 14 35.5 41.5t35.5 63.5q15 1 31 0q-10 -56 -17.5 -101t-11.5 -78h-96.5t-106 0.5t-94 0.5h-60.5
q-56 0 -92.5 -1.5t-61 -3t-43.5 -3t-39 -1.5zM540 69v559q-23 16 -56 25.5t-73 9.5q-65 0 -110 -25.5t-73 -70t-40.5 -100.5t-12.5 -116t12.5 -116.5t40 -102t72.5 -72.5t110 -27q36 0 70.5 9t59.5 27z" />
    <glyph glyph-name="oe" unicode="&#x153;" horiz-adv-x="849" 
d="M273 -12q-71 0 -123.5 31.5t-81.5 87t-29 127.5q0 78 31 136t85.5 90t126.5 32q55 0 100 -22.5t75 -61.5q28 38 70 61t98 23q85 0 133 -52.5t48 -135.5q0 -10 -0.5 -17.5t-1.5 -12.5l-307 3v-4q0 -102 44 -157.5t123 -55.5q65 0 130 44q10 -12 15 -23q-82 -93 -192 -93
q-56 0 -97.5 21.5t-68.5 59.5q-31 -38 -76.5 -59.5t-101.5 -21.5zM278 25q60 0 92 56.5t32 151.5q0 101 -31.5 161t-93.5 60q-61 0 -93 -55t-32 -153q0 -102 31.5 -161.5t94.5 -59.5zM499 315l200 3q1 2 1 5.5v4.5q0 54 -22.5 90t-66.5 36q-42 0 -73 -36.5t-39 -102.5z" />
    <glyph glyph-name="Racute" unicode="&#x154;" horiz-adv-x="693" 
d="M266 316l-26 3v-195q0 -31 2 -49t10.5 -26t28 -11.5t54.5 -6.5q3 -16 0 -32q-20 0 -48 0.5l-56 1t-47 0.5q-18 0 -47 -0.5l-58 -1t-49 -0.5q-3 15 0 32q48 4 69 8.5t26 20t5 51.5v466q0 41 -5.5 59t-26.5 24t-68 9q-3 15 0 32q19 0 49.5 -0.5t60 -1t43.5 -0.5
q18 0 46.5 0.5t57 1.5t44.5 1q63 0 117.5 -17t88 -55.5t33.5 -103.5q0 -64 -38.5 -114t-121.5 -75v-3q15 -12 34 -40l105 -152q26 -37 43.5 -58t33.5 -31.5t37 -14.5t53 -7q3 -16 0 -32q-19 0 -47 0.5t-54 1t-42 0.5t-28 -0.5t-28 -0.5l-185 273q-17 26 -30 33.5t-36 9.5z
M240 360q13 -2 23 -3t19 -1q78 0 123.5 40t45.5 118q0 71 -39.5 109t-116.5 38q-10 0 -24.5 -1t-30.5 -3v-297zM451 844v-3q-22 -11 -55.5 -29.5t-69 -39t-62.5 -37.5q-11 6 -21 24q34 35 70 77t64 75q16 0 37.5 -21.5t36.5 -45.5z" />
    <glyph glyph-name="racute" unicode="&#x155;" horiz-adv-x="410" 
d="M27 -1q-3 16 0 31q34 2 50 6.5t21 19.5t5 48v224q0 39 -3.5 58t-19 26.5t-52.5 12.5q-3 14 0 26q40 8 78 18.5t80 27.5l17 -6v-88q70 89 143 89q35 0 52 -18.5t17 -41.5q0 -27 -18 -41.5t-41 -14.5q-19 0 -37.5 10t-27.5 31q-34 0 -60.5 -26.5t-26.5 -61.5v-215
q0 -39 4.5 -56t24 -21.5t63.5 -6.5q2 -14 0 -31q-34 0 -70 1t-74 1q-37 0 -65.5 -1t-59.5 -1zM342 746v-4l-128 -194q-5 -1 -14 0t-15 3l49 196q5 5 34 5q40 0 74 -6z" />
    <glyph glyph-name="Sacute" unicode="&#x15a;" horiz-adv-x="547" 
d="M256 -14q-1 0 -32.5 1.5t-72.5 8.5q-34 6 -61.5 8.5t-33.5 2.5q-1 83 -9 201q8 1 16.5 1h15.5q19 -88 63.5 -136t117.5 -48q65 0 106 35.5t41 93.5q0 44 -22.5 72t-59 47.5t-77.5 36.5q-48 21 -91.5 44.5t-71.5 60.5t-28 96q0 63 31.5 108t84.5 68.5t117 23.5
q20 0 41.5 -2t44.5 -6q29 -4 44.5 -5t20.5 -1q3 0 11 0.5t13 1.5q2 -44 4 -91t6 -98q-20 -3 -33 -2q-23 87 -57 125q-34 39 -97 39q-55 0 -94 -29.5t-39 -87.5q0 -31 14.5 -55t48.5 -46t94 -47q33 -14 66.5 -31t61.5 -40.5t45 -57t17 -79.5q0 -68 -34 -115.5t-89.5 -72.5
t-122.5 -25zM421 844v-3q-22 -11 -55.5 -29.5t-69 -39t-62.5 -37.5q-11 6 -21 24q34 35 70 77t64 75q16 0 37.5 -21.5t36.5 -45.5z" />
    <glyph glyph-name="sacute" unicode="&#x15b;" horiz-adv-x="424" 
d="M73 158q15 -66 48 -100.5t85 -34.5q39 0 66 18.5t27 58.5q0 30 -14.5 48t-40 30.5t-57.5 25.5q-37 15 -69.5 32.5t-53 44t-20.5 68.5q0 48 25.5 79.5t66 47.5t86.5 16q23 0 46 -3t25 -3q20 -3 37 -3.5t18 -0.5h4.5t9.5 1q0 -32 1 -65t4 -70h-4q-9 -1 -16.5 -1.5
t-14.5 0.5q-13 56 -38.5 81.5t-71.5 25.5q-41 0 -65.5 -18t-24.5 -50q0 -26 16 -42.5t39 -27.5t44 -19q39 -15 74.5 -33.5t58 -47.5t22.5 -78q0 -52 -26.5 -85.5t-67.5 -49t-86 -15.5q-26 0 -51.5 4t-27.5 4t-16.5 2t-32 4t-30.5 2q0 31 -2.5 69t-5.5 84h5q9 1 15.5 1.5
t12.5 -0.5zM346 746v-4l-128 -194q-5 -1 -14 0t-15 3l49 196q5 5 34 5q40 0 74 -6z" />
    <glyph glyph-name="Scaron" unicode="&#x160;" horiz-adv-x="547" 
d="M256 -14q-1 0 -32.5 1.5t-72.5 8.5q-34 6 -61.5 8.5t-33.5 2.5q-1 83 -9 201q8 1 16.5 1h15.5q19 -88 63.5 -136t117.5 -48q65 0 106 35.5t41 93.5q0 44 -22.5 72t-59 47.5t-77.5 36.5q-48 21 -91.5 44.5t-71.5 60.5t-28 96q0 63 31.5 108t84.5 68.5t117 23.5
q20 0 41.5 -2t44.5 -6q29 -4 44.5 -5t20.5 -1q3 0 11 0.5t13 1.5q2 -44 4 -91t6 -98q-20 -3 -33 -2q-23 87 -57 125q-34 39 -97 39q-55 0 -94 -29.5t-39 -87.5q0 -31 14.5 -55t48.5 -46t94 -47q33 -14 66.5 -31t61.5 -40.5t45 -57t17 -79.5q0 -68 -34 -115.5t-89.5 -72.5
t-122.5 -25zM285 817q31 23 66 46t73 45q17 -3 28 -13q-20 -21 -44 -49.5t-46.5 -57t-38.5 -49.5q-7 -2 -17.5 -3t-21.5 -1q-9 0 -19.5 1t-18.5 3q-16 21 -39 49.5t-46.5 57t-44.5 49.5q12 9 28 13q38 -22 73.5 -44.5t67.5 -46.5z" />
    <glyph glyph-name="scaron" unicode="&#x161;" horiz-adv-x="424" 
d="M73 158q15 -66 48 -100.5t85 -34.5q39 0 66 18.5t27 58.5q0 30 -14.5 48t-40 30.5t-57.5 25.5q-37 15 -69.5 32.5t-53 44t-20.5 68.5q0 48 25.5 79.5t66 47.5t86.5 16q23 0 46 -3t25 -3q20 -3 37 -3.5t18 -0.5h4.5t9.5 1q0 -32 1 -65t4 -70h-4q-9 -1 -16.5 -1.5
t-14.5 0.5q-13 56 -38.5 81.5t-71.5 25.5q-41 0 -65.5 -18t-24.5 -50q0 -26 16 -42.5t39 -27.5t44 -19q39 -15 74.5 -33.5t58 -47.5t22.5 -78q0 -52 -26.5 -85.5t-67.5 -49t-86 -15.5q-26 0 -51.5 4t-27.5 4t-16.5 2t-32 4t-30.5 2q0 31 -2.5 69t-5.5 84h5q9 1 15.5 1.5
t12.5 -0.5zM223 629q30 29 63 60t68 63q7 -1 14.5 -4.5t14.5 -8.5q-29 -41 -61.5 -93t-55.5 -94q-10 -2 -21 -3t-23 -1t-23 1t-21 3q-23 42 -55 94t-61 93q12 10 29 13q36 -32 69 -63t63 -60z" />
    <glyph glyph-name="Utilde" unicode="&#x168;" horiz-adv-x="767" 
d="M14 701q20 0 48.5 -0.5l57 -1t47.5 -0.5t47.5 0.5t57.5 1t49 0.5q3 -15 0 -31q-46 -4 -67 -9t-26 -20t-5 -51v-327q0 -112 48.5 -166.5t141.5 -54.5q98 0 148 61t50 189v274q0 35 -2.5 54.5t-13 28.5t-31.5 12.5t-59 7.5q-3 15 0 31q27 0 65 -1t61 -1q25 0 62.5 1t65.5 1
q3 -15 0 -31q-46 -5 -67 -10t-26.5 -22t-5.5 -58v-308q0 -133 -69 -207.5t-209 -74.5q-80 0 -140.5 26t-94.5 80.5t-34 137.5v344q0 42 -5 60t-26 23.5t-68 9.5q-3 15 0 31zM559 897q9 -2 17 -5t15 -6q-20 -60 -51 -92t-71 -32q-14 0 -30 5t-37 17q-19 11 -36.5 20.5
t-37.5 9.5q-36 0 -60 -58q-14 3 -32 11q22 58 52.5 90.5t70.5 32.5q13 0 29 -5t37 -17q19 -10 37.5 -20.5t36.5 -10.5q36 0 60 60z" />
    <glyph glyph-name="utilde" unicode="&#x169;" horiz-adv-x="583" 
d="M226 -12q-65 0 -100.5 38.5t-35.5 111.5v202q0 39 -3.5 58t-19 27t-52.5 13q-5 13 0 25q43 6 82.5 13t79.5 17l15 -7q-1 -31 -1.5 -58.5t-0.5 -51.5v-202q0 -60 18.5 -89.5t72.5 -29.5q30 0 56.5 13.5t50.5 39.5v232q0 39 -3.5 58t-19 27t-52.5 13q-3 13 0 25
q43 6 82.5 13t80.5 17l15 -7q-1 -31 -1.5 -58.5t-0.5 -51.5v-259q0 -30 3.5 -45t20 -21.5t54.5 -10.5q1 -12 0 -25q-43 -4 -82 -10t-76 -15l-16 7l-2 70q-83 -79 -165 -79zM432 726q9 -2 17 -5t15 -6q-20 -60 -51 -92.5t-71 -32.5q-13 0 -29 5t-36 17q-18 11 -35.5 20.5
t-36.5 9.5q-36 0 -60 -58q-14 3 -32 11q22 58 53 91t71 33q13 0 28.5 -5t35.5 -17q18 -10 36.5 -20.5t35.5 -10.5q35 0 59 60z" />
    <glyph glyph-name="Umacron" unicode="&#x16a;" horiz-adv-x="767" 
d="M14 701q20 0 48.5 -0.5l57 -1t47.5 -0.5t47.5 0.5t57.5 1t49 0.5q3 -15 0 -31q-46 -4 -67 -9t-26 -20t-5 -51v-327q0 -112 48.5 -166.5t141.5 -54.5q98 0 148 61t50 189v274q0 35 -2.5 54.5t-13 28.5t-31.5 12.5t-59 7.5q-3 15 0 31q27 0 65 -1t61 -1q25 0 62.5 1t65.5 1
q3 -15 0 -31q-46 -5 -67 -10t-26.5 -22t-5.5 -58v-308q0 -133 -69 -207.5t-209 -74.5q-80 0 -140.5 26t-94.5 80.5t-34 137.5v344q0 42 -5 60t-26 23.5t-68 9.5q-3 15 0 31zM265 823h288q3 -24 0 -48h-288q-3 24 0 48z" />
    <glyph glyph-name="umacron" unicode="&#x16b;" horiz-adv-x="583" 
d="M226 -12q-65 0 -100.5 38.5t-35.5 111.5v202q0 39 -3.5 58t-19 27t-52.5 13q-5 13 0 25q43 6 82.5 13t79.5 17l15 -7q-1 -31 -1.5 -58.5t-0.5 -51.5v-202q0 -60 18.5 -89.5t72.5 -29.5q30 0 56.5 13.5t50.5 39.5v232q0 39 -3.5 58t-19 27t-52.5 13q-3 13 0 25
q43 6 82.5 13t80.5 17l15 -7q-1 -31 -1.5 -58.5t-0.5 -51.5v-259q0 -30 3.5 -45t20 -21.5t54.5 -10.5q1 -12 0 -25q-43 -4 -82 -10t-76 -15l-16 7l-2 70q-83 -79 -165 -79zM143 661h282q3 -25 0 -50h-282q-3 25 0 50z" />
    <glyph glyph-name="Ubreve" unicode="&#x16c;" horiz-adv-x="767" 
d="M14 701q20 0 48.5 -0.5l57 -1t47.5 -0.5t47.5 0.5t57.5 1t49 0.5q3 -15 0 -31q-46 -4 -67 -9t-26 -20t-5 -51v-327q0 -112 48.5 -166.5t141.5 -54.5q98 0 148 61t50 189v274q0 35 -2.5 54.5t-13 28.5t-31.5 12.5t-59 7.5q-3 15 0 31q27 0 65 -1t61 -1q25 0 62.5 1t65.5 1
q3 -15 0 -31q-46 -5 -67 -10t-26.5 -22t-5.5 -58v-308q0 -133 -69 -207.5t-209 -74.5q-80 0 -140.5 26t-94.5 80.5t-34 137.5v344q0 42 -5 60t-26 23.5t-68 9.5q-3 15 0 31zM286 914q14 -49 44 -70.5t79 -21.5q50 0 80.5 21.5t44.5 70.5q8 -1 16 -3l16 -4q-10 -78 -52 -121
t-104 -43t-104 43t-53 121q14 4 33 7z" />
    <glyph glyph-name="ubreve" unicode="&#x16d;" horiz-adv-x="583" 
d="M226 -12q-65 0 -100.5 38.5t-35.5 111.5v202q0 39 -3.5 58t-19 27t-52.5 13q-5 13 0 25q43 6 82.5 13t79.5 17l15 -7q-1 -31 -1.5 -58.5t-0.5 -51.5v-202q0 -60 18.5 -89.5t72.5 -29.5q30 0 56.5 13.5t50.5 39.5v232q0 39 -3.5 58t-19 27t-52.5 13q-3 13 0 25
q43 6 82.5 13t80.5 17l15 -7q-1 -31 -1.5 -58.5t-0.5 -51.5v-259q0 -30 3.5 -45t20 -21.5t54.5 -10.5q1 -12 0 -25q-43 -4 -82 -10t-76 -15l-16 7l-2 70q-83 -79 -165 -79zM168 742q11 -64 41 -91.5t76 -27.5q49 0 79.5 29.5t38.5 89.5q18 -2 30 -7q-8 -94 -46.5 -143.5
t-102.5 -49.5t-100.5 49.5t-45.5 143.5q12 5 30 7z" />
    <glyph glyph-name="Ydieresis" unicode="&#x178;" horiz-adv-x="620" 
d="M512 560l-147 -262v-174q0 -31 2 -49t11 -26t29 -11.5t57 -6.5q3 -16 0 -32q-21 0 -50 0.5t-57.5 1t-47.5 0.5t-47 -0.5t-57 -1t-50 -0.5q-2 15 0 32q48 5 69 9.5t26 20t5 50.5v177l-152 278q-18 34 -30 53.5t-23.5 29t-28 13.5t-45.5 7q-2 16 0 32q36 0 74 -1t75 -1
q32 0 71 1t75 1q2 -15 0 -32q-43 -4 -61 -9.5t-18 -19.5q0 -7 5.5 -18.5t14.5 -28.5l131 -245l132 244q18 33 18 45q0 15 -20.5 20.5t-70.5 11.5q-2 17 0 32q16 0 41 -0.5t49.5 -1t40.5 -0.5q32 0 59.5 1t58.5 1q2 -16 0 -32q-29 -3 -47 -7t-31 -14.5t-27 -31t-34 -56.5z
M166 814q0 26 16.5 43.5t44.5 17.5t44.5 -17.5t16.5 -43.5t-16.5 -44t-44.5 -18t-44.5 18t-16.5 44zM369 814q0 26 16.5 43.5t44.5 17.5t44.5 -17.5t16.5 -43.5t-16.5 -44t-44.5 -18t-44.5 18t-16.5 44z" />
    <glyph glyph-name="Zacute" unicode="&#x179;" horiz-adv-x="656" 
d="M617 679l-447 -636h223q95 0 137 43q32 33 65 112q16 2 31 0q-11 -62 -19 -111.5t-12 -86.5q-15 0 -92.5 0.5t-226.5 0.5q-79 0 -125 -0.5t-73 -1t-49 -0.5q-4 9 -4 20l447 638h-218q-76 0 -112 -35q-32 -31 -55 -103q-16 -1 -34 0q8 50 14 95t10 88q65 -4 135.5 -4.5
t149.5 -0.5q81 0 129.5 0.5t76.5 1.5t45 1q2 -4 3 -9.5t1 -11.5zM481 844v-3q-22 -11 -55.5 -29.5t-69 -39t-62.5 -37.5q-11 6 -21 24q34 35 70 77t64 75q16 0 37.5 -21.5t36.5 -45.5z" />
    <glyph glyph-name="zacute" unicode="&#x17a;" horiz-adv-x="496" 
d="M437 -1q-44 2 -79 2h-61h-117h-69t-81 -1q-5 10 -5 21l291 416h-104q-50 0 -75 -7.5t-39 -29.5t-32 -66q-15 -2 -29 3q7 41 12.5 77t6.5 65q43 -2 95 -3.5t107 -1.5q44 0 96 1t92 2q7 -10 7 -22l-292 -416h122q36 0 58 4t37.5 16t30.5 36.5t36 65.5q16 0 27 -5
q-10 -39 -18.5 -78.5t-16.5 -78.5zM377 746v-4l-128 -194q-5 -1 -14 0t-15 3l49 196q5 5 34 5q40 0 74 -6z" />
    <glyph glyph-name="Zcaron" unicode="&#x17d;" horiz-adv-x="656" 
d="M617 679l-447 -636h223q95 0 137 43q32 33 65 112q16 2 31 0q-11 -62 -19 -111.5t-12 -86.5q-15 0 -92.5 0.5t-226.5 0.5q-79 0 -125 -0.5t-73 -1t-49 -0.5q-4 9 -4 20l447 638h-218q-76 0 -112 -35q-32 -31 -55 -103q-16 -1 -34 0q8 50 14 95t10 88q65 -4 135.5 -4.5
t149.5 -0.5q81 0 129.5 0.5t76.5 1.5t45 1q2 -4 3 -9.5t1 -11.5zM345 817q31 23 66 46t73 45q17 -3 28 -13q-20 -21 -44 -49.5t-46.5 -57t-38.5 -49.5q-7 -2 -17.5 -3t-21.5 -1q-9 0 -19.5 1t-18.5 3q-16 21 -39 49.5t-46.5 57t-44.5 49.5q12 9 28 13q38 -22 73.5 -44.5
t67.5 -46.5z" />
    <glyph glyph-name="zcaron" unicode="&#x17e;" horiz-adv-x="496" 
d="M437 -1q-44 2 -79 2h-61h-117h-69t-81 -1q-5 10 -5 21l291 416h-104q-50 0 -75 -7.5t-39 -29.5t-32 -66q-15 -2 -29 3q7 41 12.5 77t6.5 65q43 -2 95 -3.5t107 -1.5q44 0 96 1t92 2q7 -10 7 -22l-292 -416h122q36 0 58 4t37.5 16t30.5 36.5t36 65.5q16 0 27 -5
q-10 -39 -18.5 -78.5t-16.5 -78.5zM254 629q30 29 63 60t68 63q7 -1 14.5 -4.5t14.5 -8.5q-29 -41 -61.5 -93t-55.5 -94q-10 -2 -21 -3t-23 -1t-23 1t-21 3q-23 42 -55 94t-61 93q12 10 29 13q36 -32 69 -63t63 -60z" />
    <glyph glyph-name="florin" unicode="&#x192;" horiz-adv-x="473" 
d="M12 -255q-38 0 -55 16.5t-17 34.5t14 32t41 14q22 0 41.5 -11.5t31.5 -35.5q16 7 25 28.5t13 49t5 52.5t1 39v59v84t-0.5 91.5t-0.5 81v51.5h-84q-3 15 0 27q37 6 54.5 11.5t23 16t6.5 30.5q1 23 6 51t20 57t45 55q29 26 70.5 38.5t81.5 12.5q30 0 59.5 -7.5t49.5 -24.5
t20 -46q0 -23 -14 -37.5t-38 -14.5q-36 0 -56 26.5t-20 55.5q-7 2 -14.5 3.5t-17.5 1.5q-47 0 -69 -34.5t-22 -115.5v-25.5v-34.5h125q3 -22 0 -46h-125q1 -42 1 -88t0.5 -87.5t0.5 -70.5v-38q0 -66 -6 -108.5t-19 -71t-36 -53.5q-63 -69 -141 -69z" />
    <glyph glyph-name="AEmacron" unicode="&#x1e2;" horiz-adv-x="956" 
d="M345 -1q-2 15 0 32q47 5 67 9.5t25 19.5t5 51v217h-196l-113 -203q-10 -19 -16 -31.5t-6 -23.5q0 -19 21 -27.5t70 -11.5q3 -17 0 -32q-15 0 -41 0.5t-53 1t-46 0.5q-28 0 -57 -1t-61 -1q-2 16 0 32q30 3 49 7.5t32.5 15.5t27.5 32.5t35 58.5l291 515q-16 3 -37.5 5.5
t-48.5 3.5q-3 15 0 32q111 -1 170 -1.5t79 -0.5h73.5t113 0.5t136.5 1.5q4 -37 9.5 -76t11.5 -83q-15 -2 -31 0q-25 58 -62 88q-18 14 -43 21t-65 7h-133v-287h54q48 0 73.5 6.5t37.5 29.5t19 72q17 2 33 0q-1 -41 -1.5 -65t-0.5 -37.5v-25.5v-24t0.5 -38t1.5 -66
q-15 -1 -33 0q-6 50 -18 72t-36 27.5t-67 5.5h-63v-204q0 -34 0.5 -54.5t1.5 -26.5h137q50 0 81 8.5t50 24.5q16 14 34.5 40.5t34.5 62.5q15 2 30 0q-10 -56 -17 -101t-12 -78h-96t-102.5 0.5t-93 0.5h-67.5q-47 0 -79.5 -0.5t-57.5 -1t-51 -0.5zM270 371h172v287h-13z
M440 823h288q3 -24 0 -48h-288q-3 24 0 48z" />
    <glyph glyph-name="aemacron" unicode="&#x1e3;" horiz-adv-x="743" 
d="M698 274l-307 3v-5q0 -54 16 -102.5t52.5 -79t98.5 -30.5q65 0 130 44q10 -12 15 -23q-82 -93 -192 -93q-111 0 -169 88q-45 -44 -91.5 -66t-90.5 -22q-54 0 -89.5 30.5t-35.5 83.5q0 68 65 109t198 58v2q0 25 0.5 50t0.5 50q0 35 -24 54.5t-59 19.5q-26 0 -42 -8
q0 -24 -10 -48t-28 -40t-42 -16q-22 0 -34.5 12.5t-12.5 30.5q0 24 22.5 45.5t56.5 37t71 24.5t67 9q36 0 66 -14t47 -40q27 26 63 40t79 14q85 0 133 -52.5t48 -135.5q0 -10 -0.5 -17.5t-1.5 -12.5zM329 97q-2 5 -5 11q-11 24 -18.5 53.5t-7.5 56.5v15q-87 -12 -121 -39
t-34 -69q0 -35 18 -53.5t49 -18.5q21 0 51.5 9.5t67.5 34.5zM394 314l199 4q1 2 1 5.5v4.5q0 54 -22.5 90t-67.5 36q-36 0 -59 -21.5t-35 -53.5t-16 -65zM238 661h282q3 -25 0 -50h-282q-3 25 0 50z" />
    <glyph glyph-name="dotlessj" unicode="&#x237;" horiz-adv-x="282" 
d="M181 497l17 -6q-1 -28 -1.5 -55t-0.5 -55v-40t0.5 -75t1 -87.5t0.5 -79v-48.5q0 -68 -6 -112t-19 -72.5t-36 -52.5q-64 -69 -140 -69q-40 0 -56.5 16.5t-16.5 34.5t14 32t41 14q22 0 41.5 -11.5t31.5 -35.5q17 8 26 29.5t12.5 49.5t4.5 54t1 43v58v81.5t-0.5 88
t-0.5 78.5v51q0 39 -3.5 58t-19 26.5t-52.5 12.5q-3 14 0 26q42 8 81.5 19t79.5 27z" />
    <glyph glyph-name="halfringright" unicode="&#x2be;" horiz-adv-x="241" 
d="M50 661v38q43 0 78.5 -13.5t56.5 -41.5t21 -73q0 -47 -21.5 -78t-57 -46t-77.5 -15v40q35 0 58 25t23 69q0 45 -23.5 70t-57.5 25z" />
    <glyph glyph-name="halfringleft" unicode="&#x2bf;" horiz-adv-x="241" 
d="M181 470v-38q-43 0 -78.5 13.5t-56.5 42t-21 72.5q0 47 21.5 78t57 46t77.5 15v-40q-35 0 -58 -25t-23 -69q0 -45 23.5 -70t57.5 -25z" />
    <glyph glyph-name="circumflex" unicode="&#x2c6;" horiz-adv-x="360" 
d="M179 671q-30 -29 -63 -60t-68 -63q-7 2 -14.5 5t-14.5 8q29 41 61.5 93t55.5 94q10 2 21 3t23 1t23 -1t21 -3q23 -42 55.5 -94t60.5 -93q-12 -10 -29 -13q-36 32 -69 63t-63 60z" />
    <glyph glyph-name="ring" unicode="&#x2da;" horiz-adv-x="360" 
d="M60 638q0 50 35.5 76t84.5 26q50 0 85 -24.5t35 -75.5q0 -46 -36 -74t-84 -28q-49 0 -84.5 25.5t-35.5 74.5zM180 711q-27 0 -42 -19t-15 -52q0 -31 15 -51t42 -20t42 19t15 50q0 32 -15.5 52.5t-41.5 20.5z" />
    <glyph glyph-name="tilde" unicode="&#x2dc;" horiz-adv-x="360" 
d="M323 726q9 -2 17 -5t15 -6q-20 -60 -51 -92.5t-71 -32.5q-13 0 -29 5t-36 17q-18 11 -35.5 20.5t-36.5 9.5q-36 0 -60 -58q-14 3 -32 11q22 58 53 91t71 33q13 0 28.5 -5t35.5 -17q18 -10 36.5 -20.5t35.5 -10.5q35 0 59 60z" />
    <glyph glyph-name="gravecomb" unicode="&#x300;" 
d="M-409 742v4q35 6 74 6q29 0 34 -5l49 -196q-6 -2 -15 -3t-14 0z" />
    <glyph glyph-name="acutecomb" unicode="&#x301;" 
d="M-163 746v-4l-128 -194q-5 -1 -14 0t-15 3l49 196q5 5 34 5q40 0 74 -6z" />
    <glyph glyph-name="circumflexcomb" unicode="&#x302;" 
d="M-287 671q-30 -29 -63 -60t-68 -63q-7 2 -14.5 5t-14.5 8q29 41 61.5 93t55.5 94q10 2 21 3t23 1t23 -1t21 -3q23 -42 55.5 -94t60.5 -93q-12 -10 -29 -13q-36 32 -69 63t-63 60z" />
    <glyph glyph-name="tildecomb" unicode="&#x303;" 
d="M-138 726q9 -2 17 -5t15 -6q-20 -60 -51 -92.5t-71 -32.5q-13 0 -29 5t-36 17q-18 11 -35.5 20.5t-36.5 9.5q-36 0 -60 -58q-14 3 -32 11q22 58 53 91t71 33q13 0 28.5 -5t35.5 -17q18 -10 36.5 -20.5t35.5 -10.5q35 0 59 60z" />
    <glyph glyph-name="macroncomb" unicode="&#x304;" 
d="M-427 661h282q3 -25 0 -50h-282q-3 25 0 50z" />
    <glyph glyph-name="brevecomb" unicode="&#x306;" 
d="M-402 742q11 -64 41 -91.5t76 -27.5q49 0 79.5 29.5t38.5 89.5q18 -2 30 -7q-8 -94 -46.5 -143.5t-102.5 -49.5t-100.5 49.5t-45.5 143.5q12 5 30 7z" />
    <glyph glyph-name="dotaccentcomb" unicode="&#x307;" 
d="M-356 667q0 29 20.5 49t49.5 20q28 0 48.5 -20t20.5 -48q0 -26 -20 -47.5t-51 -21.5q-28 0 -48 20t-20 48z" />
    <glyph glyph-name="dieresiscomb" unicode="&#x308;" 
d="M-450 664q0 26 17 44t45 18t45 -18t17 -44t-17 -44.5t-45 -18.5t-45 18.5t-17 44.5zM-247 664q0 26 17 44t45 18t45 -18t17 -44t-17 -44.5t-45 -18.5t-45 18.5t-17 44.5z" />
    <glyph glyph-name="ringcomb" unicode="&#x30a;" 
d="M-406 638q0 50 35.5 76t84.5 26q50 0 85 -24.5t35 -75.5q0 -46 -36 -74t-84 -28q-49 0 -84.5 25.5t-35.5 74.5zM-286 711q-27 0 -42 -19t-15 -52q0 -31 15 -51t42 -20t42 19t15 50q0 32 -15.5 52.5t-41.5 20.5z" />
    <glyph glyph-name="caroncomb" unicode="&#x30c;" 
d="M-286 629q30 29 63 60t68 63q7 -1 14.5 -4.5t14.5 -8.5q-29 -41 -61.5 -93t-55.5 -94q-10 -2 -21 -3t-23 -1t-23 1t-21 3q-23 42 -55 94t-61 93q12 10 29 13q36 -32 69 -63t63 -60z" />
    <glyph glyph-name="candrabinducomb" unicode="&#x310;" 
d="M-410 730q11 -63 43 -89t82 -26q53 0 85.5 28t40.5 87q18 -2 30 -7q-8 -91 -48.5 -138.5t-108.5 -47.5q-136 0 -154 186q12 5 30 7zM-350 743q0 26 18.5 45t45.5 19q26 0 44.5 -18.5t18.5 -44.5q0 -24 -18 -44t-47 -20q-26 0 -44 19t-18 44z" />
    <glyph glyph-name="dotbelowcomb" unicode="&#x323;" 
d="M-356 -152q0 29 20.5 49t49.5 20q28 0 48.5 -20t20.5 -48q0 -26 -20 -47.5t-51 -21.5q-28 0 -48 20t-20 48z" />
    <glyph glyph-name="dieresisbelowcomb" unicode="&#x324;" 
d="M-450 -152q0 26 17 44t45 18t45 -18t17 -44t-17 -44.5t-45 -18.5t-45 18.5t-17 44.5zM-247 -152q0 26 17 44t45 18t45 -18t17 -44t-17 -44.5t-45 -18.5t-45 18.5t-17 44.5z" />
    <glyph glyph-name="ringbelowcomb" unicode="&#x325;" 
d="M-406 -158q0 50 35.5 76t84.5 26q50 0 85 -24.5t35 -75.5q0 -46 -36 -74t-84 -28q-49 0 -84.5 25.5t-35.5 74.5zM-286 -85q-27 0 -42 -19t-15 -52q0 -31 15 -51t42 -20t42 19t15 50q0 32 -15.5 52.5t-41.5 20.5z" />
    <glyph glyph-name="commaaccentcomb" unicode="&#x326;" 
d="M-345 -236q46 11 67 30t21 45q0 12 -4 24q-19 -15 -41 -15q-20 0 -34.5 13.5t-14.5 37.5q0 26 18 41.5t45 15.5q37 0 58.5 -26t21.5 -67q0 -51 -34 -84t-95 -46q-3 8 -5 15.5t-3 15.5z" />
    <glyph glyph-name="cedillacomb" unicode="&#x327;" 
d="M-287 10h42l-41 -63q50 -12 70 -37t20 -56q0 -36 -19.5 -61t-51.5 -38.5t-70 -13.5q-41 0 -59 16t-18 33q0 15 11 25.5t27 10.5q13 0 30 -11.5t28 -41.5q33 2 46 15.5t13 31.5q0 30 -28.5 48.5t-76.5 22.5l-2 5z" />
    <glyph glyph-name="brevebelowcomb" unicode="&#x32e;" 
d="M-286 -242q-128 0 -146 187q12 5 30 7q11 -63 40.5 -88.5t75.5 -25.5q50 0 80.5 27t38.5 87q18 -2 30 -7q-8 -94 -46.5 -140.5t-102.5 -46.5z" />
    <glyph glyph-name="macronbelowcomb" unicode="&#x331;" 
d="M-427 -103h282q3 -25 0 -50h-282q-3 25 0 50z" />
    <glyph glyph-name="macrondblbelowcomb" unicode="&#x35f;" 
d="M-427 -103h854q3 -25 0 -50h-854q-3 25 0 50z" />
    <glyph glyph-name="dCandrabinduInverted" unicode="&#x900;" 
d="M40 765l-34 -18q-34 65 -70.5 91.5t-69.5 26.5t-59.5 -20.5t-45 -50t-28.5 -57.5l-69 53q29 77 77 108.5t99 31.5q67 0 116.5 -45.5t83.5 -119.5zM-131 672l-65 65l65 63l64 -63z" />
    <glyph glyph-name="dCandrabindu" unicode="&#x901;" 
d="M-331 837l34 18q35 -65 71 -91.5t69 -26.5q34 0 60 20.5t44.5 50.5t28.5 57l69 -53q-28 -76 -76.5 -108t-99.5 -32q-67 0 -116.5 45.5t-83.5 119.5zM-160 930l65 -65l-65 -63l-64 63z" />
    <glyph glyph-name="dAnusvara" unicode="&#x902;" 
d="M-131 828l70 -70l-70 -68l-69 68z" />
    <glyph glyph-name="dVisarga" unicode="&#x903;" 
d="M125 213l77 -76l-77 -73l-75 73zM125 485l77 -76l-77 -73l-75 73z" />
    <glyph glyph-name="dShortA" unicode="&#x904;" horiz-adv-x="787" 
d="M309 71q-65 0 -113.5 32.5t-86.5 87t-73 120.5l38 22q26 -47 53.5 -90.5t63.5 -71t88 -27.5q33 0 62.5 14.5t48.5 40.5t19 61q0 37 -24.5 56t-57.5 19q-28 0 -58 -11.5t-53 -22.5l-43 73q27 15 59.5 27t66.5 12h9q27 17 41 40.5t14 47.5q0 26 -16 43t-51 17
q-28 0 -72 -13.5t-85 -39.5l-44 75q44 26 88.5 38t76.5 12q46 0 78 -19.5t52 -49.5t29.5 -61.5t9.5 -55.5q0 -16 -5 -34t-24 -39q6 -5 13 -14q17 -19 39.5 -34t66.5 -15q55 0 93 33l2 201h-107l-34 65v10h151q3 6 5 12q2 9 2 16q0 23 -15.5 44.5t-35.5 29.5q-37 17 -85.5 21
t-98 6t-91.5 9.5t-66 30.5q-15 14 -35.5 46.5t-39.5 72.5l31 16q11 -22 28.5 -41.5t39.5 -28.5q25 -10 59 -13.5t71 -5.5q56 -2 112 -10t94 -40q26 -22 52 -62q24 -38 38 -103h92l34 -65v-10h-117l2 -555h-10l-80 52l1 201q-8 -3 -17 -4t-19 -1q-28 0 -55.5 10t-47.5 23
l-4 -2q6 -14 8.5 -28.5t2.5 -27.5q0 -41 -22.5 -73t-60.5 -50.5t-87 -18.5z" />
    <glyph glyph-name="dA" unicode="&#x905;" horiz-adv-x="787" 
d="M309 71q-65 0 -113.5 32.5t-86.5 87t-73 120.5l38 22q26 -47 53.5 -90.5t63.5 -71t88 -27.5q33 0 62.5 14.5t48.5 40.5t19 61q0 37 -24.5 56t-57.5 19q-28 0 -58 -11.5t-53 -22.5l-43 73q27 15 59.5 27t66.5 12h9q27 17 41 40.5t14 47.5q0 26 -16 43t-51 17
q-28 0 -72 -13.5t-85 -39.5l-44 75q44 26 88.5 38t76.5 12q46 0 78 -19.5t52 -49.5t29.5 -61.5t9.5 -55.5q0 -16 -5 -34t-24 -39q6 -5 13 -14q17 -19 39.5 -34t66.5 -15q55 0 93 33l2 201h-107l-34 65v10h308l34 -65v-10h-117l2 -555h-10l-80 52l1 201q-8 -3 -17 -4t-19 -1
q-28 0 -55.5 10t-47.5 23l-4 -2q6 -14 8.5 -28.5t2.5 -27.5q0 -41 -22.5 -73t-60.5 -50.5t-87 -18.5z" />
    <glyph glyph-name="dAa" unicode="&#x906;" horiz-adv-x="1047" 
d="M309 71q-65 0 -113.5 32.5t-86.5 87t-73 120.5l38 22q26 -47 53.5 -90.5t63.5 -71t88 -27.5q33 0 62.5 14.5t48.5 40.5t19 61q0 37 -24.5 56t-57.5 19q-28 0 -58 -11.5t-53 -22.5l-43 73q27 15 59.5 27t66.5 12h9q27 17 41 40.5t14 47.5q0 26 -16 43t-51 17
q-28 0 -72 -13.5t-85 -39.5l-44 75q44 26 88.5 38t76.5 12q46 0 78 -19.5t52 -49.5t29.5 -61.5t9.5 -55.5q0 -16 -5 -34t-24 -39q6 -5 13 -14q17 -19 39.5 -34t66.5 -15q55 0 93 33l2 201h-107l-34 65v10h568l34 -65v-10h-117l2 -560h-10l-80 52l4 508h-176l2 -555h-10
l-80 52l1 201q-8 -3 -17 -4t-19 -1q-28 0 -55.5 10t-47.5 23l-4 -2q6 -14 8.5 -28.5t2.5 -27.5q0 -41 -22.5 -73t-60.5 -50.5t-87 -18.5z" />
    <glyph glyph-name="dI" unicode="&#x907;" horiz-adv-x="528" 
d="M337 -155h-9l-101 176q-55 6 -96.5 32.5t-41.5 72.5q0 20 9 35.5t27 15.5q20 0 52 -22t66 -68q43 2 81 16t62.5 39t24.5 59q0 28 -14 37t-31 9q-18 0 -48 -6.5t-62 -13.5t-55 -7q-42 0 -77 26.5t-56 64.5t-21 74q0 47 37.5 65.5t106.5 18.5h162v76h-347l-34 65v10h550
l34 -65v-10h-124q1 -36 1.5 -73.5t0.5 -68.5l-12 -8h-204q-44 0 -66.5 -7t-30 -18t-7.5 -24q0 -19 13.5 -37t41.5 -18q15 0 39 4t51.5 10t52 10t38.5 4q25 0 47.5 -15.5t40.5 -39.5t28.5 -51t10.5 -50q0 -38 -28 -68t-72 -49t-92 -24l104 -144z" />
    <glyph glyph-name="dIi" unicode="&#x908;" horiz-adv-x="528" 
d="M337 -155h-9l-101 176q-55 6 -96.5 32.5t-41.5 72.5q0 20 9 35.5t27 15.5q20 0 52 -22t66 -68q43 2 81 16t62.5 39t24.5 59q0 28 -14 37t-31 9q-18 0 -48 -6.5t-62 -13.5t-55 -7q-42 0 -77 26.5t-56 64.5t-21 74q0 47 37.5 65.5t106.5 18.5h162v76h-347l-34 65v10h383
q-37 39 -60 77q-28 44 -28 92q0 31 13 58.5t41.5 45.5t72.5 18q87 0 115 -81l-4 -6q-16 7 -34.5 11.5t-38.5 4.5q-49 0 -71 -24t-22 -59q0 -38 22 -72q18 -29 48 -65h113l34 -65v-10h-124q1 -36 1.5 -73.5t0.5 -68.5l-12 -8h-204q-44 0 -66.5 -7t-30 -18t-7.5 -24
q0 -19 13.5 -37t41.5 -18q15 0 39 4t51.5 10t52 10t38.5 4q25 0 47.5 -15.5t40.5 -39.5t28.5 -51t10.5 -50q0 -38 -28 -68t-72 -49t-92 -24l104 -144z" />
    <glyph glyph-name="dU" unicode="&#x909;" horiz-adv-x="565" 
d="M361 316q-22 0 -51 -10.5t-84 -19.5l-42 70v6q78 16 120.5 30.5t59.5 34t17 46.5q0 30 -19 72h-356l-34 65v10h587l34 -65v-10h-173q13 -25 22.5 -51.5t9.5 -51.5q0 -24 -10 -45.5t-26 -39.5q46 -35 75.5 -81.5t29.5 -95.5q0 -42 -22 -78.5t-62.5 -58.5t-96.5 -22
q-57 0 -101.5 23t-81 62t-66.5 88.5t-57 102.5l38 22q18 -35 41 -74t52 -73t66 -55.5t84 -21.5q55 0 94 30.5t39 82.5q0 27 -11 51.5t-30.5 40.5t-45.5 16z" />
    <glyph glyph-name="dUu" unicode="&#x90a;" horiz-adv-x="760" 
d="M340 21q-57 0 -101.5 23t-81 62t-66.5 88.5t-57 102.5l38 22q18 -35 41 -74t52 -73t66 -55.5t84 -21.5q55 0 94 30.5t39 82.5q0 27 -11 51.5t-30.5 40.5t-45.5 16q-22 0 -51 -10.5t-84 -19.5l-42 70v6q79 16 121.5 31t59 34t16.5 47q0 14 -4.5 31.5t-15.5 39.5h-355
l-34 65v10h782l34 -65v-10h-367q13 -25 22 -51t9 -49q0 -26 -10 -48t-27 -40q17 -13 33 -28q27 21 63.5 41t74.5 20q33 0 67 -22t56.5 -61.5t22.5 -91.5q0 -43 -18 -86.5t-50 -90.5h-6l-69 56q22 28 39.5 59.5t28.5 61.5t11 52q0 29 -16.5 40t-36.5 11q-31 0 -64.5 -18
t-53.5 -36q11 -20 17.5 -41.5t6.5 -42.5q0 -42 -22 -78.5t-62.5 -58.5t-96.5 -22z" />
    <glyph glyph-name="dVocalicR" unicode="&#x90b;" horiz-adv-x="851" 
d="M716 -28q-58 0 -96 24.5t-56.5 58.5t-18.5 60q0 41 37 71.5t117 51.5q-6 16 -14 31.5t-17 33.5q-29 -12 -61 -18.5t-58 -6.5q-17 0 -37.5 1.5t-44.5 5.5l1 -295h-10l-80 52l1 201v0l-236 -163l-59 58l277 180q-55 41 -85.5 60t-54.5 19q-26 0 -62.5 -18.5t-70.5 -35.5
l-53 69v5q44 19 84 36t71 17q26 0 48.5 -10.5t54.5 -35.5t87 -70l2 191h-376l-34 65v10h873l34 -65v-10h-413l1 -214h23q47 0 80.5 14t50.5 31q-11 21 -17 37.5t-6 31.5q0 18 9 25t25 7q21 0 48.5 -12.5t47.5 -33t20 -45.5q0 -17 -9.5 -31.5t-25.5 -26.5q20 -34 36.5 -67.5
t33.5 -76.5l-2 -5q-75 -15 -112 -31.5t-48.5 -32.5t-11.5 -31q0 -14 13.5 -29t53.5 -15q25 0 54.5 8t66.5 29l50 -64q-16 -11 -50 -26t-81 -15z" />
    <glyph glyph-name="dVocalicL" unicode="&#x90c;" horiz-adv-x="682" 
d="M569 -87q-46 0 -79 20.5t-50.5 50.5t-17.5 59q0 28 13.5 52.5t33.5 48t40 47.5t33.5 50.5t13.5 56.5q0 33 -17.5 53t-46.5 20q-37 0 -76 -35.5t-77 -112.5l-76 38q17 41 43 78q-15 17 -37 29t-47 12q-40 0 -66.5 -30.5t-26.5 -85.5q0 -36 15 -70t51.5 -74.5t101.5 -94.5
l-43 -35h-10q-58 60 -102 110t-68.5 98t-24.5 100q0 42 16.5 77.5t47.5 57t73 21.5q49 0 82.5 -26.5t61.5 -57.5q22 25 48.5 44t55.5 26l-1 105h-427l-34 65v10h704l34 -65v-10h-196l1 -114q45 -21 74.5 -69.5t29.5 -104.5q0 -38 -13 -67t-31.5 -52.5t-37.5 -43.5t-32 -39
t-13 -41q0 -19 12 -32.5t37 -13.5q61 0 127 83l64 -55q-30 -37 -72.5 -60t-90.5 -23z" />
    <glyph glyph-name="dCandraE" unicode="&#x90d;" horiz-adv-x="560" 
d="M471 -164l-59 64q25 18 25 38q0 13 -12 27t-46 37.5t-100 66.5q-68 45 -107.5 73t-58 49t-24 43t-5.5 54v93t0.5 80t1.5 84h-80l-34 65v10h582l34 -65v-10h-118q1 -33 1.5 -71t1 -71.5t0.5 -54.5q0 -59 -9.5 -92t-29.5 -54t-53 -44l-60 65q23 16 38.5 31t23.5 40.5
t8 69.5q0 47 -0.5 87.5t-1.5 93.5h-219q-1 -55 -1 -95.5v-81v-93.5q0 -25 4 -42.5t18.5 -34t44.5 -39t82 -56.5q66 -43 107.5 -72t63 -49t29.5 -35t8 -32q0 -44 -55 -79zM96 838l34 18q34 -64 69.5 -90.5t67.5 -26.5q33 0 58.5 20.5t43.5 50t28 56.5l69 -53
q-28 -76 -75.5 -108.5t-97.5 -32.5q-66 0 -114.5 46t-82.5 120z" />
    <glyph glyph-name="dShortE" unicode="&#x90e;" horiz-adv-x="560" 
d="M471 -164l-59 64q25 18 25 38q0 13 -12 27t-46 37.5t-100 66.5q-68 45 -107.5 73t-58 49t-24 43t-5.5 54v93q0 41 0.5 80t1.5 84h-80l-34 65v10h427q3 6 5 12q2 9 2 16q0 23 -15.5 44.5t-35.5 29.5q-37 17 -85.5 21t-98 6t-91.5 9.5t-66 30.5q-15 14 -35.5 46.5
t-39.5 72.5l31 16q11 -22 28.5 -41.5t39.5 -28.5q25 -10 59 -13.5t71 -5.5q56 -2 112 -10t94 -40q26 -22 52 -62q24 -38 38 -103h90l34 -65v-10h-118q1 -33 1.5 -71t1 -71.5t0.5 -54.5q0 -59 -9.5 -92t-29.5 -54t-53 -44l-60 65q23 16 38.5 31t23.5 40.5t8 69.5
q0 47 -0.5 87.5t-1.5 93.5h-219q-1 -55 -1 -95v-175q0 -25 4 -42.5t18.5 -34t44.5 -39t82 -56.5q66 -43 107.5 -72t63 -49t29.5 -35t8 -32q0 -44 -55 -79z" />
    <glyph glyph-name="dE" unicode="&#x90f;" horiz-adv-x="560" 
d="M471 -164l-59 64q25 18 25 38q0 13 -12 27t-46 37.5t-100 66.5q-68 45 -107.5 73t-58 49t-24 43t-5.5 54v93t0.5 80t1.5 84h-80l-34 65v10h582l34 -65v-10h-118q1 -33 1.5 -71t1 -71.5t0.5 -54.5q0 -59 -9.5 -92t-29.5 -54t-53 -44l-60 65q23 16 38.5 31t23.5 40.5
t8 69.5q0 47 -0.5 87.5t-1.5 93.5h-219q-1 -55 -1 -95.5v-81v-93.5q0 -25 4 -42.5t18.5 -34t44.5 -39t82 -56.5q66 -43 107.5 -72t63 -49t29.5 -35t8 -32q0 -44 -55 -79z" />
    <glyph glyph-name="dAi" unicode="&#x910;" horiz-adv-x="560" 
d="M471 -164l-59 64q25 18 25 38q0 13 -12 27t-46 37.5t-100 66.5q-68 45 -107.5 73t-58 49t-24 43t-5.5 54v93q0 41 0.5 80t1.5 84h-80l-34 65v10h428q-43 74 -73 117q-33 45 -58 63.5t-53 18.5q-16 0 -44.5 -3t-51.5 -8l-46 85l1 7q39 7 67 9t37 2q51 0 95 -38t89 -106
q42 -64 91 -147h100l34 -65v-10h-118q1 -33 1.5 -71t1 -71.5t0.5 -54.5q0 -59 -9.5 -92t-29.5 -54t-53 -44l-60 65q23 16 38.5 31t23.5 40.5t8 69.5q0 47 -0.5 87.5t-1.5 93.5h-219q-1 -55 -1 -95v-175q0 -25 4 -42.5t18.5 -34t44.5 -39t82 -56.5q66 -43 107.5 -72t63 -49
t29.5 -35t8 -32q0 -44 -55 -79z" />
    <glyph glyph-name="dCandraO" unicode="&#x911;" horiz-adv-x="1047" 
d="M309 71q-65 0 -113.5 32.5t-86.5 87t-73 120.5l38 22q26 -47 53.5 -90.5t63.5 -71t88 -27.5q33 0 62.5 14.5t48.5 40.5t19 61q0 37 -24.5 56t-57.5 19q-28 0 -58 -11.5t-53 -22.5l-43 73q27 15 59.5 27t66.5 12h9q27 17 41 40.5t14 47.5q0 26 -16 43t-51 17
q-28 0 -72 -13.5t-85 -39.5l-44 75q44 26 88.5 38t76.5 12q46 0 78 -19.5t52 -49.5t29.5 -61.5t9.5 -55.5q0 -16 -5 -34t-24 -39q6 -5 13 -14q17 -19 39.5 -34t66.5 -15q55 0 93 33l2 201h-107l-34 65v10h568l34 -65v-10h-117l2 -560h-10l-80 52l4 508h-176l2 -555h-10
l-80 52l1 201q-8 -3 -17 -4t-19 -1q-28 0 -55.5 10t-47.5 23l-4 -2q6 -14 8.5 -28.5t2.5 -27.5q0 -41 -22.5 -73t-60.5 -50.5t-87 -18.5zM716 838l34 18q34 -64 69.5 -90.5t67.5 -26.5q33 0 58.5 20.5t43.5 50t28 56.5l69 -53q-28 -76 -75.5 -108.5t-97.5 -32.5
q-66 0 -114.5 46t-82.5 120z" />
    <glyph glyph-name="dShortO" unicode="&#x912;" horiz-adv-x="1045" 
d="M309 71q-65 0 -113.5 32.5t-86.5 87t-73 120.5l38 22q26 -47 53.5 -90.5t63.5 -71t88 -27.5q33 0 62.5 14.5t48.5 40.5t19 61q0 37 -24.5 56t-57.5 19q-28 0 -58 -11.5t-53 -22.5l-43 73q27 15 59.5 27t66.5 12h9q27 17 41 40.5t14 47.5q0 26 -16 43t-51 17
q-28 0 -72 -13.5t-85 -39.5l-44 75q44 26 88.5 38t76.5 12q46 0 78 -19.5t52 -49.5t29.5 -61.5t9.5 -55.5q0 -16 -5 -34t-24 -39q6 -5 13 -14q17 -19 39.5 -34t66.5 -15q55 0 93 33l2 201h-107l-34 65v10h409q3 6 5 12q2 9 2 16q0 23 -15.5 44.5t-35.5 29.5q-37 17 -85.5 21
t-98 6t-91.5 9.5t-66 30.5q-15 14 -35.5 46.5t-39.5 72.5l31 16q11 -22 28.5 -41.5t39.5 -28.5q25 -10 59 -13.5t71 -5.5q56 -2 112 -10t94 -40q26 -22 52 -62q24 -38 38 -103h92l34 -65v-10h-117l2 -560h-10l-80 52l4 508h-174l2 -555h-10l-80 52l1 201q-8 -3 -17 -4
t-19 -1q-28 0 -55.5 10t-47.5 23l-4 -2q6 -14 8.5 -28.5t2.5 -27.5q0 -41 -22.5 -73t-60.5 -50.5t-87 -18.5z" />
    <glyph glyph-name="dO" unicode="&#x913;" horiz-adv-x="1045" 
d="M309 71q-65 0 -113.5 32.5t-86.5 87t-73 120.5l38 22q26 -47 53.5 -90.5t63.5 -71t88 -27.5q33 0 62.5 14.5t48.5 40.5t19 61q0 37 -24.5 56t-57.5 19q-28 0 -58 -11.5t-53 -22.5l-43 73q27 15 59.5 27t66.5 12h9q27 17 41 40.5t14 47.5q0 26 -16 43t-51 17
q-28 0 -72 -13.5t-85 -39.5l-44 75q44 26 88.5 38t76.5 12q46 0 78 -19.5t52 -49.5t29.5 -61.5t9.5 -55.5q0 -16 -5 -34t-24 -39q6 -5 13 -14q17 -19 39.5 -34t66.5 -15q55 0 93 33l2 201h-107l-34 65v10h410q-43 74 -73 117q-33 45 -58 63.5t-53 18.5q-16 0 -44.5 -3
t-51.5 -8l-46 85l1 7q39 7 67 9t37 2q51 0 95 -38t89 -106q42 -64 91 -147h102l34 -65v-10h-117l2 -560h-10l-80 52l4 508h-174l2 -555h-10l-80 52l1 201q-8 -3 -17 -4t-19 -1q-28 0 -55.5 10t-47.5 23l-4 -2q6 -14 8.5 -28.5t2.5 -27.5q0 -41 -22.5 -73t-60.5 -50.5
t-87 -18.5z" />
    <glyph glyph-name="dAu" unicode="&#x914;" horiz-adv-x="1045" 
d="M309 71q-65 0 -113.5 32.5t-86.5 87t-73 120.5l38 22q26 -47 53.5 -90.5t63.5 -71t88 -27.5q33 0 62.5 14.5t48.5 40.5t19 61q0 37 -24.5 56t-57.5 19q-28 0 -58 -11.5t-53 -22.5l-43 73q27 15 59.5 27t66.5 12h9q27 17 41 40.5t14 47.5q0 26 -16 43t-51 17
q-28 0 -72 -13.5t-85 -39.5l-44 75q44 26 88.5 38t76.5 12q46 0 78 -19.5t52 -49.5t29.5 -61.5t9.5 -55.5q0 -16 -5 -34t-24 -39q6 -5 13 -14q17 -19 39.5 -34t66.5 -15q55 0 93 33l2 201h-107l-34 65v10h385q-32 42 -57 64q-28 24 -50 32t-42 8q-24 0 -48.5 -3.5
t-52.5 -9.5l-42 77l1 7q45 9 67.5 11.5t35.5 2.5q40 0 72 -18t69.5 -59.5t91.5 -111.5h3q-42 83 -69.5 134.5t-48 78.5t-40.5 36.5t-47 9.5q-21 0 -43.5 -3t-40.5 -7l-42 78l1 7q26 4 52.5 7t43.5 3q58 0 99.5 -39t82.5 -117q39 -75 91 -188h94l34 -65v-10h-117l2 -560h-10
l-80 52l4 508h-174l2 -555h-10l-80 52l1 201q-8 -3 -17 -4t-19 -1q-28 0 -55.5 10t-47.5 23l-4 -2q6 -14 8.5 -28.5t2.5 -27.5q0 -41 -22.5 -73t-60.5 -50.5t-87 -18.5z" />
    <glyph glyph-name="dKa" unicode="&#x915;" horiz-adv-x="763" 
d="M645 68h-8l-69 59q35 41 59.5 89t24.5 81q0 26 -14.5 39.5t-33.5 13.5q-21 0 -48 -13.5t-54 -32.5t-49 -36l1 -278h-10l-80 54l1 159q-35 -26 -57.5 -40t-41.5 -19.5t-42 -5.5q-51 0 -91.5 27t-64 68.5t-23.5 82.5q0 43 23 74t59.5 48t75.5 17q51 0 92.5 -26.5
t71.5 -63.5l2 180h-363l-34 65v10h785l34 -65v-10h-340l1 -176q33 23 64.5 39.5t54.5 16.5q18 0 42.5 -11.5t48 -34.5t39 -57t15.5 -79q0 -46 -18.5 -87t-52.5 -88zM366 304v6q-26 28 -62 48t-75 20q-43 0 -77.5 -26t-34.5 -75q0 -38 20 -56.5t47 -18.5q24 0 54.5 15.5
t63.5 38.5t64 48z" />
    <glyph glyph-name="dKha" unicode="&#x916;" horiz-adv-x="815" 
d="M322 -20h-10l-198 243q-37 45 -52.5 73.5t-15.5 45.5q0 32 51 32q14 0 37.5 -2t41.5 -4q5 25 6.5 57.5t1.5 56.5q0 20 -0.5 34.5t-1.5 28.5h-176l-34 65v10h837l34 -65v-10h-117l2 -555h-10l-80 52l1 169q-42 -33 -71 -44.5t-67 -11.5q-43 0 -83 24t-65.5 64.5
t-25.5 87.5q0 41 21 70.5t56 45.5t76 16q93 0 160 -85l2 167h-377q2 -22 2.5 -43.5t0.5 -30.5q0 -82 -12 -130t-35 -72t-56 -32l208 -215zM640 312v12q-29 31 -65 48t-71 17q-43 0 -74 -24.5t-31 -75.5q0 -37 22 -54.5t52 -17.5q29 0 66.5 18.5t100.5 76.5z" />
    <glyph glyph-name="dGa" unicode="&#x917;" horiz-adv-x="583" 
d="M611 545h-117l2 -555h-10l-79 51l4 504h-186l2 -350q0 -25 -23 -25q-16 0 -41.5 16t-50.5 40.5t-42 51t-17 46.5q0 9 6 16t19 7h64l1 198h-137l-34 65v10h605l34 -65v-10z" />
    <glyph glyph-name="dGha" unicode="&#x918;" horiz-adv-x="624" 
d="M323 133q-42 0 -77 17.5t-60 45t-39 59t-14 58.5q0 31 19 54q-35 27 -65.5 59t-30.5 73q0 26 14 46h-64l-34 65v10h646l34 -65v-10h-117l2 -555h-10l-80 52l1 128q-35 -20 -66 -28.5t-59 -8.5zM451 545h-235q-33 -8 -52 -25.5t-19 -43.5q0 -17 10 -38.5t35 -40.5
q27 14 61 21t72 10l40 -82q-85 -1 -120.5 -24.5t-35.5 -55.5q0 -28 22 -48t55 -20q26 0 67.5 17t97.5 58z" />
    <glyph glyph-name="dNga" unicode="&#x919;" horiz-adv-x="653" 
d="M355 7q-97 0 -184 65t-145 187l38 22q27 -53 63.5 -98.5t86.5 -73t117 -27.5q56 0 85.5 17.5t40.5 42t11 45.5q0 17 -10 27.5t-28 10.5q-19 0 -50.5 -6t-61.5 -12t-47 -6q-25 0 -52.5 15.5t-51.5 41t-39 57t-15 63.5q0 37 29 59.5t90 22.5h151v85h-377l-34 65v10h675
l34 -65v-10h-216q0 -38 0.5 -79.5t0.5 -72.5l-12 -8h-204q-65 0 -65 -46q0 -31 17.5 -48.5t35.5 -17.5q9 0 30 4t47 8.5t50 8.5t39 4q28 0 58.5 -23t52 -60t21.5 -78q0 -26 -18 -56.5t-58 -52t-105 -21.5zM647 341l-70 -68l-69 68l69 70z" />
    <glyph glyph-name="dCa" unicode="&#x91a;" horiz-adv-x="676" 
d="M361 128q-51 0 -90 17t-66.5 44.5t-41.5 59.5t-14 61q0 13 4 28.5t14 31.5h-95l-35 66v10h374l33 -64v-10q-16 1 -23.5 1h-18.5q-44 0 -85.5 -5.5t-68.5 -26t-27 -64.5q0 -46 28.5 -65.5t64.5 -19.5q29 0 73.5 17t113.5 74l2 262h-497l-34 65v10h698l34 -65v-10h-117
l2 -555h-10l-80 52l1 138q-45 -33 -77 -42.5t-62 -9.5z" />
    <glyph glyph-name="dCha" unicode="&#x91b;" horiz-adv-x="751" 
d="M361 10q-49 0 -92 16t-76 42t-51.5 56.5t-18.5 59.5q0 19 7 34.5t20 28.5q-96 67 -96 136q0 36 20.5 61.5t54 38.5t71.5 13q41 0 64 -14t34.5 -33t15.5 -36q-13 3 -34.5 5.5t-41.5 2.5q-44 0 -77 -17t-33 -53q0 -25 16.5 -44t39.5 -34q32 19 73 29t80 14l27 -77
q-84 -7 -125 -32t-41 -60q0 -24 18 -41t46.5 -25.5t59.5 -8.5q64 0 127.5 32.5t107.5 83.5q-35 23 -72.5 52.5t-62.5 66t-25 79.5q0 39 23.5 69.5t63.5 40.5v49h-478l-34 65v10h773l34 -65v-10h-214v-52q54 -16 90.5 -65t36.5 -120q0 -63 -30 -117.5t-78.5 -95t-107 -63
t-115.5 -22.5zM583 221q20 30 31 62.5t11 65.5q0 53 -23 74t-50 21q-31 0 -51 -22t-20 -60t24 -73.5t78 -67.5z" />
    <glyph glyph-name="dJa" unicode="&#x91c;" horiz-adv-x="735" 
d="M325 85q-51 0 -94.5 25.5t-80.5 69t-68.5 98.5t-59.5 115l41 18q52 -109 110 -177t125 -68q41 0 64 23.5t23 56.5q0 32 -24.5 62.5t-73.5 52.5l-27 58v11h301l1 115h-556l-34 65v10h757l34 -65v-10h-117l2 -555h-10l-80 52l2 313h-177q40 -41 60.5 -75t20.5 -72
q0 -39 -19.5 -66.5t-51 -42t-68.5 -14.5z" />
    <glyph glyph-name="dJha" unicode="&#x91d;" horiz-adv-x="758" 
d="M337 -155h-9l-101 176q-32 4 -64 16t-53 34t-21 55q0 20 9 35.5t27 15.5q20 0 52 -22t66 -68q42 2 80.5 16t63 39t24.5 59q0 28 -14 37t-31 9q-18 0 -48 -6.5t-62 -13.5t-55 -7q-42 0 -77 26.5t-56 64.5t-21 74q0 47 37.5 65.5t106.5 18.5h162v76h-347l-34 65v10h780
l34 -65v-10h-117l2 -555h-10l-80 52l1 175q-7 -2 -15.5 -2.5t-15.5 -0.5q-34 0 -59.5 11t-41.5 24l-2 -2q13 -21 21 -43.5t8 -41.5q0 -38 -29.5 -68t-73.5 -49.5t-88 -23.5l103 -143zM405 296q14 -7 34.5 -13t48.5 -6q56 0 95 32l2 236h-152q0 -36 0.5 -74t0.5 -68l-12 -8
h-204q-44 0 -66.5 -7t-30 -18t-7.5 -24q0 -19 13.5 -37t41.5 -18q14 0 38.5 4t52 10t52 10t37.5 4q14 0 28.5 -6t27.5 -17z" />
    <glyph glyph-name="dNya" unicode="&#x91e;" horiz-adv-x="775" 
d="M321 117q-51 0 -98 24t-95 79.5t-102 149.5l38 23q34 -57 69.5 -102.5t76 -71.5t89.5 -26q32 0 59.5 12t45 38t17.5 68q0 40 -18.5 61.5t-56.5 21.5q-28 0 -59.5 -10.5t-58.5 -23.5l-43 77q33 17 66 25t59 8q47 0 82.5 -23.5t58.5 -61t32 -77.5q9 -5 20.5 -9t28.5 -4
q38 0 68 26l2 224h-596l-34 65v10h797l34 -65v-10h-117l2 -555h-10l-80 52l1 178q-12 -3 -23 -3q-27 0 -49.5 14t-34.5 26l-4 -2q-2 -46 -25.5 -76.5t-61 -46t-80.5 -15.5z" />
    <glyph glyph-name="dTta" unicode="&#x91f;" horiz-adv-x="539" 
d="M567 545h-156q0 -28 0.5 -61.5t0.5 -64v-51.5l-12 -8h-128q-64 0 -103.5 -30t-39.5 -91q0 -43 20.5 -71.5t54.5 -42.5t75 -14q54 0 97.5 21t77.5 55l60 -61q-39 -42 -87 -65.5t-102 -23.5q-49 0 -97 19t-87.5 53.5t-63 80t-23.5 99.5q0 57 27 88.5t75.5 44.5t112.5 13h60
v110h-323l-34 65v10h561l34 -65v-10z" />
    <glyph glyph-name="dTtha" unicode="&#x920;" horiz-adv-x="577" 
d="M322 37q-56 0 -105.5 21.5t-87 57t-59 79t-21.5 88.5q0 46 25 81t81.5 54.5t149.5 19.5q20 0 26 7t6 40v60h-331l-34 65v10h599l34 -65v-10h-188v-8.5t1 -9.5q0 -16 0.5 -37.5t0.5 -51.5q0 -24 -2 -37q53 -36 84.5 -83.5t31.5 -99.5q0 -50 -28.5 -91t-76 -65.5
t-106.5 -24.5zM388 365q-11 -2 -30 -2q-128 0 -180.5 -30t-52.5 -95q0 -43 21 -72t56 -43.5t75 -14.5q46 0 86 18t65.5 49.5t25.5 71.5q0 35 -19 67.5t-47 50.5z" />
    <glyph glyph-name="dDda" unicode="&#x921;" horiz-adv-x="577" 
d="M355 7q-97 0 -184 65t-145 187l38 22q27 -53 63.5 -98.5t86.5 -73t117 -27.5q56 0 85.5 17.5t40.5 42t11 45.5q0 17 -10 27.5t-28 10.5q-19 0 -50.5 -6t-61.5 -12t-47 -6q-25 0 -52.5 15.5t-51.5 41t-39 57t-15 63.5q0 37 29 59.5t90 22.5h158v85h-384l-34 65v10h599
l34 -65v-10h-134q1 -37 1.5 -78t0.5 -74l-12 -8h-211q-65 0 -65 -46q0 -31 17.5 -48.5t35.5 -17.5q9 0 30 4t47 8.5t50 8.5t39 4q28 0 58.5 -23t52 -60t21.5 -78q0 -26 -18 -56.5t-58 -52t-105 -21.5z" />
    <glyph glyph-name="dDdha" unicode="&#x922;" horiz-adv-x="558" 
d="M355 17q-51 0 -104 21.5t-98.5 60.5t-73.5 93t-28 119q0 54 26.5 85t74 44t110.5 13h108v92h-364l-34 65v10h580l34 -65v-10h-135q1 -43 1.5 -84.5t0.5 -74.5l-12 -8h-176q-64 0 -101.5 -30t-37.5 -91q0 -67 38 -106t97 -52q-13 31 -17.5 54.5t-4.5 43.5q0 32 17.5 56.5
t44.5 38.5t57 14q33 0 70 -16t62.5 -50t25.5 -88q0 -37 -20.5 -68t-56.5 -49t-84 -18zM303 93q11 -1 22 -1q42 0 72.5 14t46.5 35.5t16 43.5q0 24 -18.5 39t-44.5 15q-46 0 -72.5 -32t-26.5 -80q0 -19 5 -34z" />
    <glyph glyph-name="dNna" unicode="&#x923;" horiz-adv-x="713" 
d="M273 158q-38 0 -73 18t-63 46t-44.5 58.5t-18.5 56.5q-1 14 -1 26v23q0 32 0.5 75t0.5 84h-68l-34 65v10h735l34 -65v-10h-117l2 -555h-10l-80 52l4 503h-124v-237q0 -35 -15.5 -70t-47 -57.5t-80.5 -22.5zM159 545l2 -230q0 -48 21 -70t54 -22q38 0 67 25.5t29 77.5v219
h-173z" />
    <glyph glyph-name="dTa" unicode="&#x924;" horiz-adv-x="573" 
d="M223 -10h-10q-71 92 -118 166t-47 138q0 74 57.5 107.5t152.5 33.5h141l1 110h-394l-34 65v10h595l34 -65v-10h-117l2 -555h-10l-80 52l2 318h-129q-73 0 -108.5 -32.5t-35.5 -79.5q0 -22 6.5 -42t22 -44t43 -56.5t69.5 -80.5z" />
    <glyph glyph-name="dTha" unicode="&#x925;" horiz-adv-x="652" 
d="M339 133q-60 0 -110 30.5t-84.5 82t-47.5 112.5q91 26 144 56.5t53 85.5q0 34 -20 48t-48 14q-22 0 -44 -9t-36 -25t-14 -38t15 -35t34 -23v-11q-10 -1 -14.5 -1.5t-10.5 -0.5q-47 0 -74.5 29.5t-27.5 69.5q0 47 36.5 81t95.5 34q52 0 92 -28t63 -69.5t23 -81.5
q0 -41 -22.5 -69.5t-62.5 -49t-92 -39.5q0 -30 16 -52t42.5 -34.5t55.5 -12.5q44 0 91 25.5t85 63.5l2 259h-72l-34 65v10h273l34 -65v-10h-117l2 -555h-10l-80 52l1 141q-38 -28 -70 -39t-67 -11z" />
    <glyph glyph-name="dDa" unicode="&#x926;" horiz-adv-x="527" 
d="M487 -98h-9l-92 161q-28 -8 -63 -8q-52 0 -100 21.5t-86 58.5t-60 83.5t-22 97.5q0 52 26.5 81t73.5 40.5t110 11.5h75v96h-334l-34 65v10h549l34 -65v-10h-133q0 -42 0.5 -86.5t0.5 -76.5l-12 -8h-141q-64 0 -102 -25t-38 -76q0 -47 20.5 -80.5t52.5 -51t67 -17.5
q18 0 38.5 3.5t35.5 12.5q-12 24 -19.5 44t-7.5 34q0 17 9.5 24.5t25.5 7.5q23 0 51.5 -13t50 -33.5t21.5 -44.5q0 -11 -9 -33t-35 -41l108 -150z" />
    <glyph glyph-name="dDha" unicode="&#x927;" horiz-adv-x="654" 
d="M215 417q29 0 60.5 10t76.5 14l37 -78q-106 -10 -147.5 -38.5t-41.5 -64.5q0 -34 29.5 -55t69.5 -21q30 0 75 16.5t106 63.5l2 281h-89l-34 65v10h289l34 -65v-10h-117l2 -555h-10l-79 51l1 120q-40 -24 -75 -33t-64 -9q-49 0 -88.5 18t-67 46.5t-42.5 60.5t-15 60
q0 42 35 74q-44 23 -76 61.5t-32 85.5q0 50 35.5 79t90.5 29q43 0 68.5 -16.5t37.5 -43t12 -55.5q0 -7 -0.5 -14t-1.5 -13h-9q-13 41 -33.5 57t-49.5 16q-34 0 -55.5 -19.5t-21.5 -51.5q0 -39 28 -57.5t60 -18.5z" />
    <glyph glyph-name="dNa" unicode="&#x928;" horiz-adv-x="570" 
d="M598 545h-117l2 -555h-10l-80 52l2 251h-176q0 -58 -6 -81t-29 -23q-21 0 -45 13t-44.5 34t-33.5 46t-13 48q0 28 22.5 34.5t61.5 6.5q18 0 59 -0.5t94.5 -2t109.5 -2.5l2 179h-391l-34 65v10h592l34 -65v-10z" />
    <glyph glyph-name="dNnna" unicode="&#x929;" horiz-adv-x="570" 
d="M598 545h-117l2 -555h-10l-80 52l2 251h-176q0 -58 -6 -81t-29 -23q-21 0 -45 13t-44.5 34t-33.5 46t-13 48q0 28 22.5 34.5t61.5 6.5q18 0 59 -0.5t94.5 -2t109.5 -2.5l2 179h-391l-34 65v10h592l34 -65v-10zM254 128l70 -70l-70 -68l-69 68z" />
    <glyph glyph-name="dPa" unicode="&#x92a;" horiz-adv-x="557" 
d="M278 168q-39 0 -75 18t-65 46t-46 59t-18 56q-1 14 -1 26v23q0 32 0.5 71t0.5 78h-68l-34 65v10h579l34 -65v-10h-117l2 -555h-10l-80 52l1 158q-53 -32 -103 -32zM384 545h-225l2 -220q0 -48 22 -70t47 -22q30 0 67.5 19t84.5 52z" />
    <glyph glyph-name="dPha" unicode="&#x92b;" horiz-adv-x="772" 
d="M656 63h-8l-69 59q35 41 58.5 90.5t23.5 83.5q0 23 -16 38t-36 15q-27 0 -69.5 -25t-88.5 -59l1 -275h-10l-80 54l1 157q-25 -17 -45.5 -25t-44.5 -8q-36 0 -70.5 17.5t-63 45.5t-46 58.5t-18.5 57.5q-1 14 -1 26v23q0 29 0.5 69.5t0.5 79.5h-69l-34 65v10h794l34 -65
v-10h-351l1 -178q49 33 77 45t48 12q18 0 43.5 -12t50 -35t40.5 -57.5t16 -79.5q0 -46 -17.5 -88t-51.5 -89zM364 305l2 240h-206l2 -220q0 -47 21.5 -69.5t43.5 -22.5q29 0 61.5 20t75.5 52z" />
    <glyph glyph-name="dBa" unicode="&#x92c;" horiz-adv-x="602" 
d="M256 128q-54 0 -94.5 19t-67.5 48.5t-40 63t-13 62.5q0 44 26 76.5t70.5 51t97.5 18.5q64 0 114.5 -29t75.5 -81h3l1 188h-423l-34 65v10h624l34 -65v-10h-117l2 -555h-10l-80 52l1 160h-2q-25 -38 -73 -56t-95 -18zM226 192q36 0 68 12l-130 163q-23 -15 -37.5 -36
t-14.5 -49q0 -40 33 -65t81 -25zM205 385l128 -161q23 17 37 40t14 51q0 44 -35 61.5t-81 17.5q-33 0 -63 -9z" />
    <glyph glyph-name="dBha" unicode="&#x92d;" horiz-adv-x="716" 
d="M188 310h70q5 47 7 77t2 62q0 67 -18 90.5t-53 23.5q-25 0 -45 -15t-20 -41t21 -43t43 -29v-11q-10 -1 -14.5 -1.5t-5.5 -0.5q-58 0 -90 35t-32 81q0 31 16 52t40.5 32t49.5 11q38 0 72 -18.5t60.5 -49.5t41.5 -68t15 -73q0 -26 -1 -57t-2 -57h196l2 235h-140l-34 65v10
h341l34 -65v-10h-117l2 -555h-10l-80 52l1 193h-202q-6 -53 -11.5 -75t-24.5 -22q-16 0 -39.5 15.5t-46.5 39.5t-38 49t-15 44q0 10 6 17t19 7z" />
    <glyph glyph-name="dMa" unicode="&#x92e;" horiz-adv-x="612" 
d="M78 310h54l1 235h-127l-34 65v10h634l34 -65v-10h-117l2 -555h-10l-80 52l1 193h-219v-72q0 -25 -23 -25q-15 0 -38.5 15.5t-47 39.5t-39.5 49.5t-16 44.5q0 9 6 16t19 7zM439 545h-224l1 -235h221z" />
    <glyph glyph-name="dYa" unicode="&#x92f;" horiz-adv-x="582" 
d="M289 136q-59 0 -111.5 31.5t-89 84.5t-48.5 119q78 19 114.5 41.5t36.5 56.5q0 13 -6.5 33t-22.5 43h-156l-34 65v10h604l34 -65v-10h-117l2 -555h-10l-80 52l1 130q-30 -20 -60 -28t-57 -8zM409 545h-192q46 -70 46 -119q0 -38 -31.5 -67t-104.5 -49q1 -30 17.5 -55.5
t44 -40.5t61.5 -15t73 17t84 54z" />
    <glyph glyph-name="dRa" unicode="&#x930;" horiz-adv-x="394" 
d="M322 -20h-10l-198 243q-37 45 -52.5 73.5t-15.5 45.5q0 32 51 32q15 0 41 -2t44 -4q5 25 6.5 57.5t1.5 56.5q0 21 -0.5 36t-1.5 27h-182l-34 65v10h416l34 -65v-10h-151q1 -19 2 -42t1 -32q0 -82 -12 -130t-36.5 -72t-60.5 -32l208 -215z" />
    <glyph glyph-name="dRra" unicode="&#x931;" horiz-adv-x="394" 
d="M322 -20h-10l-198 243q-37 45 -52.5 73.5t-15.5 45.5q0 32 51 32q15 0 41 -2t44 -4q5 25 6.5 57.5t1.5 56.5q0 21 -0.5 36t-1.5 27h-182l-34 65v10h416l34 -65v-10h-151q1 -19 2 -42t1 -32q0 -82 -12 -130t-36.5 -72t-60.5 -32l208 -215zM107 128l70 -70l-70 -68l-69 68z
" />
    <glyph glyph-name="dLa" unicode="&#x932;" horiz-adv-x="665" 
d="M264 -10h-10q-61 58 -107 109t-72 99.5t-26 100.5q0 63 36.5 106t99.5 43q48 0 82 -25t62 -58q22 25 47 42.5t53 24.5l-2 113h-421l-34 65v10h687l34 -65v-10h-185l1 -114q39 -12 63.5 -40.5t36 -62.5t11.5 -61q0 -43 -28 -98t-80 -106h-8l-64 55q64 62 91 105t27 80
q0 32 -16.5 50t-45.5 18q-39 0 -78 -37.5t-77 -114.5l-73 46q18 38 38 68q-38 41 -86 41q-38 0 -64.5 -26.5t-26.5 -81.5q0 -36 15.5 -71t54.5 -75.5t108 -94.5z" />
    <glyph glyph-name="dLla" unicode="&#x933;" horiz-adv-x="728" 
d="M530 55q-39 0 -76.5 21.5t-82.5 72.5q-26 -43 -57.5 -66.5t-80.5 -23.5q-50 0 -93.5 26.5t-70 71.5t-26.5 102q0 47 19 89.5t55 69t88 26.5q49 0 88 -26.5t75 -69.5q18 27 40 47.5t55 30.5l-1 119h-456l-34 65v10h750l34 -65v-10h-213l1 -115q47 -8 78.5 -38.5t47.5 -72
t16 -83.5q0 -49 -19 -90t-54 -66t-83 -25zM350 315q-33 35 -58 48.5t-50 13.5q-39 0 -69.5 -25t-47.5 -62t-17 -74q0 -40 24 -67.5t67 -27.5q35 0 58.5 19.5t39.5 49.5t28 63.5t25 61.5zM389 183q25 -30 55 -45t54 -15q30 0 58.5 20t46.5 54.5t18 75.5q0 43 -22 75t-59 32
q-40 0 -70.5 -41.5t-56.5 -101.5q-6 -14 -12 -27.5t-12 -26.5z" />
    <glyph glyph-name="dLlla" unicode="&#x934;" horiz-adv-x="728" 
d="M530 55q-39 0 -76.5 21.5t-82.5 72.5q-26 -43 -57.5 -66.5t-80.5 -23.5q-50 0 -93.5 26.5t-70 71.5t-26.5 102q0 47 19 89.5t55 69t88 26.5q49 0 88 -26.5t75 -69.5q18 27 40 47.5t55 30.5l-1 119h-456l-34 65v10h750l34 -65v-10h-213l1 -115q47 -8 78.5 -38.5t47.5 -72
t16 -83.5q0 -49 -19 -90t-54 -66t-83 -25zM350 315q-33 35 -58 48.5t-50 13.5q-39 0 -69.5 -25t-47.5 -62t-17 -74q0 -40 24 -67.5t67 -27.5q35 0 58.5 19.5t39.5 49.5t28 63.5t25 61.5zM389 183q25 -30 55 -45t54 -15q30 0 58.5 20t46.5 54.5t18 75.5q0 43 -22 75t-59 32
q-40 0 -70.5 -41.5t-56.5 -101.5q-6 -14 -12 -27.5t-12 -26.5zM367 50l70 -70l-70 -68l-69 68z" />
    <glyph glyph-name="dVa" unicode="&#x935;" horiz-adv-x="597" 
d="M251 133q-52 0 -91 18t-65.5 47t-40 62t-13.5 62q0 42 25.5 75t67.5 51.5t91 18.5q60 0 110 -28t87 -71l2 177h-418l-34 65v10h619l34 -65v-10h-117l2 -555h-10l-80 52l1 159q-35 -23 -61 -38t-51.5 -22.5t-57.5 -7.5zM422 313q-32 31 -79.5 53.5t-95.5 22.5
q-55 0 -94 -28.5t-39 -81.5q0 -40 28 -61t66 -21q37 0 86 24t128 84v8z" />
    <glyph glyph-name="dSha" unicode="&#x936;" horiz-adv-x="679" 
d="M166 166q-35 0 -61.5 15.5t-41.5 37.5t-15 42q0 12 7 19.5t29 7.5q26 0 54 -11.5t54 -28.5q27 5 58 21t53 41.5t22 56.5q0 28 -20 48.5t-56 20.5q-25 0 -69.5 -14t-90.5 -43l-45 74q39 24 77 35.5t67 15.5v41h-182l-34 65v10h701l34 -65v-10h-117l2 -560h-10l-80 52
l4 508h-241l1 -48q38 -13 65.5 -40t41.5 -60.5t14 -63.5q0 -39 -19.5 -68.5t-50 -50t-63.5 -32.5l158 -161l-51 -42h-10l-151 190q-18 -3 -34 -3z" />
    <glyph glyph-name="dSsa" unicode="&#x937;" horiz-adv-x="572" 
d="M289 155q-39 0 -77 18t-69 46t-49.5 59t-19.5 57q-1 14 -1 28v25q0 33 0.5 75t0.5 82h-68l-34 65v10h594l34 -65v-10h-117l2 -555h-10l-80 52l1 145q-27 -17 -54 -24.5t-53 -7.5zM159 493l2 -181q1 -32 14 -52.5t31.5 -30t34.5 -9.5q54 0 139 57zM399 545h-231l229 -226z
" />
    <glyph glyph-name="dSa" unicode="&#x938;" horiz-adv-x="679" 
d="M316 -20h-10l-177 216q-49 61 -66 92.5t-17 53.5q0 32 51 32q15 0 41.5 -2t44.5 -4q5 25 6.5 57.5t1.5 56.5q0 22 -0.5 36.5t-1.5 26.5h-183l-34 65v10h701l34 -65v-10h-117l2 -555h-10l-80 52l1 197q-41 -15 -86 -15q-28 0 -72 11.5t-101 57.5q-24 -44 -85 -56l208 -215
zM260 333q12 -7 34.5 -14.5t48 -12.5t48.5 -5q35 0 66 11.5t47 25.5l2 207h-236q2 -19 2.5 -42t0.5 -32q0 -44 -3.5 -80t-9.5 -58z" />
    <glyph glyph-name="dHa" unicode="&#x939;" horiz-adv-x="532" 
d="M440 -121l-11 -43q-120 30 -193 73t-106.5 93t-33.5 101t29 95q-31 26 -53.5 64.5t-22.5 78.5q0 53 43.5 86t136.5 33h135v85h-358l-34 65v10h554l34 -65v-10h-114q0 -38 0.5 -79.5t0.5 -72.5l-12 -8h-188q-59 0 -92 -19t-33 -60q0 -20 10 -39.5t23 -32.5q32 29 74.5 46
t89.5 17t79.5 -15.5t52 -39.5t28.5 -50t9 -47q0 -83 -105 -127l-47 67q33 16 57.5 39.5t24.5 58.5q0 29 -20 42.5t-55 13.5q-47 0 -84.5 -22.5t-59 -58t-21.5 -74.5q0 -35 23 -72.5t80.5 -71.5t158.5 -61z" />
    <glyph glyph-name="dNukta" unicode="&#x93c;" 
d="M-131 -40l70 -70l-70 -68l-69 68z" />
    <glyph glyph-name="dAvagraha" unicode="&#x93d;" horiz-adv-x="496" 
d="M441 545h-178q-37 0 -61.5 -9.5t-24.5 -38.5q0 -27 22.5 -51t54.5 -46t60 -43q31 -22 62 -48t52 -57.5t21 -73.5q0 -43 -21.5 -76.5t-58.5 -53t-84 -19.5q-44 0 -80 17.5t-64.5 45t-50.5 59.5t-38 60l38 22q43 -72 79.5 -101.5t80.5 -29.5q50 0 84 26.5t34 81.5
q0 27 -14.5 48.5t-45.5 45.5t-81 58q-46 32 -76 55.5t-44.5 48.5t-14.5 58q0 44 38.5 70t108.5 26h168l34 -65v-10z" />
    <glyph glyph-name="dSignAa" unicode="&#x93e;" horiz-adv-x="267" 
d="M295 545h-117l2 -560h-10l-80 52l4 508h-88l-34 65v10h289l34 -65v-10z" />
    <glyph glyph-name="dSignI" unicode="&#x93f;" horiz-adv-x="267" 
d="M180 -15h-10l-80 52l4 508h-88l-34 65v10h127q-18 28 -26 55.5t-8 53.5q0 40 20.5 74t63.5 55.5t108 21.5q59 0 120 -20.5t130 -66.5t150 -121l-27 -31q-53 45 -109 81.5t-114.5 58.5t-118.5 22q-53 0 -86.5 -17.5t-48.5 -44.5t-15 -58q0 -17 4.5 -32t12.5 -31h106
l34 -65v-10h-117z" />
    <glyph glyph-name="dSignIi" unicode="&#x940;" horiz-adv-x="267" 
d="M180 -15h-10l-80 52l4 508h-88l-34 65v10h129q-7 67 -30 107t-55.5 58t-67.5 18q-46 0 -71 -24.5t-25 -62.5q0 -26 14 -57l-30 -17q-25 26 -37.5 55.5t-12.5 58.5q0 50 35 87t100 37q57 0 106.5 -31.5t86 -90t53.5 -138.5h94l34 -65v-10h-117z" />
    <glyph glyph-name="dSignU" unicode="&#x941;" 
d="M-202 -139l-54 62q24 22 50 35t59 13q41 0 75 -20t54 -52t20 -68q0 -50 -37.5 -80t-89.5 -30q-47 0 -95 22t-91.5 55t-78 66.5t-53.5 55.5l35 43h7q51 -64 91.5 -102t76.5 -55t73 -17q48 0 74.5 21.5t26.5 51.5q0 25 -15.5 36t-36.5 11q-29 0 -51.5 -17t-39.5 -31z" />
    <glyph glyph-name="dSignUu" unicode="&#x942;" 
d="M131 -286h-7q-18 24 -44 56t-58.5 62.5t-69.5 50.5t-77 20t-63.5 -20.5t-23.5 -49.5q0 -23 14 -37t38 -14q25 0 47 13.5t41 29.5l51 -66q-21 -18 -46.5 -28.5t-55.5 -10.5q-43 0 -77 21t-53.5 54.5t-19.5 68.5q0 47 32 77t81 30q45 0 94.5 -24t95.5 -59.5t82.5 -71.5
t55.5 -61z" />
    <glyph glyph-name="dSignVocalicR" unicode="&#x943;" 
d="M-24 -170l48 -62q-16 -10 -50.5 -24.5t-81.5 -14.5q-58 0 -95 23.5t-55 56.5t-18 59q0 32 21.5 56t57 39t76.5 18l46 -60v-6q-52 -4 -82 -17t-42.5 -29.5t-12.5 -31.5q0 -14 13.5 -29t53.5 -15q25 0 54.5 8t66.5 29z" />
    <glyph glyph-name="dSignVocalicRr" unicode="&#x944;" 
d="M-38 -393q-36 0 -72.5 15.5t-60.5 44t-24 66.5q0 16 6 30q-47 17 -65 48t-18 58q0 34 21 57.5t55.5 37.5t74.5 17l46 -60v-6q-51 -4 -80 -16.5t-41 -28t-12 -30.5q0 -12 9 -26t35 -19q23 19 59 29.5t77 15.5l43 -56v-6q-79 -10 -113 -28t-34 -44q0 -20 18.5 -29t43.5 -9
q36 0 69.5 11t63.5 28l46 -58q-11 -6 -33.5 -16t-52 -18t-61.5 -8z" />
    <glyph glyph-name="dSignCandraE" unicode="&#x945;" 
d="M-331 838l34 18q34 -64 69.5 -90.5t67.5 -26.5q33 0 58.5 20.5t43.5 50t28 56.5l69 -53q-28 -76 -75.5 -108.5t-97.5 -32.5q-66 0 -114.5 46t-82.5 120z" />
    <glyph glyph-name="dSignShortE" unicode="&#x946;" 
d="M-96 608h-73q8 14 10.5 23.5t2.5 16.5q0 23 -15.5 44.5t-35.5 29.5q-37 17 -85.5 21t-98 6t-91.5 9.5t-66 30.5q-15 14 -35.5 46.5t-39.5 72.5l31 16q11 -22 28.5 -41.5t39.5 -28.5q25 -10 59 -13.5t71 -5.5q56 -2 112 -10t94 -40q26 -22 52 -62.5t40 -114.5z" />
    <glyph glyph-name="dSignE" unicode="&#x947;" 
d="M-488 893l1 7q39 7 67 9t37 2q51 0 95 -38t89 -106.5t98 -158.5h-54q-48 83 -80.5 128.5t-57.5 64t-53 18.5q-16 0 -44.5 -3t-51.5 -8z" />
    <glyph glyph-name="dSignAi" unicode="&#x948;" 
d="M-96 608h-83q-38 51 -66 75.5t-50 32.5t-42 8q-24 0 -48.5 -3.5t-52.5 -9.5l-42 77l1 7q45 9 67.5 11.5t35.5 2.5q40 0 72 -18t69.5 -59.5t91.5 -111.5h3q-42 83 -69.5 134.5t-48 78.5t-40.5 36.5t-47 9.5q-21 0 -43.5 -3t-40.5 -7l-42 78l1 7q26 4 52.5 7t43.5 3
q58 0 99.5 -39t82.5 -117.5t96 -199.5z" />
    <glyph glyph-name="dSignCandraO" unicode="&#x949;" horiz-adv-x="267" 
d="M295 545h-117l2 -560h-10l-80 52l4 508h-88l-34 65v10h289l34 -65v-10zM-64 838l34 18q34 -64 69.5 -90.5t67.5 -26.5q33 0 58.5 20.5t43.5 50t28 56.5l69 -53q-28 -76 -75.5 -108.5t-97.5 -32.5q-66 0 -114.5 46t-82.5 120z" />
    <glyph glyph-name="dSignShortO" unicode="&#x94a;" horiz-adv-x="267" 
d="M295 545h-117l2 -560h-10l-80 52l4 508h-88l-34 65v10h132q3 6 5 12q2 9 2 16q0 23 -15.5 44.5t-35.5 29.5q-37 17 -85.5 21t-98 6t-91.5 9.5t-66 30.5q-15 14 -35.5 46.5t-39.5 72.5l31 16q11 -22 28.5 -41.5t39.5 -28.5q25 -10 59 -13.5t71 -5.5q56 -2 112 -10t94 -40
q26 -22 52 -62q24 -38 38 -103h92l34 -65v-10z" />
    <glyph glyph-name="dSignO" unicode="&#x94b;" horiz-adv-x="267" 
d="M295 545h-117l2 -560h-10l-80 52l4 508h-88l-34 65v10h133q-43 74 -73 117q-33 45 -58 63.5t-53 18.5q-16 0 -44.5 -3t-51.5 -8l-46 85l1 7q39 7 67 9t37 2q51 0 95 -38t89 -106q42 -64 91 -147h102l34 -65v-10z" />
    <glyph glyph-name="dSignAu" unicode="&#x94c;" horiz-adv-x="267" 
d="M295 545h-117l2 -560h-10l-80 52l4 508h-88l-34 65v10h107q-32 42 -57 64q-28 24 -50 32t-42 8q-24 0 -48.5 -3.5t-52.5 -9.5l-42 77l1 7q45 9 67.5 11.5t35.5 2.5q40 0 72 -18t69.5 -59.5t91.5 -111.5h3q-42 83 -69.5 134.5t-48 78.5t-40.5 36.5t-47 9.5q-21 0 -43.5 -3
t-40.5 -7l-42 78l1 7q26 4 52.5 7t43.5 3q58 0 99.5 -39t82.5 -117q39 -75 91 -188h95l34 -65v-10z" />
    <glyph glyph-name="dHalant" unicode="&#x94d;" 
d="M-216 -41l2 6q32 6 58 6q33 0 64 -12.5t62 -36.5q13 -10 44 -37t70 -62t76 -71l-34 -38h-7q-48 54 -81 88t-57 52.5t-46.5 25.5t-49.5 7q-24 0 -40 -3t-24 -4z" />
    <glyph glyph-name="dSignEPrish" unicode="&#x94e;" horiz-adv-x="280" 
d="M193 -15h-10l-80 52l4 583h167l34 -65v-10h-117z" />
    <glyph glyph-name="dOm" unicode="&#x950;" horiz-adv-x="986" 
d="M801 138q-21 0 -46 8.5t-52 33.5t-55 72q-17 -15 -37 -24.5t-46 -9.5q-22 0 -45.5 8t-40.5 19l-4 -2q11 -31 11 -59q0 -44 -21.5 -79.5t-59 -55.5t-85.5 -20q-66 0 -115.5 35t-89 92.5t-75.5 126.5l38 22q18 -33 38.5 -68t45.5 -66t56 -50t69 -19q34 0 63 16t47.5 44
t18.5 64q0 43 -24.5 63t-57.5 20q-28 0 -58 -11.5t-53 -22.5l-43 73q27 15 59.5 27t66.5 12h9q27 19 41 44.5t14 51.5q0 28 -17 46.5t-52 18.5q-30 0 -73.5 -13.5t-84.5 -39.5l-44 75q44 26 88.5 38t77.5 12q47 0 79.5 -20.5t52.5 -52.5t29.5 -65t9.5 -59q0 -15 -5 -34.5
t-24 -40.5q22 -27 49 -45t61 -18q35 0 60 18.5t46 45.5t42.5 53.5t49 45t67.5 18.5q42 0 79.5 -22.5t61 -62t23.5 -91.5q0 -46 -19.5 -80t-52 -53t-73.5 -19zM384 732l34 18q35 -65 71 -91.5t69 -26.5q34 0 60 20.5t44.5 50.5t28.5 57l69 -53q-28 -76 -76.5 -108t-99.5 -32
q-67 0 -116.5 45.5t-83.5 119.5zM678 286q17 -40 45.5 -57t50.5 -17q23 0 48.5 14t43.5 41t18 64q0 32 -17.5 53t-51.5 21q-32 0 -55 -18.5t-42.5 -46t-39.5 -54.5zM555 825l65 -65l-65 -63l-64 63z" />
    <glyph glyph-name="dUdatta" unicode="&#x951;" 
d="M-155 917h48v-245h-48v245z" />
    <glyph glyph-name="dAnudatta" unicode="&#x952;" 
d="M-382 -77h319v-52h-319v52z" />
    <glyph glyph-name="dQa" unicode="&#x958;" horiz-adv-x="763" 
d="M645 68h-8l-69 59q35 41 59.5 89t24.5 81q0 26 -14.5 39.5t-33.5 13.5q-21 0 -48 -13.5t-54 -32.5t-49 -36l1 -278h-10l-80 54l1 159q-35 -26 -57.5 -40t-41.5 -19.5t-42 -5.5q-51 0 -91.5 27t-64 68.5t-23.5 82.5q0 43 23 74t59.5 48t75.5 17q51 0 92.5 -26.5
t71.5 -63.5l2 180h-363l-34 65v10h785l34 -65v-10h-340l1 -176q33 23 64.5 39.5t54.5 16.5q18 0 42.5 -11.5t48 -34.5t39 -57t15.5 -79q0 -46 -18.5 -87t-52.5 -88zM366 304v6q-26 28 -62 48t-75 20q-43 0 -77.5 -26t-34.5 -75q0 -38 20 -56.5t47 -18.5q24 0 54.5 15.5
t63.5 38.5t64 48zM205 90l70 -70l-70 -68l-69 68z" />
    <glyph glyph-name="dKhha" unicode="&#x959;" horiz-adv-x="815" 
d="M322 -20h-10l-198 243q-37 45 -52.5 73.5t-15.5 45.5q0 32 51 32q14 0 37.5 -2t41.5 -4q5 25 6.5 57.5t1.5 56.5q0 20 -0.5 34.5t-1.5 28.5h-176l-34 65v10h837l34 -65v-10h-117l2 -555h-10l-80 52l1 169q-42 -33 -71 -44.5t-67 -11.5q-43 0 -83 24t-65.5 64.5
t-25.5 87.5q0 41 21 70.5t56 45.5t76 16q93 0 160 -85l2 167h-377q2 -22 2.5 -43.5t0.5 -30.5q0 -82 -12 -130t-35 -72t-56 -32l208 -215zM640 312v12q-29 31 -65 48t-71 17q-43 0 -74 -24.5t-31 -75.5q0 -37 22 -54.5t52 -17.5q29 0 66.5 18.5t100.5 76.5zM155 50l70 -70
l-70 -68l-69 68z" />
    <glyph glyph-name="dGhha" unicode="&#x95a;" horiz-adv-x="583" 
d="M611 545h-117l2 -555h-10l-79 51l4 504h-186l2 -350q0 -25 -23 -25q-16 0 -41.5 16t-50.5 40.5t-42 51t-17 46.5q0 9 6 16t19 7h64l1 198h-137l-34 65v10h605l34 -65v-10zM255 100l70 -70l-70 -68l-69 68z" />
    <glyph glyph-name="dZa" unicode="&#x95b;" horiz-adv-x="735" 
d="M325 85q-51 0 -94.5 25.5t-80.5 69t-68.5 98.5t-59.5 115l41 18q52 -109 110 -177t125 -68q41 0 64 23.5t23 56.5q0 32 -24.5 62.5t-73.5 52.5l-27 58v11h301l1 115h-556l-34 65v10h757l34 -65v-10h-117l2 -555h-10l-80 52l2 313h-177q40 -41 60.5 -75t20.5 -72
q0 -39 -19.5 -66.5t-51 -42t-68.5 -14.5zM308 40l70 -70l-70 -68l-69 68z" />
    <glyph glyph-name="dDddha" unicode="&#x95c;" horiz-adv-x="577" 
d="M355 7q-97 0 -184 65t-145 187l38 22q27 -53 63.5 -98.5t86.5 -73t117 -27.5q56 0 85.5 17.5t40.5 42t11 45.5q0 17 -10 27.5t-28 10.5q-19 0 -50.5 -6t-61.5 -12t-47 -6q-25 0 -52.5 15.5t-51.5 41t-39 57t-15 63.5q0 37 29 59.5t90 22.5h158v85h-384l-34 65v10h599
l34 -65v-10h-134q1 -37 1.5 -78t0.5 -74l-12 -8h-211q-65 0 -65 -46q0 -31 17.5 -48.5t35.5 -17.5q9 0 30 4t47 8.5t50 8.5t39 4q28 0 58.5 -23t52 -60t21.5 -78q0 -26 -18 -56.5t-58 -52t-105 -21.5zM354 -40l70 -70l-70 -68l-69 68z" />
    <glyph glyph-name="dRha" unicode="&#x95d;" horiz-adv-x="558" 
d="M355 17q-51 0 -104 21.5t-98.5 60.5t-73.5 93t-28 119q0 54 26.5 85t74 44t110.5 13h108v92h-364l-34 65v10h580l34 -65v-10h-135q1 -43 1.5 -84.5t0.5 -74.5l-12 -8h-176q-64 0 -101.5 -30t-37.5 -91q0 -67 38 -106t97 -52q-13 31 -17.5 54.5t-4.5 43.5q0 32 17.5 56.5
t44.5 38.5t57 14q33 0 70 -16t62.5 -50t25.5 -88q0 -37 -20.5 -68t-56.5 -49t-84 -18zM303 93q11 -1 22 -1q42 0 72.5 14t46.5 35.5t16 43.5q0 24 -18.5 39t-44.5 15q-46 0 -72.5 -32t-26.5 -80q0 -19 5 -34zM354 -40l70 -70l-70 -68l-69 68z" />
    <glyph glyph-name="dFa" unicode="&#x95e;" horiz-adv-x="772" 
d="M656 63h-8l-69 59q35 41 58.5 90.5t23.5 83.5q0 23 -16 38t-36 15q-27 0 -69.5 -25t-88.5 -59l1 -275h-10l-80 54l1 157q-25 -17 -45.5 -25t-44.5 -8q-36 0 -70.5 17.5t-63 45.5t-46 58.5t-18.5 57.5q-1 14 -1 26v23q0 29 0.5 69.5t0.5 79.5h-69l-34 65v10h794l34 -65
v-10h-351l1 -178q49 33 77 45t48 12q18 0 43.5 -12t50 -35t40.5 -57.5t16 -79.5q0 -46 -17.5 -88t-51.5 -89zM364 305l2 240h-206l2 -220q0 -47 21.5 -69.5t43.5 -22.5q29 0 61.5 20t75.5 52zM212 110l70 -70l-70 -68l-69 68z" />
    <glyph glyph-name="dYya" unicode="&#x95f;" horiz-adv-x="582" 
d="M289 136q-59 0 -111.5 31.5t-89 84.5t-48.5 119q78 19 114.5 41.5t36.5 56.5q0 13 -6.5 33t-22.5 43h-156l-34 65v10h604l34 -65v-10h-117l2 -555h-10l-80 52l1 130q-30 -20 -60 -28t-57 -8zM409 545h-192q46 -70 46 -119q0 -38 -31.5 -67t-104.5 -49q1 -30 17.5 -55.5
t44 -40.5t61.5 -15t73 17t84 54zM238 90l70 -70l-70 -68l-69 68z" />
    <glyph glyph-name="dVocalicRr" unicode="&#x960;" horiz-adv-x="861" 
d="M379 243l-236 -163l-59 58l277 180q-56 42 -85.5 60.5t-54.5 18.5q-26 0 -62.5 -18.5t-70.5 -35.5l-53 69v5q44 19 84 36t71 17q28 0 51 -11t54 -36.5t85 -68.5l2 191h-376l-34 65v10h883l34 -65v-10h-423l1 -214h23q47 0 80.5 14t50.5 31q-11 21 -17 37.5t-6 31.5
q0 18 9 25t25 7q21 0 48.5 -12.5t47.5 -33t20 -45.5q0 -17 -9.5 -31.5t-24.5 -26.5q19 -35 34.5 -66.5t32.5 -73.5l-2 -5q-75 -15 -111 -31t-46.5 -31.5t-10.5 -29.5t8 -28t34 -19q24 20 62.5 31t81.5 15l43 -56v-6q-85 -10 -120 -28.5t-35 -44.5q0 -20 18.5 -29t45.5 -9
q33 0 68 11.5t69 30.5l46 -58q-12 -7 -36 -18t-54.5 -19t-60.5 -8q-38 0 -74.5 15.5t-60.5 44t-24 66.5q0 16 6 30q-47 17 -64 48.5t-17 59.5q0 41 34.5 71t115.5 51q-6 16 -13 29t-16 31q-28 -12 -59.5 -18t-59.5 -6q-39 0 -82 7l1 -295h-10l-80 52l2 201h-1z" />
    <glyph glyph-name="dVocalicLl" unicode="&#x961;" horiz-adv-x="682" 
d="M254 -10h-10q-58 60 -102 110t-68.5 98t-24.5 100q0 42 16.5 77.5t47.5 57t73 21.5q49 0 83 -26.5t61 -58.5q23 26 49.5 44.5t54.5 25.5l-1 106h-427l-34 65v10h704l34 -65v-10h-196l1 -115q46 -20 75.5 -64.5t29.5 -92.5q0 -36 -14 -63t-34.5 -48t-41 -39t-34.5 -36
t-14 -39q0 -14 7.5 -27t28.5 -22q22 17 52 27.5t65 17.5l46 -61v-6q-72 -10 -104 -31.5t-32 -47.5q0 -21 17.5 -29.5t42.5 -8.5q30 0 59 9.5t62 28.5l48 -62q-15 -10 -51 -25t-79 -15q-39 0 -76.5 16t-61.5 44.5t-24 67.5q0 23 9 42q-46 24 -62.5 53t-16.5 57q0 27 14.5 50
t36 44t43 42.5t36 45t14.5 51.5t-17.5 45t-46.5 17q-37 0 -76 -35.5t-77 -112.5l-76 38q16 40 43 78q-15 17 -37 29t-47 12q-40 0 -66.5 -30.5t-26.5 -85.5q0 -36 15 -70t51.5 -74.5t101.5 -94.5z" />
    <glyph glyph-name="dSignVocalicL" unicode="&#x962;" 
d="M-55 -411q-31 0 -58.5 17t-44.5 43t-17 51t14 46t33 41t33 40.5t14 43.5q0 40 -41 40q-29 0 -62 -29.5t-65 -94.5l-64 32q17 43 47 80q-22 16 -51 16q-34 0 -56 -23.5t-22 -65.5q0 -24 11 -47t38 -50t75 -64l-38 -31h-7q-65 64 -105.5 114t-40.5 106q0 50 31 86.5
t84 36.5q34 0 59 -15.5t45 -36.5q21 20 45 33t48 13q29 0 58 -16.5t48.5 -45.5t19.5 -66q0 -32 -13.5 -56t-32 -43.5t-32 -37.5t-13.5 -38q0 -14 8 -19.5t18 -5.5q18 0 41 13t51 47l47 -50q-27 -35 -52 -49.5t-53 -14.5z" />
    <glyph glyph-name="dSignVocalicLl" unicode="&#x963;" 
d="M-309 -366h-7q-65 64 -105.5 114t-40.5 106q0 50 31 86.5t84 36.5q34 0 59 -15.5t45 -36.5q21 20 45 33t48 13q29 0 58 -16.5t48.5 -45.5t19.5 -66q0 -34 -15.5 -59t-35.5 -44t-35.5 -35t-15.5 -33q0 -10 7 -19t27 -17q12 18 32.5 33t45.5 30l44 -46q-43 -25 -63.5 -48.5
t-20.5 -40.5q0 -12 8 -16.5t17 -4.5q21 0 45 19t51 50l44 -45q-25 -37 -53 -52.5t-57 -15.5q-25 0 -50.5 11t-43 30.5t-17.5 46.5q0 9 2 17q-79 43 -79 96q0 22 16 42t37 40.5t37 42t16 46.5q0 40 -41 40q-29 0 -62 -29.5t-65 -94.5l-64 32q17 43 47 80q-22 16 -51 16
q-34 0 -56 -23.5t-22 -65.5q0 -24 11 -47t38 -50t75 -64z" />
    <glyph glyph-name="Danda" unicode="&#x964;" horiz-adv-x="256" 
d="M171 -15h-10l-76 50v595h10l76 -50v-595z" />
    <glyph glyph-name="DoubleDanda" unicode="&#x965;" horiz-adv-x="442" 
d="M362 -15h-10l-76 50v593h10l76 -50v-593zM166 -13h-10l-76 50v593h10l76 -50v-593z" />
    <glyph glyph-name="dZero" unicode="&#x966;" horiz-adv-x="534" 
d="M252 501q46 0 87.5 -19.5t73.5 -52.5t50.5 -73.5t18.5 -83.5q0 -53 -28.5 -97t-75 -70t-100.5 -26q-43 0 -83.5 18t-73 49.5t-51 72.5t-18.5 87q0 58 29 102t74.5 68.5t96.5 24.5zM300 430q-46 0 -86 -25t-65 -64t-25 -82q0 -42 27 -75.5t83 -33.5q46 0 84.5 23t62.5 62
t24 86t-26.5 78t-78.5 31z" />
    <glyph glyph-name="dOne" unicode="&#x967;" horiz-adv-x="496" 
d="M392 -157l-62 67q25 18 25 40q0 14 -9.5 28.5t-34.5 38t-71.5 64t-121.5 106.5v7q28 20 55.5 41.5t54.5 45.5q-65 41 -108 87.5t-43 99.5q0 31 16.5 61t48 49.5t75.5 19.5q42 0 78 -17.5t63 -46t42 -62t15 -64.5q0 -53 -47 -109t-148 -140q69 -58 113.5 -97t69 -65
t34 -43.5t9.5 -34.5q0 -19 -12.5 -37.5t-41.5 -38.5zM260 312q37 37 57.5 72t20.5 61q0 15 -7 35t-25.5 35t-53.5 15q-33 0 -53 -14.5t-28.5 -35t-8.5 -39.5q0 -29 21.5 -61t76.5 -68z" />
    <glyph glyph-name="dTwo" unicode="&#x968;" horiz-adv-x="538" 
d="M395 -139h-10l-152 291q-10 -1 -19 -1q-55 0 -77 18t-22 64q0 45 14.5 65t29.5 20q18 0 39.5 -23.5t44.5 -52.5q70 17 112 67t42 113q0 47 -26 76t-80 29q-41 0 -91.5 -16t-95.5 -39l-44 75q46 24 93 37.5t88 13.5q61 0 112.5 -27.5t83 -75t31.5 -108.5t-27.5 -106.5
t-70 -75.5t-87.5 -43l170 -271z" />
    <glyph glyph-name="dThree" unicode="&#x969;" horiz-adv-x="527" 
d="M327 -146h-9l-95 168q-75 4 -104 30t-29 70q0 32 10.5 51t28.5 19q41 0 110 -100q71 0 107.5 36t36.5 83q0 45 -26.5 67.5t-64.5 22.5q-30 0 -66 -11t-61 -22l-42 71q27 14 64 26t69 12q12 0 26 -3q26 15 42 38t16 50q0 30 -22.5 47t-60.5 17q-35 0 -81 -14.5t-87 -38.5
l-44 75q42 22 89.5 36t84.5 14q45 0 89.5 -21.5t73.5 -61t29 -93.5q0 -28 -10 -48t-35 -41q37 -26 64 -64.5t27 -85.5q0 -40 -23.5 -74.5t-63.5 -57.5t-90 -28l99 -136z" />
    <glyph glyph-name="dFour" unicode="&#x96a;" horiz-adv-x="552" 
d="M299 26q-42 0 -78 21t-58.5 54.5t-22.5 71.5q0 33 20.5 73t69.5 93q-38 35 -73 63.5t-76.5 60.5t-100.5 76l49 47q66 -57 130 -114t106 -96q36 35 93 89.5t134 126.5h7l38 -71q-56 -51 -114 -106t-98 -96q55 -57 78 -97t23 -78q0 -33 -17.5 -60t-46.5 -42.5t-63 -15.5z
M291 283q-44 -48 -65 -83t-21 -58t17 -37.5t44 -14.5q36 0 64.5 23.5t28.5 57.5q0 18 -13 44t-55 68z" />
    <glyph glyph-name="dFive" unicode="&#x96b;" horiz-adv-x="557" 
d="M446 195l143 -318l-62 -22l-10 2l-110 304q-23 -17 -53 -30t-61 -13q-36 0 -75 18.5t-72.5 50t-54 71t-20.5 81.5q0 22 6 64t16 92.5t23 96.5h10l78 -57q-14 -45 -26 -91.5t-19 -85.5t-7 -63q0 -48 28 -75.5t72 -27.5q36 0 66.5 16t50.5 43q-10 23 -16.5 48.5t-6.5 36.5
t7.5 21t26.5 10q21 0 47 -13t45.5 -33t19.5 -42q0 -14 -11.5 -37t-34.5 -47z" />
    <glyph glyph-name="dSix" unicode="&#x96c;" horiz-adv-x="543" 
d="M511 -137h-9l-96 169q-37 -12 -83 -12q-71 0 -121.5 29.5t-77.5 73t-27 85.5q0 38 18 67t50 49q-44 35 -69.5 71.5t-25.5 75.5q0 41 26.5 69t72 42t100.5 14q23 0 45.5 -2t44.5 -6l28 -79q-19 3 -44 5.5t-50 2.5q-34 0 -67 -7.5t-55 -26t-22 -51.5q0 -34 21.5 -55
t46.5 -27q35 14 77.5 22.5t87.5 12.5l39 -74q-99 -5 -153 -28t-75.5 -53.5t-21.5 -61.5q0 -38 28 -60.5t82 -22.5q23 0 44.5 5t39.5 13q-9 17 -18 38t-9 38q0 14 8 23.5t28 9.5q23 0 49.5 -12.5t45.5 -33t19 -45.5q0 -39 -38 -67l113 -158z" />
    <glyph glyph-name="dSeven" unicode="&#x96d;" horiz-adv-x="633" 
d="M357 24q-91 0 -161 67t-113.5 192.5t-57.5 298.5l48 4q22 -241 92.5 -361t178.5 -120q70 0 108 44.5t46 116.5q-15 -7 -34 -11t-37 -4q-45 0 -85 25t-65 64t-25 81q0 35 17.5 62.5t46.5 43.5t64 16q49 0 93 -32.5t72 -92t28 -141.5q0 -86 -30.5 -142.5t-80 -83.5
t-105.5 -27zM498 346q-5 64 -27.5 96.5t-57.5 32.5q-33 0 -56.5 -24.5t-23.5 -64.5q0 -34 18 -53.5t49 -19.5q20 0 49 9t49 24z" />
    <glyph glyph-name="dEight" unicode="&#x96e;" horiz-adv-x="507" 
d="M417 179l62 -62q-46 -46 -97 -71t-107 -25q-54 0 -95.5 19.5t-70 50t-43 63t-14.5 59.5q0 25 14.5 56.5t48 75t91 104.5t142.5 145h7l40 -73q-97 -95 -156.5 -161.5t-87 -111t-27.5 -75.5q0 -38 33 -62t82 -24q46 0 88.5 24t89.5 68z" />
    <glyph glyph-name="dNine" unicode="&#x96f;" horiz-adv-x="495" 
d="M418 -137l-62 67q17 12 21.5 23.5t4.5 27.5q0 24 -16.5 51t-53 66.5t-97.5 100.5q-50 51 -82.5 85t-50.5 58.5t-25 45t-7 43.5q0 49 24.5 86.5t63 59t78.5 21.5q36 0 70 -15t61.5 -41t43.5 -58t16 -65q0 -41 -25 -75.5t-65 -58.5t-85 -33q6 -6 12 -12.5t13 -13.5
q82 -85 129.5 -139.5t67.5 -88t20 -57.5q0 -42 -56 -78zM172 317q67 12 112 49t45 89q0 35 -21 55t-56 20q-32 0 -58.5 -17t-42 -46t-15.5 -64q0 -26 6.5 -43t29.5 -43z" />
    <glyph glyph-name="dAbbreviation" unicode="&#x970;" horiz-adv-x="411" 
d="M195 445q41 0 77 -22t58.5 -57.5t22.5 -76.5q0 -37 -19.5 -67t-50.5 -47.5t-68 -17.5q-40 0 -76 21t-58.5 56t-22.5 77q0 40 19.5 70t51 47t66.5 17zM226 390q-29 0 -55 -16t-41.5 -40.5t-15.5 -52.5t18 -48.5t54 -20.5q29 0 53.5 14.5t39.5 39t15 54.5q0 33 -19 51.5
t-49 18.5z" />
    <glyph glyph-name="dDot" unicode="&#x971;" horiz-adv-x="259" 
d="M129 652l70 -70l-70 -68l-69 68z" />
    <glyph glyph-name="dCandraA" unicode="&#x972;" horiz-adv-x="787" 
d="M309 71q-65 0 -113.5 32.5t-86.5 87t-73 120.5l38 22q26 -47 53.5 -90.5t63.5 -71t88 -27.5q33 0 62.5 14.5t48.5 40.5t19 61q0 37 -24.5 56t-57.5 19q-28 0 -58 -11.5t-53 -22.5l-43 73q27 15 59.5 27t66.5 12h9q27 17 41 40.5t14 47.5q0 26 -16 43t-51 17
q-28 0 -72 -13.5t-85 -39.5l-44 75q44 26 88.5 38t76.5 12q46 0 78 -19.5t52 -49.5t29.5 -61.5t9.5 -55.5q0 -16 -5 -34t-24 -39q6 -5 13 -14q17 -19 39.5 -34t66.5 -15q55 0 93 33l2 201h-107l-34 65v10h308l34 -65v-10h-117l2 -555h-10l-80 52l1 201q-8 -3 -17 -4t-19 -1
q-28 0 -55.5 10t-47.5 23l-4 -2q6 -14 8.5 -28.5t2.5 -27.5q0 -41 -22.5 -73t-60.5 -50.5t-87 -18.5zM456 838l34 18q34 -64 69.5 -90.5t67.5 -26.5q33 0 58.5 20.5t43.5 50t28 56.5l69 -53q-28 -76 -75.5 -108.5t-97.5 -32.5q-66 0 -114.5 46t-82.5 120z" />
    <glyph glyph-name="dJjya" unicode="&#x97a;" horiz-adv-x="582" 
d="M610 545h-112l2 -555h-10l-80 52l1 125q-29 -19 -61.5 -27.5t-60.5 -8.5q-59 0 -111.5 32t-89 86.5t-48.5 120.5q78 19 114.5 42t36.5 57q0 29 -29 76h-156l-34 65v10h604l34 -65v-10zM257 409q-5 -32 -35 -57t-95 -43q1 -30 17.5 -56t44 -42.5t61.5 -16.5q28 0 60.5 11
t65.5 32zM414 545h-199l196 -282h1z" />
    <glyph glyph-name="SvastiRight" unicode="&#xfd5;" horiz-adv-x="826" 
d="M451 7h-317l-34 65v10h275v193h-268v317l65 34h10v-275h193v269h317l34 -65v-10h-275v-194h269v-317l-65 -34h-10v275h-194v-268z" />
    <glyph glyph-name="SvastiLeft" unicode="&#xfd6;" horiz-adv-x="826" 
d="M692 7h-317v268h-194v-275h-10l-65 34v317h269v194h-275v10l34 65h317v-269h193v275h10l65 -34v-317h-268v-193h275v-10z" />
    <glyph glyph-name="SvastiRightDots" unicode="&#xfd7;" horiz-adv-x="826" 
d="M451 7h-317l-34 65v10h275v193h-268v317l65 34h10v-275h193v269h317l34 -65v-10h-275v-194h269v-317l-65 -34h-10v275h-194v-268zM602 448l-54 -54l-54 54l54 54zM602 178l-54 -53l-54 53l54 54zM331 448l-53 -54l-54 54l54 54zM331 178l-53 -53l-54 53l54 54z" />
    <glyph glyph-name="SvastiLeftDots" unicode="&#xfd8;" horiz-adv-x="826" 
d="M692 7h-317v268h-194v-275h-10l-65 34v317h269v194h-275v10l34 65h317v-269h193v275h10l65 -34v-317h-268v-193h275v-10zM332 448l-54 -54l-54 54l54 54zM332 178l-54 -53l-54 53l54 54zM602 448l-54 -54l-53 54l53 54zM602 178l-54 -53l-53 53l53 54z" />
    <glyph glyph-name="vKarshana" unicode="&#x1cd0;" 
d="M-320 716l1 8l185 166h4l172 -187l-34 -31h-4l-121 136l-148 -140z" />
    <glyph glyph-name="vShara" unicode="&#x1cd1;" 
d="M-323 782l1 8l187 170h4l169 -187l-33 -30h-4l-128 145l-152 -143zM-154 843h46v-181h-46v181z" />
    <glyph glyph-name="vPrenkha" unicode="&#x1cd2;" 
d="M-291 780h319v-52h-319v52z" />
    <glyph glyph-name="vNihshvasa" unicode="&#x1cd3;" horiz-adv-x="418" 
d="M218 545l109 188h61l-109 -188h-61zM90 545l109 188h60l-109 -188h-60z" />
    <glyph glyph-name="vSvaritaYajurMidline" unicode="&#x1cd4;" 
d="M-284 283l-31 58v5h337l31 -58v-5h-337z" />
    <glyph glyph-name="vSvaritaYajurAggravated" unicode="&#x1cd5;" 
d="M-533 -68l33 19q20 -54 50 -72t58 -18q32 0 51 15t30 37t18 41l69 -46q14 -27 36.5 -37t43.5 -10q32 0 51 16t30 37.5t17 39.5l71 -46q-23 -61 -60 -87.5t-82 -26.5q-46 0 -76.5 21.5t-48.5 53.5q-44 -75 -124 -75q-64 0 -105.5 41t-61.5 97z" />
    <glyph glyph-name="vSvaritaYajurIndependent" unicode="&#x1cd6;" 
d="M-407 -265v215h48v-163h296v-52h-344z" />
    <glyph glyph-name="vSvaritaYajurKathaka" unicode="&#x1cd7;" 
d="M-74 -37l-2 -9q-7 1 -19 1.5t-22 0.5q-49 0 -81 -19t-32 -54t36 -51t101 -16q26 0 57.5 3.5t89.5 16.5l5 -6l14 -54q-43 -7 -79.5 -10t-65.5 -3q-67 0 -110.5 14.5t-67 37t-33 47t-9.5 44.5q0 30 17.5 58.5t55 47.5t97.5 19h13t13 -1z" />
    <glyph glyph-name="vCandraBelow" unicode="&#x1cd8;" 
d="M-448 -69l30 25q43 -54 88.5 -76t87.5 -22t74 16.5t55 41t36 48.5l69 -51q-34 -66 -90.5 -94t-116.5 -28q-77 0 -134.5 38.5t-98.5 101.5z" />
    <glyph glyph-name="vSvaritaYajurKathakaSchroeder" unicode="&#x1cd9;" 
d="M-290 -208l1 8l155 164h4l211 -185l-34 -31h-4l-152 141l-126 -145z" />
    <glyph glyph-name="vSvarita2" unicode="&#x1cda;" 
d="M-205 917h48v-245h-48v245zM-105 917h48v-245h-48v245z" />
    <glyph glyph-name="vSvarita3" unicode="&#x1cdb;" 
d="M-255 917h48v-245h-48v245zM-155 917h48v-245h-48v245zM-55 917h48v-245h-48v245z" />
    <glyph glyph-name="vAnudattaKathaka" unicode="&#x1cdc;" 
d="M-155 -50h48v-245h-48v245z" />
    <glyph glyph-name="vDotBelow" unicode="&#x1cdd;" 
d="M-131 -100l65 -65l-65 -63l-64 63z" />
    <glyph glyph-name="vDot2Below" unicode="&#x1cde;" 
d="M-205 -100l65 -65l-65 -63l-64 63zM-59 -100l65 -65l-65 -63l-64 63z" />
    <glyph glyph-name="vDot3Below" unicode="&#x1cdf;" 
d="M-366 -100l65 -65l-65 -63l-64 63zM-220 -100l65 -65l-65 -63l-64 63zM-74 -100l65 -65l-65 -63l-64 63z" />
    <glyph glyph-name="vSvaritaRigKashmiri" unicode="&#x1ce0;" 
d="M-73 721l3 -5l-5 -40q-25 -3 -48 -3q-52 0 -84 18t-46.5 46t-14.5 57q0 49 32 78t82.5 42t103.5 13q19 0 42 -1.5t44 -6.5l34 -67l-3 -10q-20 5 -45 8t-54 3q-39 0 -79 -8t-66.5 -26t-26.5 -50q0 -31 25.5 -42.5t53.5 -11.5q14 0 28 2t24 4z" />
    <glyph glyph-name="vSvaritaAtharva" unicode="&#x1ce1;" horiz-adv-x="231" 
d="M126 -6q0 32 -3.5 87.5t-8.5 125t-11.5 143.5t-11.5 143t-8.5 124t-3.5 85q0 83 31 131t99 48q17 0 33 -3t26 -8l33 -62l-2 -9q-31 10 -60 10q-47 0 -75.5 -29.5t-28.5 -109.5q0 -29 3.5 -83t8.5 -123.5t11.5 -144.5t11.5 -145.5t8.5 -127t3.5 -89.5q0 -85 -30 -129
t-103 -44q-10 0 -25 1.5t-25 6.5l-32 60l2 9q31 -10 59 -10q48 0 73 31t25 112z" />
    <glyph glyph-name="vVisargaSvaritacomb" unicode="&#x1ce2;" 
d="M215 239h-397l-32 61v10h397l32 -61v-10z" />
    <glyph glyph-name="vVisargaUdattacomb" unicode="&#x1ce3;" 
d="M-123 319l2 4q28 -6 54.5 -9.5t50.5 -3.5q75 0 114 33.5t39 85.5q0 50 -35 99t-97 121l28 26q36 -40 74.5 -87.5t65 -97.5t26.5 -100q0 -67 -52.5 -110.5t-141.5 -43.5q-16 0 -37.5 2t-44.5 8z" />
    <glyph glyph-name="vVisargaUdattaReversedcomb" unicode="&#x1ce4;" 
d="M83 315l42 -65l-2 -4q-49 -12 -101 -12q-58 0 -108 17t-80.5 53.5t-30.5 94.5q0 50 23.5 95t61.5 89.5t81 91.5l28 -26q-61 -70 -96.5 -120t-35.5 -100q0 -52 39 -85.5t113 -33.5q31 0 66 5z" />
    <glyph glyph-name="vVisargaAnudattacomb" unicode="&#x1ce5;" 
d="M125 230l-2 -4q-28 6 -54.5 9.5t-50.5 3.5q-75 0 -114 -33.5t-39 -85.5q0 -50 35.5 -99t96.5 -121l-28 -26q-36 41 -74.5 88t-65 97.5t-26.5 99.5q0 67 52.5 110.5t141.5 43.5q16 0 37.5 -2t44.5 -8z" />
    <glyph glyph-name="vVisargaAnudattaReversedcomb" unicode="&#x1ce6;" 
d="M-81 234l-42 65l2 4q50 12 101 12q58 0 108 -17t80.5 -53.5t30.5 -94.5q0 -49 -23.5 -94.5t-61.5 -89.5t-81 -92l-28 26q62 71 97 120.5t35 99.5q0 52 -39 85.5t-113 33.5q-31 0 -66 -5z" />
    <glyph glyph-name="vVisargaUdattaTailcomb" unicode="&#x1ce7;" 
d="M303 670l-28 -18q-29 44 -56.5 58t-52.5 14q-36 0 -59 -20.5t-23 -51.5q0 -28 17.5 -55.5t40 -57.5t40 -65.5t17.5 -79.5q0 -71 -52.5 -114.5t-141.5 -43.5q-16 0 -37.5 2t-44.5 8l-46 73l2 4q28 -6 54.5 -9.5t50.5 -3.5q76 0 114.5 34t38.5 86q0 39 -17.5 69.5t-40 58
t-40 57t-17.5 65.5q0 48 33.5 78t83.5 30q43 0 83 -26.5t81 -91.5z" />
    <glyph glyph-name="vVisargaAnudattaTailcomb" unicode="&#x1ce8;" 
d="M-301 -121l28 18q29 -43 56.5 -57.5t52.5 -14.5q36 0 59 20.5t23 52.5q0 30 -17.5 56t-40 54t-40 62.5t-17.5 80.5q0 76 52.5 119t141.5 43q16 0 37.5 -2t44.5 -8l46 -73l-2 -4q-28 6 -54.5 9.5t-50.5 3.5q-76 0 -114.5 -33.5t-38.5 -88.5q0 -41 17.5 -70.5t40 -55
t40 -54t17.5 -66.5q0 -50 -33.5 -80t-83.5 -30q-43 0 -83 26.5t-81 91.5z" />
    <glyph glyph-name="vAnusvaraAntargomukha" unicode="&#x1ce9;" horiz-adv-x="785" 
d="M387 488q0 -134 -239 -163q4 -88 39 -143.5t88.5 -81.5t113.5 -26q36 0 80 11.5t86 41t72 81.5t39 134q-63 14 -116 37t-84.5 58t-31.5 85t32.5 80.5t81.5 30.5q48 0 90.5 -31t69.5 -92.5t27 -155.5q0 -105 -37 -183t-105 -121t-162 -43q-74 0 -138 27t-112 77t-74.5 119
t-26.5 152q0 82 24.5 137t64.5 83t86 28q43 0 72.5 -21.5t44.5 -54t15 -66.5zM668 383v11q0 73 -15 109.5t-35.5 49.5t-39.5 13q-22 0 -41 -15t-19 -50q0 -45 38 -73t112 -45zM151 402q83 8 134.5 40t51.5 72q0 17 -11.5 31t-40.5 14q-43 0 -83 -37.5t-51 -119.5z" />
    <glyph glyph-name="vAnusvaraBahirgomukha" unicode="&#x1cea;" horiz-adv-x="867" 
d="M807 493q0 -72 -51 -107.5t-139 -48.5q15 -39 31 -78.5t16 -84.5q0 -49 -23 -90t-67 -65t-108 -24q-56 0 -103.5 18.5t-82.5 49t-54.5 69t-19.5 77.5q0 33 11.5 67t27 69.5t27 71.5t11.5 71q0 38 -15 57.5t-40 19.5q-19 0 -38 -11.5t-31.5 -30.5t-12.5 -43
q0 -34 23.5 -53t49.5 -30v-11q-11 -1 -16 -1.5t-13 -0.5q-53 0 -86.5 35.5t-33.5 88.5q0 54 34 89.5t88 35.5q39 0 70 -19t52.5 -48.5t33 -62.5t11.5 -62q0 -32 -11.5 -65.5t-26.5 -68t-26.5 -67.5t-11.5 -65q0 -42 21.5 -67.5t53.5 -37t63 -11.5q15 0 40.5 4t52 16.5
t45 38.5t18.5 70q0 33 -10 64t-23.5 62t-23.5 64t-10 70q0 47 18.5 89t53.5 69t84 27q34 0 66.5 -15t53.5 -45.5t21 -79.5zM596 414q87 11 124 40.5t37 58.5q0 20 -15.5 36t-45.5 16q-43 0 -72 -36.5t-29 -91.5q0 -11 1 -23z" />
    <glyph glyph-name="vAnusvaraVamagomukha" unicode="&#x1ceb;" horiz-adv-x="811" 
d="M454 7q-90 0 -159 37t-114 100t-64 141q64 24 110.5 49t72 58.5t25.5 82.5q0 47 -21 69t-51 22q-21 0 -42.5 -11t-35.5 -30.5t-14 -45.5q0 -28 16 -45t35 -27v-11q-10 -1 -14.5 -1.5t-10.5 -0.5q-47 0 -74.5 33t-27.5 80q0 55 36 90.5t94 35.5q54 0 94 -29.5t62.5 -76
t22.5 -96.5q0 -55 -26.5 -93t-71.5 -65t-102 -51q27 -67 82 -108t137 -41q37 0 81.5 11.5t86.5 40.5t72 82t39 135q-63 14 -116 37t-84.5 58t-31.5 85t32.5 80.5t81.5 30.5q48 0 90.5 -31t69.5 -92.5t27 -155.5q0 -105 -37 -183t-106 -121t-164 -43zM694 383v11
q0 73 -15 109.5t-35.5 49.5t-39.5 13q-22 0 -41 -15t-19 -50q0 -45 38 -73t112 -45z" />
    <glyph glyph-name="vAnusvaraVamagomukhaTail" unicode="&#x1cec;" horiz-adv-x="927" 
d="M454 7q-90 0 -159 37t-114 100t-64 141q64 24 110.5 49t72 58.5t25.5 82.5q0 47 -21 69t-51 22q-21 0 -42.5 -11t-35.5 -30.5t-14 -45.5q0 -28 16 -45t35 -27v-11q-10 -1 -14.5 -1.5t-10.5 -0.5q-47 0 -74.5 33t-27.5 80q0 55 36 90.5t94 35.5q54 0 94 -29.5t62.5 -76
t22.5 -96.5q0 -55 -26.5 -93t-71.5 -65t-102 -51q27 -67 82 -108t137 -41q37 0 82 11.5t87 41.5t72.5 83.5t37.5 138.5q-65 13 -117.5 35.5t-83.5 56t-31 82.5q0 50 32.5 80.5t81.5 30.5q46 0 87 -28.5t68.5 -85.5t31.5 -142q76 -23 113.5 -71.5t37.5 -113.5q0 -75 -49 -145
h-7l-66 55q19 32 35 66t16 67q0 71 -80 97q-4 -99 -42.5 -172t-105.5 -113t-159 -40zM694 391v3q0 73 -15 109.5t-35.5 49.5t-39.5 13q-22 0 -41 -14.5t-19 -49.5q0 -49 43 -73.5t107 -37.5z" />
    <glyph glyph-name="vTiryak" unicode="&#x1ced;" 
d="M-216 -41l2 6q32 6 58 6q33 0 64 -12.5t62 -36.5q13 -10 44 -37t70 -62t76 -71l-34 -38h-7q-48 54 -81 88t-57 52.5t-46.5 25.5t-49.5 7q-24 0 -40 -3t-24 -4z" />
    <glyph glyph-name="vAnusvaraLondHexiform" unicode="&#x1cee;" horiz-adv-x="640" 
d="M413 -4q-48 0 -93.5 20.5t-81.5 55t-57.5 77t-21.5 86.5q0 63 47 99q-52 35 -84 81t-32 94t29 75t74.5 38t94.5 11q28 0 51.5 -2.5t45.5 -7.5l35 -69v-10q-21 5 -47.5 9t-60.5 4q-35 0 -69 -7.5t-56 -26.5t-22 -56q0 -35 21.5 -63.5t62.5 -46.5q49 18 121 18
q14 0 34.5 -1t41.5 -4l35 -68v-10q-19 3 -42.5 5t-47.5 2q-41 0 -77 -8.5t-58.5 -32t-22.5 -68.5q0 -43 20.5 -71.5t51.5 -42.5t64 -14q17 0 31 4t29 11q-10 19 -16 34t-6 28q0 17 10.5 27.5t29.5 10.5q21 0 45.5 -11t42 -30t17.5 -42q0 -20 -16 -43t-47 -39t-76 -16z
M630 334l-63 -61l-62 61l62 63z" />
    <glyph glyph-name="vAnusvaraLong" unicode="&#x1cef;" horiz-adv-x="533" 
d="M427 375l25 -81q-17 -4 -38 -5.5t-37 -1.5q-32 0 -63 6l-12 -18q39 -23 78 -51.5t65 -61.5t26 -70q0 -26 -14 -49.5t-39 -38t-57 -14.5q-33 0 -66.5 16t-61 43.5t-44 62t-16.5 71.5q0 32 14 65t44 74q-65 33 -103 86t-38 104q0 47 29.5 73t75 37t93.5 11q28 0 51.5 -2.5
t45.5 -7.5l35 -69v-10q-21 5 -47.5 9t-61.5 4t-68.5 -7t-55.5 -26t-22 -55q0 -48 43 -77.5t118 -29.5q23 0 48 3t53 10zM279 238q-16 -27 -26 -54t-10 -50q0 -31 19.5 -53t56.5 -22q35 0 54 19.5t19 44.5q0 31 -29.5 58t-83.5 57zM309 523l62 -62l-62 -60l-61 60z" />
    <glyph glyph-name="vAnusvaraLongRthang" unicode="&#x1cf0;" horiz-adv-x="545" 
d="M345 354q83 -45 119 -96t36 -106q0 -51 -26 -86.5t-66.5 -53.5t-84.5 -18q-49 0 -93.5 20.5t-79.5 54.5t-55 76.5t-20 85.5q0 42 17 67.5t43.5 40t52.5 23.5q32 11 55.5 18.5t23.5 22.5q0 10 -11 24t-25 33q-17 23 -35 53t-18 67q0 31 13 59t41.5 46t72.5 18
q87 0 115 -81l-4 -6q-16 7 -34.5 11.5t-39.5 4.5q-48 0 -70 -24t-22 -59q0 -25 12 -46t25 -40q20 -28 39.5 -51t19.5 -49q0 -5 -1 -9zM321 322q-15 -9 -34.5 -16t-40.5 -14q-24 -8 -45.5 -21t-35.5 -34t-14 -55q0 -57 38.5 -87t91.5 -30q33 0 65 12t53.5 38t21.5 68
q0 41 -24.5 73t-75.5 66zM349 596l62 -62l-62 -60l-61 60z" />
    <glyph glyph-name="vAnusvaraUbhayatoMukha" unicode="&#x1cf1;" horiz-adv-x="496" 
d="M431 555v-10q-35 8 -67 11t-59 3q-58 0 -93 -15.5t-35 -50.5q0 -38 40 -75.5t97 -81.5q39 -30 69.5 -56t48 -55t17.5 -67q0 -43 -21.5 -75t-58.5 -50.5t-82 -18.5t-81.5 17.5t-65 45t-50.5 59.5t-38 60l38 22q45 -76 83 -103.5t83 -27.5q46 0 79 24.5t33 73.5
q0 28 -13.5 49t-44.5 45t-83 60q-61 43 -98 82t-37 91q0 46 28.5 72.5t73 37.5t93.5 11q30 0 57.5 -3t51.5 -8zM247 261l62 -62l-62 -60l-61 60zM315 518l62 -62l-62 -60l-61 60z" />
    <glyph glyph-name="vArdhavisarga" unicode="&#x1cf2;" horiz-adv-x="590" 
d="M299 268q64 0 111 -26t80.5 -64t54.5 -76l-38 -22q-28 48 -62 72.5t-69 33.5t-66 9q-30 0 -70 -9t-79 -33.5t-67 -72.5l-39 25q20 35 52.5 73t80 64t111.5 26zM302 310q-63 0 -110.5 26t-81 64.5t-55.5 75.5l38 22q28 -47 62.5 -72t70 -34t65.5 -9t69.5 9t78.5 34t67 72
l39 -25q-19 -35 -51.5 -73t-80 -64t-111.5 -26z" />
    <glyph glyph-name="vArdhavisargaTurned" unicode="&#x1cf3;" horiz-adv-x="561" 
d="M262 278q0 -45 -17 -81t-44 -64.5t-58 -49t-59 -34.5l-24 38q52 26 79 62.5t37 74t10 65.5t-10 60.5t-37 64.5t-79 58l21 37q40 -20 82 -51.5t70.5 -75.5t28.5 -104zM310 281q0 45 17 81t44 64t57.5 48.5t58.5 34.5l24 -38q-51 -26 -78 -62.5t-37 -73.5t-10 -65t10 -61
t37 -65t78 -58l-21 -37q-40 20 -81.5 51.5t-70 76.5t-28.5 104z" />
    <glyph glyph-name="vCandraAbove" unicode="&#x1cf4;" 
d="M-331 838l34 18q34 -64 69.5 -90.5t67.5 -26.5q33 0 58.5 20.5t43.5 50t28 56.5l69 -53q-28 -76 -75.5 -108.5t-97.5 -32.5q-66 0 -114.5 46t-82.5 120z" />
    <glyph glyph-name="vJihvamuliya" unicode="&#x1cf5;" horiz-adv-x="562" 
d="M45 10l201 306l-198 294v10h456v-10l-196 -302l199 -298v-10h-462v10zM408 75l-128 191l-125 -191h253zM274 359l121 186h-246z" />
    <glyph glyph-name="vUpadhmaniya" unicode="&#x1cf6;" horiz-adv-x="776" 
d="M350 365q0 -35 -18 -69.5t-58.5 -62t-109.5 -41.5q28 -44 78 -71t119 -27q70 0 137.5 30.5t109.5 86.5q-49 19 -91.5 46t-68 62t-25.5 79q0 50 34 81.5t84 31.5q45 0 85.5 -25.5t66 -72t25.5 -109.5q0 -60 -25 -110t-69 -86t-102 -56t-123 -20q-84 0 -147.5 30
t-106.5 77.5t-65 101t-22 101.5q0 52 22.5 89t57.5 57t74 20q41 0 72 -20.5t48.5 -53t17.5 -69.5zM628 244q11 23 17 48t6 53q0 62 -24.5 85t-53.5 23q-30 0 -47.5 -21.5t-17.5 -59.5q0 -22 8.5 -44t34.5 -43t77 -41zM135 263q83 16 119 53t36 75q0 22 -12 38t-41 16
q-24 0 -48.5 -13.5t-41.5 -43t-17 -78.5q0 -24 5 -47z" />
    <glyph glyph-name="vAtikrama" unicode="&#x1cf7;" horiz-adv-x="250" 
d="M120 -213l-66 44l57 890q5 71 33.5 115.5t96.5 44.5q17 0 33 -3t26 -8l33 -62l-2 -9q-31 10 -61 10q-50 0 -77 -28t-30 -104l-33 -890h-10z" />
    <glyph glyph-name="vRingAbove" unicode="&#x1cf8;" 
d="M-238 786q0 46 31.5 76t75.5 30q46 0 76.5 -31.5t30.5 -76.5t-31 -75t-75 -30q-46 0 -77 31t-31 76zM-197 784q0 -28 19 -46t47 -18q29 0 47 19t18 47q0 29 -18.5 47t-45.5 18q-30 0 -48.5 -19t-18.5 -48z" />
    <glyph glyph-name="vRing2Above" unicode="&#x1cf9;" 
d="M-365 786q0 46 31.5 76t75.5 30q46 0 76.5 -31.5t30.5 -76.5t-31 -75t-75 -30q-46 0 -77 31t-31 76zM-111 786q0 46 31.5 76t75.5 30q46 0 76.5 -31.5t30.5 -76.5t-31 -75t-75 -30q-46 0 -77 31t-31 76zM-324 784q0 -28 19 -46t47 -18q29 0 47 19t18 47q0 29 -18.5 47
t-45.5 18q-30 0 -48.5 -19t-18.5 -48zM-70 784q0 -28 19 -46t47 -18q29 0 47 19t18 47q0 29 -18.5 47t-45.5 18q-30 0 -48.5 -19t-18.5 -48z" />
    <glyph glyph-name="vAnusvaraDblAntargomukha" unicode="&#x1cfa;" horiz-adv-x="700" 
d="M328 528q0 -32 -27.5 -62t-98.5 -47q26 -20 65 -33t90 -13q54 0 99.5 14.5t76.5 40.5q-51 19 -83.5 49t-32.5 72q0 32 21.5 58t70.5 26q54 0 92.5 -37t38.5 -99q0 -57 -34 -99t-92.5 -65t-130.5 -23q-69 0 -123 19t-92 50t-58 67t-20 70q0 31 16 57.5t44 43t64 16.5
q37 0 62 -16t38.5 -40t13.5 -49zM328 211q0 -32 -27.5 -62.5t-97.5 -48.5q26 -21 65.5 -33.5t90.5 -12.5q53 0 98.5 14.5t76.5 39.5q-51 19 -83 48t-32 71q0 32 21.5 58t69.5 26q55 0 92.5 -38t37.5 -98q0 -56 -34 -98t-92 -64.5t-130 -22.5q-69 0 -123.5 19.5t-92.5 51
t-58 67.5t-20 70q0 31 16 58t44 43.5t64 16.5q37 0 62 -16t38.5 -40t13.5 -49zM558 454q24 32 24 70q0 30 -13 42t-32 12q-23 0 -36.5 -14.5t-13.5 -36.5q0 -7 4 -19.5t19 -26.5t48 -27zM559 134q23 31 23 68q0 28 -12.5 41t-32.5 13q-22 0 -35 -14.5t-13 -38.5
q0 -6 3.5 -17.5t18.5 -25t48 -26.5zM162 156q58 12 84 30.5t26 40.5q0 11 -7.5 20t-30.5 9q-28 0 -52.5 -18.5t-24.5 -53.5q0 -14 5 -28zM161 476q58 11 84.5 28.5t26.5 38.5q0 11 -7.5 20.5t-30.5 9.5q-28 0 -52.5 -18.5t-24.5 -53.5q0 -13 4 -25z" />
    <glyph glyph-name="Ddotbelow" unicode="&#x1e0c;" horiz-adv-x="774" 
d="M188 699q31 0 71 1t66 1q197 0 298 -84t101 -245q0 -118 -51.5 -201.5t-142.5 -127.5t-209 -44q-14 0 -39 0.5t-51 1t-44 0.5q-16 0 -45 -0.5t-59 -1t-50 -0.5q-2 15 0 32q47 5 67 9.5t25 19.5t5 51v465q0 42 -5 60t-25.5 23.5t-66.5 9.5q-2 15 0 32q21 0 50 -0.5
t57.5 -1t47.5 -0.5zM240 655v-531v-42t1 -28q48 -14 99 -14q87 0 145.5 41t88 112t29.5 161q0 140 -71.5 223t-211.5 83q-25 0 -47.5 -2t-32.5 -3zM254 -152q0 29 20.5 49t49.5 20q28 0 48.5 -20t20.5 -48q0 -26 -20 -47.5t-51 -21.5q-28 0 -48 20t-20 48z" />
    <glyph glyph-name="ddotbelow" unicode="&#x1e0d;" horiz-adv-x="589" 
d="M416 -13l-16 7l-4 69q-35 -38 -71.5 -56.5t-80.5 -18.5q-62 0 -108.5 33.5t-71.5 87.5t-25 117q0 73 31.5 133t89 96.5t134.5 36.5q23 0 48 -3.5t52 -11.5v128q0 31 -6 46.5t-23.5 22t-52.5 9.5q-3 13 0 27q40 5 82 15.5t86 29.5l17 -6q-1 -22 -1.5 -50t-0.5 -61v-496
q0 -38 3 -57t18 -26.5t51 -13.5q3 -13 0 -27q-40 -6 -78 -13t-73 -18zM395 392q-43 59 -113 59q-69 0 -104 -50.5t-35 -139.5q0 -52 14 -100t46 -79t85 -31q67 0 107 58v283zM214 -152q0 29 20.5 49t49.5 20q28 0 48.5 -20t20.5 -48q0 -26 -20 -47.5t-51 -21.5q-28 0 -48 20
t-20 48z" />
    <glyph glyph-name="Dlinebelow" unicode="&#x1e0e;" horiz-adv-x="774" 
d="M188 699q31 0 71 1t66 1q197 0 298 -84t101 -245q0 -118 -51.5 -201.5t-142.5 -127.5t-209 -44q-14 0 -39 0.5t-51 1t-44 0.5q-16 0 -45 -0.5t-59 -1t-50 -0.5q-2 15 0 32q47 5 67 9.5t25 19.5t5 51v465q0 42 -5 60t-25.5 23.5t-66.5 9.5q-2 15 0 32q21 0 50 -0.5
t57.5 -1t47.5 -0.5zM240 655v-531v-42t1 -28q48 -14 99 -14q87 0 145.5 41t88 112t29.5 161q0 140 -71.5 223t-211.5 83q-25 0 -47.5 -2t-32.5 -3zM183 -103h282q3 -25 0 -50h-282q-3 25 0 50z" />
    <glyph glyph-name="dlinebelow" unicode="&#x1e0f;" horiz-adv-x="589" 
d="M416 -13l-16 7l-4 69q-35 -38 -71.5 -56.5t-80.5 -18.5q-62 0 -108.5 33.5t-71.5 87.5t-25 117q0 73 31.5 133t89 96.5t134.5 36.5q23 0 48 -3.5t52 -11.5v128q0 31 -6 46.5t-23.5 22t-52.5 9.5q-3 13 0 27q40 5 82 15.5t86 29.5l17 -6q-1 -22 -1.5 -50t-0.5 -61v-496
q0 -38 3 -57t18 -26.5t51 -13.5q3 -13 0 -27q-40 -6 -78 -13t-73 -18zM395 392q-43 59 -113 59q-69 0 -104 -50.5t-35 -139.5q0 -52 14 -100t46 -79t85 -31q67 0 107 58v283zM143 -103h282q3 -25 0 -50h-282q-3 25 0 50z" />
    <glyph glyph-name="Emacronacute" unicode="&#x1e16;" horiz-adv-x="640" 
d="M33 -1q-2 15 0 32q47 5 67 9.5t25 20t5 50.5v465q0 42 -5 60t-25.5 23.5t-66.5 9.5q-2 15 0 32q26 0 45.5 -0.5t39.5 -0.5t48 -0.5t71 -0.5q79 0 148 0.5t115 1t54 0.5q4 -37 9.5 -76t12.5 -83q-17 -2 -33 0q-12 30 -28 53t-33 35q-19 14 -45.5 21t-65.5 7h-131v-273h55
q48 0 73 6.5t37 29t19 71.5q18 3 34 0q-1 -44 -1.5 -67.5t-0.5 -34.5v-18v-10l2 -132q-15 -3 -34 0q-6 53 -18 76t-35.5 29t-66.5 6h-64v-217q0 -34 0.5 -54.5t1.5 -26.5h137q50 0 80.5 8.5t50.5 25.5q14 11 33 38.5t36 63.5q16 2 31 0q-10 -56 -17 -101t-12 -78h-98
t-106 0.5t-96.5 0.5h-69.5q-47 0 -76.5 -0.5t-52 -1t-49.5 -0.5zM180 813h288q3 -24 0 -48h-288q-3 24 0 48zM461 964v-3q-22 -11 -55.5 -29.5t-69 -39t-62.5 -37.5q-11 6 -21 24q34 35 70 77t64 75q16 0 37.5 -21.5t36.5 -45.5z" />
    <glyph glyph-name="emacronacute" unicode="&#x1e17;" horiz-adv-x="497" 
d="M259 -12q-71 0 -120 33t-74.5 88.5t-25.5 122.5q0 69 26.5 128t77.5 95.5t124 36.5q88 0 137.5 -52.5t49.5 -135.5q0 -10 -0.5 -17.5t-1.5 -12.5l-315 3v-7q0 -98 45 -154t126 -56q68 0 134 44q10 -12 15 -23q-85 -93 -198 -93zM140 314l207 4q1 2 1 5.5v4.5
q0 54 -23.5 90t-69.5 36q-43 0 -75 -35t-40 -105zM118 641h282q3 -25 0 -50h-282q-3 25 0 50zM382 896v-4l-128 -194q-5 -1 -14 0t-15 3l49 196q5 5 34 5q40 0 74 -6z" />
    <glyph glyph-name="Hdotbelow" unicode="&#x1e24;" horiz-adv-x="840" 
d="M32 -1q-3 15 0 32q46 4 66.5 9t26 20.5t5.5 50.5v465q0 42 -5 60t-26 23.5t-68 9.5q-3 15 0 32q20 0 49.5 -0.5t58.5 -1t47 -0.5t46.5 0.5t58 1t47.5 0.5q3 -15 0 -32q-46 -4 -67 -9t-26 -20.5t-5 -50.5v-197h360v184q0 42 -5 60t-25 23.5t-67 9.5q-2 15 0 32
q19 0 48 -0.5l58 -1t47 -0.5q20 0 48 0.5t56.5 1t48.5 0.5q2 -15 0 -32q-47 -4 -68 -9t-26 -20.5t-5 -50.5v-465q0 -41 5 -59.5t25.5 -24t68.5 -9.5q2 -17 0 -32q-21 0 -50 0.5t-57.5 1t-47.5 0.5q-18 0 -46 -0.5l-56 -1t-48 -0.5q-3 15 0 32q46 4 66 9t25 20.5t5 50.5v237
h-360v-224q0 -42 5 -60t25.5 -23.5t67.5 -9.5q2 -17 0 -32q-20 0 -49 0.5t-57.5 1t-47.5 0.5q-18 0 -46.5 -0.5l-57 -1t-48.5 -0.5zM350 -152q0 29 20.5 49t49.5 20q28 0 48.5 -20t20.5 -48q0 -26 -20 -47.5t-51 -21.5q-28 0 -48 20t-20 48z" />
    <glyph glyph-name="hdotbelow" unicode="&#x1e25;" horiz-adv-x="596" 
d="M333 -1q-2 16 0 31q31 2 46 6.5t20 19.5t5 48v202q0 60 -18.5 89.5t-73.5 29.5q-29 0 -56 -10.5t-58 -38.5v-262q0 -39 4.5 -56t19 -21.5t45.5 -6.5q5 -15 0 -31q-25 0 -55 1t-67 1t-66 -1t-59 -1q-3 16 0 31q34 2 50 6.5t21 19.5t5 48v482q0 29 -1 46.5t-9 27.5
q-8 11 -23 15.5t-48 7.5q-3 13 0 27q40 5 81 15.5t87 29.5l17 -6q-1 -22 -1.5 -49.5t-0.5 -60.5v-222q45 42 88.5 58.5t83.5 16.5q66 0 101 -39t35 -112v-227q0 -39 4.5 -56t19.5 -21.5t48 -6.5q2 -15 0 -31q-30 0 -58.5 1t-66.5 1q-37 0 -64.5 -1t-55.5 -1zM229 -152
q0 29 20.5 49t49.5 20q28 0 48.5 -20t20.5 -48q0 -26 -20 -47.5t-51 -21.5q-28 0 -48 20t-20 48z" />
    <glyph glyph-name="Kdotbelow" unicode="&#x1e32;" horiz-adv-x="715" 
d="M30 -1q-2 15 0 32q48 5 69 9.5t26 19.5t5 51v465q0 42 -5 60t-26 23.5t-69 9.5q-2 15 0 32q20 0 49.5 -0.5t58.5 -1t47 -0.5q19 0 46.5 0.5t56 1t48.5 0.5q3 -15 0 -32q-46 -4 -66 -9t-25 -20t-5 -51v-247l230 244q38 41 38 56q0 13 -18 18.5t-59 8.5q-2 17 0 32
q17 0 43 -0.5l52 -1t42 -0.5q32 0 60.5 1t62.5 1q2 -16 0 -32q-31 -3 -51.5 -8t-39 -17t-41.5 -34t-58 -58l-147 -152l206 -271q24 -31 40 -49.5t31.5 -28t36 -13.5t52.5 -7q3 -16 0 -32q-19 0 -45 0.5t-51 1t-43 0.5q-11 0 -28.5 -0.5t-31.5 -0.5l-240 323l-41 -45v-154
q0 -42 5 -60.5t25.5 -23.5t65.5 -9q3 -16 0 -32q-20 0 -48.5 0.5l-57 1t-47.5 0.5t-47 -0.5t-56.5 -1t-49.5 -0.5zM289 -152q0 29 20.5 49t49.5 20q28 0 48.5 -20t20.5 -48q0 -26 -20 -47.5t-51 -21.5q-28 0 -48 20t-20 48z" />
    <glyph glyph-name="kdotbelow" unicode="&#x1e33;" horiz-adv-x="550" 
d="M20 -1q-1 4 -1 8v8v7.5t1 7.5q34 2 50 6.5t21 19.5t5 48v501q0 31 -5.5 46.5t-23 22t-52.5 9.5q-1 4 -1 7v6v7t1 7q40 5 82 15.5t86 29.5l17 -6q-1 -22 -1.5 -50t-0.5 -61v-371q12 0 20 4t13 8q2 2 8 7.5t21 20.5t43 45q26 29 41.5 45.5t15.5 27.5q0 8 -13.5 13.5
t-36.5 6.5q-1 4 -1 8v8v8t1 8q20 0 50.5 -1t54.5 -1q12 0 34.5 0.5t45.5 0.5h34q1 -4 1.5 -8t0.5 -8t-0.5 -7.5t-1.5 -7.5q-52 -1 -88 -25.5t-69 -57.5l-72 -72l138 -182q22 -29 36.5 -45.5t31.5 -23.5t47 -9q2 -14 0 -31q-13 0 -38.5 1t-79.5 1h-24t-30 -2q0 11 -12 30.5
t-19 28.5q-3 5 -15 21.5t-28.5 39t-33.5 46t-31 41.5q-11 15 -20.5 23.5t-23.5 8.5v-124q0 -39 3.5 -56t17 -21.5t41.5 -6.5q2 -15 0 -31q-26 0 -54.5 1t-61.5 1q-32 0 -63 -1t-61 -1zM209 -152q0 29 20.5 49t49.5 20q28 0 48.5 -20t20.5 -48q0 -26 -20 -47.5t-51 -21.5
q-28 0 -48 20t-20 48z" />
    <glyph glyph-name="Klinebelow" unicode="&#x1e34;" horiz-adv-x="715" 
d="M30 -1q-2 15 0 32q48 5 69 9.5t26 19.5t5 51v465q0 42 -5 60t-26 23.5t-69 9.5q-2 15 0 32q20 0 49.5 -0.5t58.5 -1t47 -0.5q19 0 46.5 0.5t56 1t48.5 0.5q3 -15 0 -32q-46 -4 -66 -9t-25 -20t-5 -51v-247l230 244q38 41 38 56q0 13 -18 18.5t-59 8.5q-2 17 0 32
q17 0 43 -0.5l52 -1t42 -0.5q32 0 60.5 1t62.5 1q2 -16 0 -32q-31 -3 -51.5 -8t-39 -17t-41.5 -34t-58 -58l-147 -152l206 -271q24 -31 40 -49.5t31.5 -28t36 -13.5t52.5 -7q3 -16 0 -32q-19 0 -45 0.5t-51 1t-43 0.5q-11 0 -28.5 -0.5t-31.5 -0.5l-240 323l-41 -45v-154
q0 -42 5 -60.5t25.5 -23.5t65.5 -9q3 -16 0 -32q-20 0 -48.5 0.5l-57 1t-47.5 0.5t-47 -0.5t-56.5 -1t-49.5 -0.5zM218 -103h282q3 -25 0 -50h-282q-3 25 0 50z" />
    <glyph glyph-name="klinebelow" unicode="&#x1e35;" horiz-adv-x="550" 
d="M20 -1q-1 4 -1 8v8v7.5t1 7.5q34 2 50 6.5t21 19.5t5 48v501q0 31 -5.5 46.5t-23 22t-52.5 9.5q-1 4 -1 7v6v7t1 7q40 5 82 15.5t86 29.5l17 -6q-1 -22 -1.5 -50t-0.5 -61v-371q12 0 20 4t13 8q2 2 8 7.5t21 20.5t43 45q26 29 41.5 45.5t15.5 27.5q0 8 -13.5 13.5
t-36.5 6.5q-1 4 -1 8v8v8t1 8q20 0 50.5 -1t54.5 -1q12 0 34.5 0.5t45.5 0.5h34q1 -4 1.5 -8t0.5 -8t-0.5 -7.5t-1.5 -7.5q-52 -1 -88 -25.5t-69 -57.5l-72 -72l138 -182q22 -29 36.5 -45.5t31.5 -23.5t47 -9q2 -14 0 -31q-13 0 -38.5 1t-79.5 1h-24t-30 -2q0 11 -12 30.5
t-19 28.5q-3 5 -15 21.5t-28.5 39t-33.5 46t-31 41.5q-11 15 -20.5 23.5t-23.5 8.5v-124q0 -39 3.5 -56t17 -21.5t41.5 -6.5q2 -15 0 -31q-26 0 -54.5 1t-61.5 1q-32 0 -63 -1t-61 -1zM138 -103h282q3 -25 0 -50h-282q-3 25 0 50z" />
    </font>
</defs>
</svg>
